<?xml version="1.0" encoding="utf-8"?>
<!-- Generator: Adobe Illustrator 24.0.1, SVG Export Plug-In . SVG Version: 6.00 Build 0)  -->
<svg version="1.1" id="Layer_1" xmlns="http://www.w3.org/2000/svg" xmlns:xlink="http://www.w3.org/1999/xlink" x="0px" y="0px"
	 viewBox="0 0 379 434.4" style="enable-background:new 0 0 379 434.4;" xml:space="preserve">
<style type="text/css">
	.st0{fill-rule:evenodd;clip-rule:evenodd;fill:#FFFFFF;}
	.st1{opacity:0.3003;fill-rule:evenodd;clip-rule:evenodd;fill:#A3B9FC;enable-background:new    ;}
	.st2{fill-rule:evenodd;clip-rule:evenodd;fill:#CA8038;}
	.st3{fill-rule:evenodd;clip-rule:evenodd;fill:#2CC68A;}
	.st4{fill-rule:evenodd;clip-rule:evenodd;fill:#222121;}
	.st5{fill-rule:evenodd;clip-rule:evenodd;fill:#323232;}
	.st6{fill-rule:evenodd;clip-rule:evenodd;fill:#3DE3A3;}
	.st7{fill:none;stroke:#FFFFFF;stroke-linecap:round;}
	.st8{fill-rule:evenodd;clip-rule:evenodd;fill:#3768FA;}
	.st9{opacity:0.5914;fill:none;stroke:#995B20;stroke-linecap:round;enable-background:new    ;}
	.st10{fill-rule:evenodd;clip-rule:evenodd;fill:#B9722D;}
	.st11{opacity:0.5914;}
	.st12{fill:none;stroke:#995B20;stroke-linecap:round;}
	.st13{fill-rule:evenodd;clip-rule:evenodd;fill:#3A3A3A;}
	.st14{fill:none;stroke:#444444;stroke-width:1.5;stroke-linecap:round;}
	.st15{fill-rule:evenodd;clip-rule:evenodd;fill:#C0FA37;}
	.st16{fill-rule:evenodd;clip-rule:evenodd;fill:#242222;}
	.st17{fill-rule:evenodd;clip-rule:evenodd;fill:#FFA54E;}
	.st18{fill-rule:evenodd;clip-rule:evenodd;fill:#98B0F7;}
	.st19{fill-rule:evenodd;clip-rule:evenodd;fill:#A3B9FC;}
	.st20{fill-rule:evenodd;clip-rule:evenodd;fill:#DA17F5;}
	.st21{fill-rule:evenodd;clip-rule:evenodd;fill:#F99533;}
	.st22{fill:none;stroke:#EB8C2F;stroke-linecap:round;}
	.st23{fill-rule:evenodd;clip-rule:evenodd;fill:#315DE0;}
	.st24{opacity:0.7505;fill-rule:evenodd;clip-rule:evenodd;fill:#BF15D7;enable-background:new    ;}
</style>
<title>2@2x</title>
<g id="Page-1">
	<g id="Home" transform="translate(-201.000000, -915.000000)">
		<rect x="-7" y="-3.6" class="st0" width="1440" height="3579"/>
		<g id="Group-32" transform="translate(182.000000, 120.000000)">
			<g id="Group-24" transform="translate(26.000000, 798.560000)">
				<path id="Oval" class="st1" d="M176.5,430.9c95.8,0,173.5-15.2,173.5-34s-77.7-34-173.5-34S3,378.1,3,396.9
					S80.7,430.9,176.5,430.9z"/>
				<g id="Group-10" transform="translate(143.379609, 169.940000)">
					<path id="Path-26" class="st2" d="M168.6,75.9c5.3-2.7,11-4,17-4s11.3,2,16,6c-3.3-6.7-5-11.3-5-14c0-4,3-10,2-15
						c-0.7-3.3-1-7-1-11c-1.3,0.7-5.3,1.3-12,2c-10,1-13,5-14,4s-2-2,0-5c1.3-2,2-3.7,2-5c-2.7-0.7-4-1.7-4-3s2.3-5.7,7-13
						c6-1.3,10-1.3,12,0c3,2,15,5,16,6s6,16,11,22s13,29,13,36s-6,11-8,13s-14,15-36,14c-14.7-0.7-24-2-28-4L168.6,75.9z"/>
					<path id="Path-35" class="st3" d="M46.6,239.9c-9.3,0.7-15-1.3-17-6c-3-7-3-27,10-27C48.3,206.9,50.6,217.9,46.6,239.9z"/>
					<path id="Path-30" class="st4" d="M42.6,167.9l58,18l47-2c36-12.7,54.7-18,56-16s-22.7,17.7-72,47l-66-2l-45-41v-12L42.6,167.9
						z"/>
					<path id="Path-29" class="st5" d="M102.6,212.9c13.3-2.7,24-6,32-10c12-6,42-35,69-35s26,21,13,33s-34,25-57,33
						c-15.3,5.3-38,6.3-68,3L102.6,212.9z"/>
					<path id="Path-33" class="st2" d="M93.6,233.9l14,2l8-20l-16-3L93.6,233.9z"/>
					<path id="Path-34" class="st6" d="M91.6,232.9c0,3.3-1,5.3-3,6c-3,1-16-1-22,0s-22,3-28-1s-7-18-1-24c4-4,21,0,51,12
						L91.6,232.9z"/>
					<path id="Path-73" class="st7" d="M60.6,225.9c0.7,6.7,1.7,10,3,10c1.3,0,1.3-3.3,0-10c6.7,4,10,9.3,10,16"/>
					<path id="Path-28" class="st5" d="M25.6,156.9c-18-0.7-28.7,4-32,14c-5,15,21,36,50,49c19.3,8.7,37.3,14.3,54,17
						c0-7.3,1-12.7,3-16s3.3-6,4-8c-24.7-13.3-39.3-21.3-44-24c-7-4-22-20-31-22c-6-1.3-7-4.7-3-10"/>
					<path id="Path-25" class="st8" d="M105.6,65.9c-18.7-0.7-34,3.3-46,12s-19.3,18.7-22,30c6.7,0,11.7,1.3,15,4
						c3.3,2.7,7.7,6.7,13,12c0,6,0.3,10,1,12c1,3,3,9,2,14c-0.7,3.3-1.3,8.7-2,16l33,24c2.7,4,9.7,5,21,3s21-5,29-9
						c-4.7-8-7-14.7-7-20s1-11.7,3-19c4-6.7,6.3-11.7,7-15s1.3-8.7,2-16c1.3-1.3,3.3-2.7,6-4s5.3-2,8-2c-2-2.7-3-8-3-16s2.3-14,7-18
						c-4-4-10-6.3-18-7c-12-1-18,7-30,3C116.6,67.3,110.3,65.9,105.6,65.9z"/>
					<path id="Path-27" class="st2" d="M41.6,105.9c-6,8.7-10,15.7-12,21c-3,8-1,9-4,14s-7,12-7,16s10,11,19,14s32,9,36,12s-1,5,1,9
						s5,10,5,14s-2,7-1,9c0.7,1.3,1.3,2,2,2l2-4c-0.7,2.7-0.3,4.7,1,6c1.3,1.3,2.7,0.3,4-3c0,2.7,0.3,4.3,1,5c0.7,0.7,1.3-0.3,2-3
						c0,2.7,0.3,4.3,1,5c0.7,0.7,4.3-4.7,11-16l-2-15c1.5,5,2.5,7.6,3,8c0.7,0.5,1-3,1-5c0-1.3-2-5-6-11l-18-17
						c-8.7-8.7-15.3-14.3-20-17s-7.7-4-9-4c2.7-3.3,5-6.3,7-9c3-4,7-9,7-15C65.6,117.9,57.6,112.6,41.6,105.9z"/>
					<polyline id="Path-75" class="st9" points="91.6,215.9 96.6,204.9 96.6,198.9 					"/>
					<polyline id="Path-75_1_" class="st9" points="87.6,215.9 92.6,204.9 92.6,198.9 					"/>
					<polyline id="Path-75_2_" class="st9" points="82.6,213.9 87.6,202.9 87.6,196.9 					"/>
					<path id="Path-24" class="st10" d="M104.6,48.9c0,7.3-0.7,12.3-2,15s-4.3,5-9,7c3.3,11.3,10.3,17,21,17s17.7-5,21-15
						c-3.3-0.7-5.7-2-7-4s-0.7-8.7,2-20H104.6z"/>
					<path id="Path-32" class="st3" d="M125.6,212.9c23.3-6.7,37-6.7,41,0c6,10,1,20-1,21c-1.3,0.7-5.7,2.3-13,5l-29-17L125.6,212.9
						z"/>
					<path id="Path-20" class="st2" d="M99.6,28.9c0,12.7,1.3,20.7,4,24s5,6,7,8c6.7,0.7,10.7,0.7,12,0c1.3-0.7,5.3-4,12-10l1-4
						c5.3,0.7,8.7-1.3,10-6s-1.3-6.3-8-5v-18l-8-5l-22,1L99.6,28.9z"/>
					<path id="Combined-Shape" class="st9" d="M142.6,39.9c-2.8,0-4.4,1-5,3 M138.6,40.9l1.5,1.5"/>
					<path id="Path-4" class="st2" d="M100.6,35.5c-2.7-4-5.3-4.7-8-2c-4,4,6,11,9,9C103.6,41.2,103.2,38.9,100.6,35.5z"/>
					<g id="Group-23" transform="translate(101.620391, 39.500000)" class="st11">
						<path id="Combined-Shape_1_" class="st12" d="M-7-3.6c2.8,0,4.4,1,5,3 M-4-2.6l-1.5,1.5"/>
					</g>
					<path id="Path-31" class="st6" d="M104.6,235.9c-0.7-7.3,0-12,2-14c3-3,5-3,7-5s6-4,9-4s34-2,36,0s7,8,4,18s-3,10-14,11
						s-19-2-26-1C118,241.6,112,239.9,104.6,235.9z"/>
					<path id="Path-19" class="st13" d="M98.6,29.9c-1.3-6.7-1.3-11.3,0-14s2.7-4.3,4-5c-2-7.3,1-12,9-14s14.3,2,19,12
						c7.3,1.3,11.3,4,12,8s-1,11-5,21l-2-6l1-11c-2-1.3-3.3-2.3-4-3s-1.3-1.7-2-3c-0.7,1.3-3,2-7,2s-7.3-0.7-10-2l-7,2
						c-0.7,3.3-1.7,6.3-3,9s-2.3,4-3,4l-1,5L98.6,29.9z"/>
					<path id="Path-21" class="st14" d="M110.6,45.9c1.3,0.7,3.7,1,7,1s5.7-0.7,7-2"/>
					<path id="Path-22" class="st14" d="M105.6,30.9c2-0.7,3.7-0.3,5,1"/>
					<path id="Path-22_1_" class="st14" d="M130.6,31.9c-2-0.7-3.7-0.3-5,1"/>
					<path id="Path-23" class="st14" d="M112.6,23.9c-2-0.7-4-0.7-6,0"/>
					<path id="Path-23_1_" class="st14" d="M124.6,24.9c2-0.7,4-0.7,6,0"/>
				</g>
				<g id="Group-9">
					<path id="Path-13" class="st15" d="M61,410.9c4.7,3.3,9.7,4.7,15,4c8-1,18-4,18-6c0-1.3-5.7-4.7-17-10L61,410.9z"/>
					<path id="Path-14" class="st4" d="M61,374.9c-2,7.3-3.7,12.3-5,15c-2,4-5,6-2,10s35,6,45,4s13-7,12-8s-18-3-25-9s-9-4-12-16
						C72,362.9,67.7,364.2,61,374.9z"/>
					<path id="Path-6" class="st16" d="M47,68.9c1.3-2,1-3.7-1-5c-3-2-9,0-11-6s8-15,8-20s-10-34,11-40c14-4,21.7,0.3,23,13
						c2.7,18,5,30.7,7,38c3,11,12,7,11,14c-0.7,4.7-14.3,8.7-41,12L47,68.9z"/>
					<path id="Path-12" class="st5" d="M60,374.9c1.3,5.3,1.7,9.3,1,12c-1,4-2,5-1,9s-2,14,0,16s12-4,19-5s15,3,16,2s-16-22-18-26
						c-1.3-2.7-3-6.3-5-11L60,374.9z"/>
					<path id="Path-9" class="st17" d="M92,64.9c8.7,0,13.7,1.3,15,4c2,4,2,24,2,34s0,28,6,48s20,45,20,49s-2,18-11,21s3-9,3-15
						c0-4-1.3-7-4-9c-2.7,2-4,3-4,3s-2.7-3-8-9l-13-55L92,64.9z"/>
					<path id="Path-11" class="st18" d="M79,209.9c7.3,15.3,11.7,27.3,13,36c1.3,8.7,2,16.3,2,23c-7.3,13.3-12,23.7-14,31
						c-3,11-4,31-10,35c-4,2.7-4.3,15-1,37c4,2,6.3,3,7,3c1,0,40-74,46-85s2-65,2-77c0-8-5.7-29.3-17-64l-24,8L79,209.9z"/>
					<path id="Path-10" class="st19" d="M54,153.9c-8.7,16-14.3,31.7-17,47c-4,23,13,60,12,70s-6,29-6,46c0,11.3,5.3,31.3,16,60
						c4,1.3,7,1.3,9,0s3.7-2.3,5-3c-1.3-29.3-1-52,1-68s6-54,12-114l14-17l1-26l-45-1l-1,6H54z"/>
					<path id="Path-3" class="st13" d="M52,38.9c-6.7-15.3-5.3-26.7,4-34c14-11,31-4,36,7c3.3,7.3,1.7,16.3-5,27H52z"/>
					<path id="Path-7" class="st20" d="M40,99.9c7.3-7.3,11-14,11-20s-0.7-10.3-2-13c5.3-2,11.3-3.7,18-5c6.7-1.3,15.7-0.7,27,2
						c1.3,8.7,3.3,14.3,6,17c2.7,2.7,6.3,7,11,13c0.7,6.7-0.3,11.7-3,15c-4,5-4,12-4,17c0,3.3,1.3,11.3,4,24c-2.7,4-7.3,6.3-14,7
						s-20.3-0.7-41-4c1.3-12,1-20.3-1-25S46,113.9,40,99.9z"/>
					<path id="Path-8" class="st17" d="M-7,130.9c2.7-7.3,5-12.7,7-16c3-5,9-12,12-17s15-24,22-27c4.7-2,10.3-3,17-3
						c0.7,7.1,0.4,13.1-1,18s-4.1,9.6-8,14l-3-6c-10.7,10.7-16.7,17.7-18,21c-1.3,3.3-4.3,7.3-9,12c5.3,2.7,9.3,4.7,12,6
						s12,5.7,28,13c7.3-7.3,12-11.7,14-13c3-2,7-2,7-1s-2,2-5,4c-2,1.3-3.7,2.7-5,4c4-1.3,7.7-1,11,1s4,3,2,3c-3.3-1.3-5.7-2-7-2
						s-4,1-8,3c5.3,0,8.7,0.3,10,1c2,1,3.9,2.4,3,3c-0.6,0.4-2.6,0.1-6-1l-10,2c4,0,6.3,0.3,7,1c1,1,4.3,2,4,3c-0.3,1-2,1-3,1
						s-3-2-5-2s-6,7-9,7s-4-5-9-6s-30-9-38-13C-0.3,138.2-4.3,134.9-7,130.9z"/>
					<path id="Path-5" class="st21" d="M59,46.9v24c6,10,12.3,14.7,19,14c6.7-0.7,7.7-7.7,3-21l-1-18L59,46.9z"/>
					<path id="Path-4_1_" class="st21" d="M88,35.9c2.7-4,5.3-4.7,8-2c4,4-6,11-9,9C85,41.5,85.3,39.2,88,35.9z"/>
					
						<g id="Group-8" transform="translate(98.000000, 41.440000) scale(-1, 1) rotate(11.000000) translate(-98.000000, -41.440000) translate(95.000000, 39.440000)">
						<path id="Path-15" class="st22" d="M6.2-4.8c3.3,0,5.3,1.3,6,4"/>
						<line id="Path-16" class="st22" x1="10.2" y1="-3.8" x2="8.2" y2="-1.8"/>
					</g>
					<path id="Path-2" class="st17" d="M55,37.9c-5.3-3.3-8.3-2.3-9,3s2.7,7.3,10,6c6,5.3,10.7,9,14,11s6.3,2.3,9,1
						c6.7-5.3,10-10.3,10-15c0-7,0-18,0-20s0-8-4-10s-5,0-9-1s-7-4-12-1s-8,9-8,12c0,2,0.3,4.3,1,7L55,37.9z"/>
					<g id="Group-8_1_" transform="translate(56.000000, 43.440000)">
						<path id="Path-15_1_" class="st22" d="M-7-3.6c3.3,0,5.3,1.3,6,4"/>
						<line id="Path-16_1_" class="st22" x1="-3" y1="-2.6" x2="-5" y2="-0.6"/>
					</g>
					<path id="Path-17" class="st14" d="M68,24.9c-2-1.3-4.3-1.3-7,0"/>
					<path id="Path-17_1_" class="st14" d="M68.8,33.6c-1.7-1.7-4-2.2-6.8-1.5"/>
					<path id="Path-17_2_" class="st14" d="M79.2,32.8c1.6-1.8,3.8-2.4,6.8-1.8"/>
					<path id="Path-17_3_" class="st14" d="M78.1,24.5c1.7-1.7,4-2.1,6.9-1.2"/>
					<path id="Path-18" class="st14" d="M69.9,45.5c1.6,0.7,3.5,1,5.8,0.7c2.3-0.3,3.7-0.6,4.3-1.1"/>
				</g>
				<path id="Path-52" class="st7" d="M62,285.9c4.7-2,8.3-5.3,11-10"/>
				<path id="Path-56" class="st7" d="M97,309.9c8-8,14.7-13.3,20-16"/>
				<path id="Path-61" class="st7" d="M101,115.9c-8.7,8-14,16.3-16,25"/>
				<path id="Path-71" class="st7" d="M230,245.9c6,16,16.3,22.7,31,20c14.7-2.7,23-10.3,25-23"/>
				<path id="Path" class="st23" d="M293.8,306c-1.2,2.5-2.8,5.5-4.8,8.9c-2,7.3-3,13.7-3,19s2.3,12,7,20c-7.8,3.9-17.1,6.8-28,8.8
					l-0.3,0.1l-0.2-4l0,0l-0.2-3.1l0,0l-0.1-2.8l0,0l-0.1-2.1l0,0l0-1.4l0,0l0-1.8l0,0l0-1.2l0,0l0-1.1l0,0l0-0.4c0-1.3,0.5-3,1.4-5
					l0.3-0.6c0.2-0.5,0.5-1,0.8-1.5l0.4-0.6l0,0l0.4-0.6l0,0l0.4-0.6c0.1-0.1,0.1-0.2,0.2-0.3l0.4-0.7l0,0l0.5-0.7l0,0l0.5-0.7l0,0
					l0.5-0.7c0.1-0.1,0.2-0.2,0.3-0.4l0.5-0.7l0,0l0.6-0.8l0,0l0.6-0.8l0,0l0.6-0.8l0,0l0.6-0.8c0.1-0.1,0.2-0.3,0.3-0.4l0.7-0.8
					l0,0l1.1-1.3l0,0l1.1-1.3l0,0l0.8-0.9l0,0l0.8-0.9l0,0l0.8-0.9l0,0l0.8-1l0,0l0.9-1l0,0l1.4-1.5l0,0l0.9-1l0,0l1.4-1.5l0,0
					l1.5-1.6l0,0l1.5-1.6l0,0l1.1-1.1l0,0l1.1-1.1l0,0l1.7-1.7l0,0l1.7-1.7l0,0L293.8,306z"/>
				<path id="Path_1_" class="st24" d="M104,124.2l0,1.7l0,0l0,0.3l0,0l0,0.4l0,0l0,0.6l0,0l0.1,0.7l0,0l0.1,0.8l0,0l0.1,0.8l0,0
					l0.1,0.9l0,0l0.1,1l0,0l0.2,1l0,0l0.2,1.5l0,0l0.2,1.2l0,0l0.4,2.2l0,0l0.3,1.9l0,0l0.5,2.5l0,0l0.4,2.2l0,0l0.7,3.5l0,0
					l0.4,1.8c0,0.2,0.1,0.4,0.1,0.6c-2.7,4-7.3,6.3-14,7c-0.6,0.1-1.2,0.1-1.9,0.1l-0.8,0c-0.6,0-1.2,0-1.8,0l-1,0
					c-0.2,0-0.3,0-0.5,0l-1.1,0l0,0l-1.1-0.1l0,0l-1.1-0.1l0,0c0.1-1,0.3-2,0.4-3l0.2-1.5c3.4-20.4,10.5-34.2,21.3-41.5
					c-2.1,3.7-2.6,8.2-2.6,12.1l0,0.9C104,123.9,104,124.1,104,124.2L104,124.2z"/>
				<path id="Path_2_" class="st18" d="M53,299.9c0,8.8-1.6,16.3-3.6,23.3l-0.4,1.4l0,0l-0.4,1.4l0,0l-0.4,1.4l0,0l-1,3.4l0,0
					l-0.8,2.7l0,0l-0.4,1.3c-0.1,0.2-0.1,0.4-0.2,0.7c-0.8-3.2-1.4-6.2-1.8-8.9l-0.2-1.2c-0.5-3.2-0.7-6-0.7-8.4
					c0-5.4,0.5-11,1.2-16.5l0.2-1.6c0-0.3,0.1-0.5,0.1-0.8l0.2-1.5l0,0L45,295l0,0l0.2-1.5l0,0l0.4-2.2l0,0l0.4-2.2l0,0l0.4-2.1l0,0
					l1.2-6.7l0,0l0.2-1.2l0,0l0.2-1.2l0,0l0.2-1.2l0,0l0.2-1.1c0-0.2,0.1-0.4,0.1-0.6l0.2-1.1l0,0l0.1-1l0,0l0.1-1l0,0l0.1-0.9l0,0
					l0-0.3l0,0C51.7,278.8,53,288.5,53,299.9z"/>
				<path id="Path-72" class="st7" d="M275,399.9c-2.7,8-3,13-1,15s2.7-2.7,2-14c2.7-8,3.3-12.3,2-13c-2-1-4,0-3,5
					c0.7,3.3,0.3,5-1,5c-4.7,2.7-7.7,6-9,10"/>
				<polyline id="Path-74" class="st9" points="319,203.9 323,202.9 334,200.9 336,194.9 				"/>
			</g>
		</g>
		<g id="Group-33" transform="translate(182.000000, 1006.000000)">
		</g>
	</g>
</g>
</svg>
