<svg id="Layer_1" data-name="Layer 1" xmlns="http://www.w3.org/2000/svg" xmlns:xlink="http://www.w3.org/1999/xlink" viewBox="0 0 246.39 126.13"><defs><style>.cls-1,.cls-5,.cls-6,.cls-7{fill:none;}.cls-2{fill:#a8b7de;opacity:0.3;}.cls-2,.cls-5,.cls-7{isolation:isolate;}.cls-3{fill:#8c54a2;}.cls-4{clip-path:url(#clip-path);}.cls-5,.cls-7{stroke:#232323;opacity:0.94;}.cls-5{stroke-miterlimit:10;}.cls-6{stroke:#fff;}.cls-6,.cls-7{stroke-miterlimit:10;}</style><clipPath id="clip-path"><path class="cls-1" d="M246.4,16.11v110H0V11.49a219,219,0,0,0,22.73,5.66c18.2,3.53,31.33,3.67,67.42,4.17,25.88.37,38.82.58,39.64.58,28.17-.21,49.47-1.67,67.09-2.92,12.89-.91,29.73-2.29,49.51-4.43"/></clipPath></defs><title>footer_background</title><g id="Group_34" data-name="Group 34"><path id="Path_58" data-name="Path 58" class="cls-2" d="M0,8.18A788.93,788.93,0,0,0,113.45,14,789.2,789.2,0,0,0,246.39,0V61.28L231.88,73.43-.17,35.38q.11-3.5.17-7Q.18,18,0,8.18Z"/><g id="Group_29" data-name="Group 29"><path id="Combined_Shape-2" data-name="Combined Shape-2" class="cls-3" d="M246.39,126.13H0V11.49a203.35,203.35,0,0,0,20.12,4.62c8,1.42,14.8,2,28.52,3.05,11.22.87,23.69,1.55,37.05,2,20.2.7,36.34.75,43.11.72,49.83-.19,107.27-6.24,117.59-7.35Z"/><g class="cls-4"><g id="Group_29-2" data-name="Group 29-2"><path id="Path" class="cls-5" d="M-51.29,70.41q14.79,34.47,79.45,28.68c64.66-5.78,67.21,24.82,105.91,37.55,24.88,8.85,61.13,1.6,118.34-25.57"/><path id="Path_66" data-name="Path 66" class="cls-6" d="M122.5,15.19S183.87,47,230.23,44.56,325.59,5.3,325.59,5.3"/><path id="Path_67" data-name="Path 67" class="cls-7" d="M91.65,18.75c-8-6.91,34.09,21.35,58.9,18,33.27-4.52,53.36-29.87,116.64-28.38"/><path id="Path_5" data-name="Path 5" class="cls-6" d="M-77.79,117.24s32.45-49.42,74.71-39,33.57,42.65,92.86,45.37"/></g></g></g><g id="Group_23" data-name="Group 23"><path id="Path_5-2" data-name="Path 5-2" class="cls-6" d="M96.86,12.89c53.73,12,22,7.79,17.48,7.42"/></g></g></svg>