<?xml version="1.0" encoding="utf-8"?>
<!-- Generator: Adobe Illustrator 24.0.1, SVG Export Plug-In . SVG Version: 6.00 Build 0)  -->
<svg version="1.1" id="Layer_1" xmlns="http://www.w3.org/2000/svg" xmlns:xlink="http://www.w3.org/1999/xlink" x="0px" y="0px"
	 viewBox="0 0 797.4 802" style="enable-background:new 0 0 797.4 802;" xml:space="preserve">
<style type="text/css">
	.st0{fill-rule:evenodd;clip-rule:evenodd;fill:#FFFFFF;}
	.st1{fill-rule:evenodd;clip-rule:evenodd;fill:url(#Path_9_);}
	.st2{opacity:0.9628;fill-rule:evenodd;clip-rule:evenodd;fill:url(#Vector-15_2_);enable-background:new    ;}
	.st3{fill-rule:evenodd;clip-rule:evenodd;fill:#3768FA;}
	.st4{fill-rule:evenodd;clip-rule:evenodd;fill:#FFA54E;}
	.st5{fill-rule:evenodd;clip-rule:evenodd;fill:#323232;}
	.st6{fill-rule:evenodd;clip-rule:evenodd;fill:#282727;}
	.st7{fill-rule:evenodd;clip-rule:evenodd;fill:#F29439;}
	.st8{fill:none;stroke:#FFFFFF;stroke-width:1.5162;stroke-linecap:round;}
	.st9{fill-rule:evenodd;clip-rule:evenodd;fill:#C0FA37;}
	.st10{fill:#688D12;}
	.st11{opacity:0.9628;fill-rule:evenodd;clip-rule:evenodd;fill:url(#Vector-15_3_);enable-background:new    ;}
	.st12{opacity:0.1551;fill-rule:evenodd;clip-rule:evenodd;fill:#333333;enable-background:new    ;}
	.st13{fill-rule:evenodd;clip-rule:evenodd;fill:url(#Vector-10_3_);}
	.st14{fill-rule:evenodd;clip-rule:evenodd;fill:url(#Combined-Shape_2_);}
	.st15{fill:none;stroke:#FFFFFF;stroke-width:0.95;stroke-dasharray:0,0;}
	.st16{fill-rule:evenodd;clip-rule:evenodd;fill:url(#Rectangle-10_1_);}
	.st17{fill-rule:evenodd;clip-rule:evenodd;fill:url(#Rectangle-9_1_);}
	.st18{fill-rule:evenodd;clip-rule:evenodd;fill:#B6C8FF;}
	.st19{fill-rule:evenodd;clip-rule:evenodd;fill:#7F9AEC;}
	.st20{fill-rule:evenodd;clip-rule:evenodd;fill:#A3B9FC;}
	.st21{fill-rule:evenodd;clip-rule:evenodd;fill:#998F8F;}
	.st22{fill-rule:evenodd;clip-rule:evenodd;fill:#AAC3FF;}
	.st23{opacity:0.8373;fill-rule:evenodd;clip-rule:evenodd;fill:#FFFFFF;enable-background:new    ;}
	.st24{opacity:0.6979;fill-rule:evenodd;clip-rule:evenodd;fill:#FFFFFF;enable-background:new    ;}
	.st25{fill-rule:evenodd;clip-rule:evenodd;fill:#86B024;}
	.st26{fill-rule:evenodd;clip-rule:evenodd;fill:#DA17F5;}
	.st27{fill-rule:evenodd;clip-rule:evenodd;fill:#F4A8FF;}
	.st28{fill-rule:evenodd;clip-rule:evenodd;fill:#F0B135;}
	.st29{fill:#FFF2D8;}
	.st30{fill-rule:evenodd;clip-rule:evenodd;fill:url(#Vector-20_1_);}
	.st31{fill:none;stroke:#323232;stroke-width:1.0379;stroke-linecap:round;}
	.st32{fill-rule:evenodd;clip-rule:evenodd;fill:#F99B40;}
	.st33{fill:none;stroke:#B6C8FF;stroke-width:1.0898;stroke-linecap:round;}
	.st34{opacity:0.8373;fill-rule:evenodd;clip-rule:evenodd;fill:#DAE3FF;enable-background:new    ;}
</style>
<title>1@2x</title>
<g id="Page-1">
	<g id="Home4" transform="translate(-607.000000, 0.000000)">
		<rect x="-35.6" y="0" class="st0" width="1440" height="3579"/>
		<g id="Group-45" transform="translate(614.000000, -113.000000)">
			
				<linearGradient id="Path_9_" gradientUnits="userSpaceOnUse" x1="249.8537" y1="607.069" x2="250.8349" y2="606.809" gradientTransform="matrix(807.5 0 0 -780.8843 -201890.3594 474305)">
				<stop  offset="0" style="stop-color:#AE36EB"/>
				<stop  offset="1" style="stop-color:#9C29D6"/>
			</linearGradient>
			<path id="Path" class="st1" d="M-6.2,780.9L797.4,311l4-311L-6.2,440.2V780.9z"/>
			<g id="Group-37" transform="translate(0.000000, 195.700000)">
				
					<linearGradient id="Vector-15_2_" gradientUnits="userSpaceOnUse" x1="248.9157" y1="412.0874" x2="251.1739" y2="411.8831" gradientTransform="matrix(438.3472 0 0 -263.0167 -108998.6719 108684.3125)">
					<stop  offset="0" style="stop-color:#A12ADE"/>
					<stop  offset="1" style="stop-color:#8A1DC1"/>
				</linearGradient>
				<path id="Vector-15" class="st2" d="M659.5,458.5L895,295c2.7-1.9,3.3-5.5,1.5-8.2c-0.6-0.8-1.3-1.4-2.2-1.9l-170.2-86.7l0,0
					l-261.5,155c-3.3,1.9-4.3,6.1-2.4,9.4c0.7,1.1,1.6,2,2.7,2.6l181.4,94.3C649.1,462,655,461.6,659.5,458.5z"/>
				<g id="Group-36" transform="translate(582.350000, 82.650000)">
					<path id="Path-80" class="st3" d="M64.9,48.5c18.2,0,29.3,2,33.4,6.1s-4.5,11.1-25.8,21.2L58.8,57.6L64.9,48.5z"/>
					<path id="Path-69" class="st4" d="M-4.8,177.4c-6.1,5.1-9.1,8.6-9.1,10.6c0,2,0.5,8.6,1.5,19.7l3,68.2L1.2,282l3-4.5
						c-1-10.1,0-20.2,3-30.3c3-10.1,4-25.8,3-47l7.6-7.6l-7.6-16.7L-4.8,177.4z"/>
					<path id="Path-70" class="st4" d="M84.6,251.7c5.1,8.1,9.1,12.1,12.1,12.1c4.5,0,24.3-7.6,31.8-7.6c5.1,0,13.1-0.5,24.3-1.5
						l9.1-12.1l-3-4.5c-8.1,0-14.2-0.5-18.2-1.5c-6.1-1.5-12.1-4.5-22.7-1.5c-7.1,2-14.2,2.5-21.2,1.5L84.6,251.7z"/>
					<path id="Path-65" class="st5" d="M43.7,134.9c-3,11.1-5.6,16.7-7.6,16.7c-3,0-28.8,12.1-39.4,21.2c-7.1,6.1-8.6,8.6-4.5,7.6
						c10.1,5.1,15.7,9.1,16.7,12.1c1,3,2,6.6,3,10.6C27,195.1,37.1,191,42.2,191s13.6-2,25.8-6.1c11.1-19.2,16.7-33.9,16.7-44
						C84.6,130.9,71,128.9,43.7,134.9z"/>
					<path id="Path-68" class="st6" d="M55.8,148.6c2,17.2,4.5,29.3,7.6,36.4c3,7.1,9.1,30.8,18.2,71.3c10.1-2,16.7-4,19.7-6.1
						c3-2,6.1-7.1,9.1-15.2c0-31.3-1-50.5-3-57.6c-2-7.1-8.1-20.2-18.2-39.4L55.8,148.6z"/>
					<g id="Group-52" transform="translate(43.825400, 0.000000)">
						<path id="Vector-38" class="st7" d="M59,36.2c0-2.3-9,1.1-12.4-4.5c-2.7-4.5,1.9-13.1,4.5-16.9c3.8,3,11.3,9.5,11.3,11.3
							c4.1,1.9,12.4,6.5,12.4,10.1c0,4.5-3.4,38.3-6.8,41.7c-2.7,2.7-10.1-16.1-13.5-25.9C56.8,47.1,59,38,59,36.2z"/>
						<path id="Vector-37" class="st7" d="M-35.6,13.7c2.3-1.1,9.7-3.6,21.4-4.5s34.2,4.1,43.9,6.8l-2.3,7.9
							c-10.9,0-33.6-0.2-37.2-1.1C-5.9,26,2,33.9,3.8,38.4s-9.8,5.6-15.8,5.6C-19.4,39.2-34.7,26.3-35.6,13.7z"/>
						<path id="Vector-34" class="st5" d="M33.1,0.1c23.6-2.3,20.3,22.5,19.1,27c-0.9,3.6-3.4,12-4.5,15.8l-9-11.3L25.2,19.3
							L17.4,26C14.7,18.2,14.2,1.9,33.1,0.1z"/>
						<path id="Vector-35" class="st7" d="M48.9,53.1c-0.8,5.6-3.7,16.1-18,14.6c-11.3-1.1-7.5-12.8-2.3-20.3l18-11.3L48.9,53.1z"/>
						<path id="Vector-33" class="st4" d="M16.2,28.3c1.1,0.8,3.2,2.9,2.3,5.6s4.1,11.6,6.8,15.8H32l12.4-10.1
							c2.6-0.8,7.4-3.4,5.6-7.9s-6-0.4-7.9,2.3c-0.8-4.1-2.9-12.8-5.6-14.6c-3.4-2.3-15.8-3.4-18-2.3c-1.8,0.9-2.3,3.4-2.3,4.5V28.3
							z"/>
					</g>
					<path id="Path-60" class="st3" d="M27,40.9c9.1,7.1,14.2,11.6,15.2,13.6c1,2,2,6.1,3,12.1V94c3,5.1,4,8.6,3,10.6
						c-1,2-3,13.6-6.1,34.9c3,5.1,7.6,8.1,13.6,9.1c6.1,1,18.7-0.5,37.9-4.5c-2-5.1-2-10.6,0-16.7c3-9.1,21.2-33.4,21.2-40.9
						c0-5.1,1-15.2,3-30.3c-6.1,1-10.1,1-12.1,0c-2-1-4.5-3-7.6-6.1C88.2,64.2,80.1,69.7,74,66.7c-6.1-3-7.6-8.1-4.5-15.2
						c-8.1-8.1-13.1-13.1-15.2-15.2c-2-2-6.6-4.5-13.6-7.6c-4,6.1-7.1,9.1-9.1,9.1S28,38.9,27,40.9z"/>
					<path id="Path-62" class="st8" d="M51.3,50c-2,9.1-3,15.2-3,18.2"/>
					<path id="Path-63" class="st8" d="M84.6,68.2c5.1,14.2,13.6,21.2,25.8,21.2"/>
					<path id="Path-64" class="st8" d="M60.4,141c11.1-4,19.2-7.6,24.3-10.6"/>
					<path id="Path-77" class="st3" d="M-4.8,279c1-3,1-4.5,0-4.5c-1,0-2.5-0.5-4.5-1.5l-3,4.5L-4.8,279z"/>
					<path id="Path-64_1_" class="st8" d="M77,128.9c4.2-1.7,7.2-3.2,9.1-4.5"/>
					<path id="Path-76" class="st0" d="M-10.9,274.4c-5.1,6.1-8.1,10.1-9.1,12.1c-1.5,3-14.2,4.7-15.2,7.6c-1,2.9,0,6.1,10.6,6.1
						s15.2-3,21.2-3c6.1,0,7.6,0,10.6-1.5c2-1,1-8.1-3-21.2c-4,1-7.1,1.5-9.1,1.5S-8.9,275.4-10.9,274.4z"/>
					<path id="Path_1_" class="st3" d="M8.2,291.3c0.2,2.5-0.1,4-0.9,4.4l-0.6,0.3l0,0l-0.5,0.2c-0.9,0.4-1.8,0.6-2.8,0.8L2.8,297
						c-0.1,0-0.2,0-0.3,0l-0.6,0l0,0l-0.7,0l0,0l-0.7,0l0,0l-1.3,0l0,0l-2.5,0l0,0c-1.4,0-2.7,0.2-4,0.4l-0.9,0.2l0,0l-0.9,0.2l0,0
						l-0.9,0.2l0,0l-2.4,0.6l0,0l-1,0.2l0,0l-1.1,0.2l0,0l-1.1,0.2c-2.5,0.4-5.3,0.8-8.9,0.8c-6.9,0-9.7-1.3-10.6-3l3.6-0.3l0,0
						l3.5-0.3l0,0l3.3-0.3l0,0l3.2-0.3l0,0l3-0.3l0,0l2.9-0.3l0,0l2.7-0.3l0,0l1.7-0.2l0,0l1.7-0.2l0,0l2.6-0.4l0,0l1.9-0.3l0,0
						l1.8-0.3c0.3,0,0.6-0.1,0.9-0.1l1.7-0.3c0.3,0,0.5-0.1,0.8-0.1l1.6-0.3l0,0l1.5-0.3l0,0l1.4-0.3c0.2,0,0.5-0.1,0.7-0.1l1.3-0.3
						c0.2,0,0.4-0.1,0.6-0.1L8.2,291.3z"/>
					<path id="Path-78" class="st0" d="M151.3,254.7c3,3,4.5,7.1,4.5,12.1c0,7.6-1.5,13.6,0,15.2c1.5,1.5,9.1,0,13.6-1.5
						s4.5-12.1,4.5-13.6s-1.5-19.7-1.5-24.3s-1.5-6.1-3-6.1c-1,0-6.6,0.5-16.7,1.5c2,4,3,7.1,3,9.1
						C155.9,249.2,154.4,251.7,151.3,254.7z"/>
					<path id="Path-79" class="st3" d="M152.9,256.2c-2-1-3-2-3-3s1.5-2.5,4.5-4.5l3,3L152.9,256.2z"/>
					<path id="Path_2_" class="st3" d="M169.5,236.5c1.5,0,2.9,1.4,3,5.6l0,0.9l0,0l0,1l0,0l0.1,1.6l0,0l0.2,2.8l0,0l0.2,2.6l0,0
						l1,14.2l0,0l0.1,1.3l0,0l0,0.2l0,0l0,1l0,0l0,0.8l0,0l0,0.9l0,0l0,0.7l0,0l-0.1,0.7c0,0.1,0,0.2,0,0.4l-0.1,0.8
						c-0.5,3.5-1.6,7.5-4.2,8.4c-0.4,0.1-0.9,0.3-1.3,0.4l0.5-2.8l0,0l0.3-1.8l0,0l0.3-1.7l0,0l0.3-1.7l0,0l0.2-1.6l0,0l0.2-1.5l0,0
						l0.2-1.5l0,0l0.2-1.4c0-0.2,0.1-0.5,0.1-0.7l0.1-1.3l0,0l0.1-1.3l0,0l0.1-1.2c0-0.2,0-0.4,0-0.6l0.1-1.1c0-0.2,0-0.4,0-0.5l0-1
						c0-0.5,0-1,0-1.4c0-1.9-0.1-4.1-0.4-6.6l-0.2-1.4l0,0l-0.2-1.4c0-0.2-0.1-0.5-0.1-0.7l-0.2-1.5c0-0.3-0.1-0.5-0.1-0.8l-0.3-1.6
						l0,0l-0.3-1.7c-0.1-0.3-0.1-0.6-0.2-0.9l-0.4-1.8l0,0l-0.4-1.8l0,0l-0.2-0.8l1.1-0.1l0,0L169.5,236.5L169.5,236.5z"/>
				</g>
				<g id="Group-53" transform="translate(584.250000, 2.286265)">
					<path id="Vector-4" class="st9" d="M59.1,51.9v17.8c0,3.3-2.6,5.9-5.9,5.9c-0.8,0-1.6-0.2-2.3-0.5L41,70.8l0,0l0.2,10.6
						L30.7,66l-58.3-26.6c-4.9-2.2-8-7.1-8-12.5V7.6c0-2.7,2.2-4.9,4.9-4.9c0.7,0,1.4,0.1,2,0.4l79.8,36.2
						C56,41.6,59.1,46.5,59.1,51.9z"/>
					<path id="Yougotthis_x21_" class="st10" d="M-22.7,28.5v-2.8l2.9-4.3l-2.3-1l-1.6,2.7l-1.6-4.1l-2.3-1l2.9,6.9v2.8L-22.7,28.5z
						 M-15.6,31.7c0.6,0.3,1.2,0.4,1.7,0.4c0.5,0,0.9-0.3,1.2-0.7c0.3-0.4,0.4-0.9,0.4-1.6c0-0.7-0.1-1.4-0.4-2
						c-0.3-0.6-0.7-1.2-1.2-1.7c-0.5-0.5-1.1-0.9-1.7-1.2c-0.6-0.3-1.2-0.4-1.7-0.4s-0.9,0.3-1.2,0.6c-0.3,0.4-0.4,0.9-0.4,1.6
						c0,0.7,0.1,1.4,0.4,2c0.3,0.6,0.7,1.2,1.2,1.7C-16.9,31-16.3,31.4-15.6,31.7z M-15.6,30c-0.4-0.2-0.7-0.4-1-0.8
						c-0.3-0.4-0.4-0.9-0.4-1.4c0-0.5,0.1-0.9,0.4-1s0.6-0.2,1,0c0.4,0.2,0.7,0.4,1,0.8s0.4,0.9,0.4,1.4s-0.1,0.9-0.4,1
						S-15.3,30.1-15.6,30z M-8.5,34.9c0.5,0.2,0.9,0.3,1.3,0.2s0.7-0.3,0.8-0.6v1.2l2,0.9V30l-2-0.9v3.5c0,0.5-0.1,0.8-0.4,1
						c-0.2,0.2-0.6,0.1-1,0c-0.4-0.2-0.7-0.4-0.9-0.8c-0.2-0.4-0.3-0.8-0.3-1.2V28l-2-0.9v3.8c0,0.9,0.2,1.7,0.7,2.4
						C-9.8,34-9.2,34.5-8.5,34.9z M3.5,43.3c0.7,0.3,1.3,0.4,1.8,0.4c0.5-0.1,0.8-0.3,1.1-0.7s0.4-0.9,0.4-1.5v-6.6l-2-0.9v1.2
						c-0.2-0.5-0.4-0.9-0.8-1.3c-0.4-0.4-0.8-0.7-1.3-0.9c-0.5-0.2-1-0.3-1.4-0.2c-0.4,0.1-0.8,0.3-1,0.7c-0.2,0.4-0.4,1-0.4,1.6
						c0,0.7,0.1,1.3,0.4,2c0.2,0.6,0.6,1.2,1,1.6s0.9,0.8,1.4,1C3.2,40,3.6,40.1,4,40c0.4-0.1,0.6-0.3,0.8-0.6v1.2
						c0,0.5-0.1,0.9-0.4,1c-0.3,0.1-0.6,0.1-1-0.1c-0.4-0.2-0.7-0.4-0.9-0.6c-0.2-0.2-0.4-0.5-0.4-0.8l-2-0.9
						c0.1,0.9,0.5,1.7,1.1,2.4C1.8,42.3,2.6,42.9,3.5,43.3z M3.3,38.3c-0.4-0.2-0.8-0.5-1-0.9C2,37,1.9,36.5,1.9,36
						c0-0.5,0.1-0.8,0.4-1c0.3-0.2,0.6-0.2,1,0c0.4,0.2,0.8,0.5,1,0.9c0.3,0.4,0.4,0.9,0.4,1.4c0,0.5-0.1,0.8-0.4,1
						C4.1,38.5,3.8,38.5,3.3,38.3z M11.6,43.7c0.6,0.3,1.2,0.4,1.7,0.4s0.9-0.3,1.2-0.7c0.3-0.4,0.4-0.9,0.4-1.6
						c0-0.7-0.1-1.4-0.4-2c-0.3-0.6-0.7-1.2-1.2-1.7c-0.5-0.5-1.1-0.9-1.7-1.2s-1.2-0.4-1.7-0.4c-0.5,0-0.9,0.3-1.2,0.6
						c-0.3,0.4-0.4,0.9-0.4,1.6c0,0.7,0.1,1.4,0.4,2c0.3,0.6,0.7,1.2,1.2,1.7C10.4,43,11,43.4,11.6,43.7z M11.6,41.9
						c-0.4-0.2-0.7-0.4-1-0.8c-0.3-0.4-0.4-0.9-0.4-1.4c0-0.5,0.1-0.9,0.4-1c0.3-0.2,0.6-0.2,1,0s0.7,0.4,1,0.8
						c0.3,0.4,0.4,0.9,0.4,1.4c0,0.5-0.1,0.9-0.4,1C12.3,42.1,12,42.1,11.6,41.9z M20.1,47.3v-1.7l-0.6-0.3
						c-0.3-0.1-0.4-0.2-0.5-0.4c-0.1-0.1-0.2-0.4-0.2-0.6v-2.5l1.3,0.6v-1.7l-1.3-0.6v-1.6l-2-0.9v1.6l-0.9-0.4v1.7l0.9,0.4v2.4
						c0,0.9,0.2,1.6,0.6,2.2c0.4,0.6,1,1,1.8,1.4L20.1,47.3z M28.1,50.8v-1.7l-0.6-0.3c-0.3-0.1-0.4-0.2-0.5-0.4s-0.2-0.4-0.2-0.6
						v-2.5l1.3,0.6v-1.7l-1.3-0.6V42l-2-0.9v1.6l-0.9-0.4v1.7l0.9,0.4v2.4c0,0.9,0.2,1.6,0.6,2.2s1,1,1.8,1.4L28.1,50.8z M31.6,52.4
						v-3.5c0-0.5,0.1-0.8,0.4-1c0.2-0.2,0.6-0.1,1,0c0.4,0.2,0.7,0.4,0.9,0.8c0.2,0.4,0.3,0.7,0.3,1.2v3.6l2,0.9v-3.8
						c0-0.9-0.2-1.7-0.7-2.4c-0.4-0.7-1-1.2-1.8-1.5c-0.5-0.2-0.9-0.3-1.3-0.2c-0.4,0.1-0.7,0.3-0.8,0.6v-3.4l-2-0.9v8.8L31.6,52.4z
						 M39,48.2c0.4,0.2,0.6,0.2,0.9,0.1s0.3-0.3,0.3-0.6c0-0.3-0.1-0.6-0.3-0.9c-0.2-0.3-0.5-0.5-0.9-0.7c-0.4-0.2-0.6-0.2-0.9-0.1
						c-0.2,0.1-0.3,0.3-0.3,0.6c0,0.3,0.1,0.6,0.3,0.9S38.6,48,39,48.2z M40,56v-6.6l-2-0.9v6.6L40,56z M44.6,58.1
						c0.5,0.2,1,0.3,1.4,0.3c0.4,0,0.7-0.1,0.9-0.3s0.3-0.5,0.3-0.9c0-0.5-0.1-0.9-0.4-1.3c-0.2-0.4-0.5-0.7-0.8-1
						c-0.3-0.3-0.7-0.6-1.2-0.9c-0.5-0.3-0.8-0.6-1-0.8c-0.2-0.2-0.3-0.4-0.3-0.6c0-0.2,0.1-0.3,0.2-0.3c0.1,0,0.3,0,0.5,0.1
						c0.3,0.1,0.5,0.3,0.7,0.5c0.2,0.2,0.3,0.5,0.4,0.8l1.9,0.8c-0.1-0.7-0.4-1.4-0.9-2.1s-1.2-1.1-2-1.5c-0.8-0.4-1.4-0.4-1.9-0.3
						s-0.7,0.6-0.7,1.1c0,0.5,0.1,0.9,0.3,1.2c0.2,0.4,0.5,0.7,0.8,0.9c0.3,0.3,0.7,0.5,1.2,0.9c0.5,0.3,0.8,0.6,1,0.8
						c0.2,0.2,0.3,0.4,0.3,0.6c0,0.2-0.1,0.3-0.2,0.3c-0.1,0.1-0.3,0-0.5-0.1c-0.3-0.1-0.6-0.3-0.8-0.6c-0.2-0.2-0.3-0.5-0.4-0.8
						l-1.9-0.8c0.1,0.8,0.4,1.5,1,2.1C43,57.2,43.7,57.7,44.6,58.1z M51.1,57.9l0.2-5.7l-2.2-1l0.2,5.9L51.1,57.9z M51.3,61v-2
						l-2.1-0.9v2L51.3,61z"/>
				</g>
				<g id="Group-7">
					
						<linearGradient id="Vector-15_3_" gradientUnits="userSpaceOnUse" x1="248.9153" y1="412.0489" x2="251.1735" y2="411.8263" gradientTransform="matrix(439.3448 0 0 -274.1266 -109676.9922 113497.0313)">
						<stop  offset="0" style="stop-color:#A12ADE"/>
						<stop  offset="1" style="stop-color:#8A1DC1"/>
					</linearGradient>
					<path id="Vector-15_1_" class="st11" d="M212.9,712.9l254.5-174.7c2.7-1.8,3.4-5.5,1.5-8.2c-0.6-0.8-1.3-1.5-2.2-1.9
						l-170.2-86.7l0,0L34,597c-3.3,1.9-4.3,6.1-2.4,9.4c0.5,0.9,1.3,1.7,2.2,2.3l162.9,104.5C201.6,716.3,208,716.2,212.9,712.9z"/>
					<path id="Path_3_" class="st12" d="M379.4,521c0.5,0.5,0.6,1.6,0.3,3.2l-0.1,0.5c0,0.1,0,0.2-0.1,0.2l-0.1,0.5
						c0,0.2-0.1,0.4-0.1,0.5l-0.2,0.6l0,0l-0.2,0.6c0,0.1-0.1,0.2-0.1,0.3l-0.2,0.6l0,0l-0.2,0.7l0,0l-0.2,0.7l0,0l-0.3,0.7l0,0
						l-0.3,0.8l0,0l-0.3,0.8l0,0l-0.3,0.8l0,0l-0.5,1.3l0,0l-0.6,1.3l0,0l-0.4,0.9l0,0l-0.6,1.4l0,0l-0.5,1l0,0l-0.5,1l0,0l50.1,6.5
						l11.4,14.1l-153,105.1l-116.7-18.9l-4.4-15.3h117.7l83.9-25.1l21.8-42.5l-54.5-15.3l38.1-27.2c0.7-0.2,1.5-0.3,2.1-0.5l0.8-0.2
						C375.5,519.5,378.2,519.8,379.4,521z"/>
					<g id="Group-6" transform="translate(201.400000, 170.185375)">
						<g id="Group-26" transform="translate(0.670919, 0.674163)">
							
								<linearGradient id="Vector-10_3_" gradientUnits="userSpaceOnUse" x1="51.1411" y1="241.5903" x2="51.3674" y2="241.8081" gradientTransform="matrix(-119.5334 0 0 -174.8771 6150.7666 42356.5859)">
								<stop  offset="0" style="stop-color:#621688"/>
								<stop  offset="1" style="stop-color:#9A26D6"/>
							</linearGradient>
							<path id="Vector-10" class="st13" d="M-35.6,65.1v107.7c0,2.2,1.8,3.9,3.9,3.9c0.6,0,1.2-0.1,1.7-0.4l109.5-53.7
								c2.7-1.3,4.4-4.1,4.4-7V4.7c0-1.6-1.3-2.9-2.9-2.9c-0.5,0-0.9,0.1-1.3,0.3L-30.2,56.3C-33.5,57.9-35.6,61.4-35.6,65.1z"/>
							
								<linearGradient id="Combined-Shape_2_" gradientUnits="userSpaceOnUse" x1="45.858" y1="242.1572" x2="46.3906" y2="241.5749" gradientTransform="matrix(113.2921 0 0 -168.44 -5215.0088 40810.1367)">
								<stop  offset="0" style="stop-color:#A12ADE"/>
								<stop  offset="1" style="stop-color:#9A26D6"/>
							</linearGradient>
							<path id="Combined-Shape" class="st14" d="M77.7,3.1l0,108c0,3-1.7,5.7-4.4,7l0,0l-108.9,53.4V65.1c0-3.6,2-7,5.2-8.7
								l0.3-0.1L77.7,3.1z"/>
						</g>
					</g>
					<line id="Path_4_" class="st15" x1="-35.6" y1="605.1" x2="356.2" y2="377.6"/>
					<path id="Path_5_" class="st15" d="M724,560L355.7,377.6l0.1-274"/>
					<g id="Group-5" transform="translate(293.149822, 0.415423)">
						<g id="Group-49" transform="translate(0.000000, 142.542750)">
							<g id="Group-48" transform="translate(0.000000, 102.496417)">
								
									<linearGradient id="Rectangle-10_1_" gradientUnits="userSpaceOnUse" x1="-42.9049" y1="166.7594" x2="-43.7432" y2="167.2296" gradientTransform="matrix(366.3823 0 0 -202.9015 15939.7422 33964.9648)">
									<stop  offset="0" style="stop-color:#621688"/>
									<stop  offset="1" style="stop-color:#9A26D6"/>
								</linearGradient>
								<path id="Rectangle-10" class="st16" d="M-22.9,89.8L97.7,9.6c0.9-0.6,2-1.1,3.1-1.4c3.9-1.1,6.8-1.2,8.8-0.2l226.1,103.1
									c1.6,0.7,2.8,2,3.4,3.6c2.5,6.5,2.4,10.5-0.1,12.2l-118,78.8c-1.9,1.3-4,2.2-6.2,2.8c-7.8,2.2-13.7,2.3-17.6,0.4l-216.5-103
									c-1.8-0.8-3.2-2.2-4-4C-26.3,96-26.2,91.9-22.9,89.8z"/>
								
									<linearGradient id="Rectangle-9_1_" gradientUnits="userSpaceOnUse" x1="-44.3582" y1="166.9843" x2="-43.1701" y2="166.8612" gradientTransform="matrix(368.1149 0 0 -204.0583 16012.5488 34151.0313)">
									<stop  offset="0" style="stop-color:#A12ADE"/>
									<stop  offset="1" style="stop-color:#8A1DC1"/>
								</linearGradient>
								<path id="Rectangle-9" class="st17" d="M109.6,2.6l228,108.5c3.2,1.5,4.6,5.4,3.1,8.6c-0.5,1.1-1.3,2-2.3,2.6l-120,79.7
									c-6.3,4.2-14.4,4.8-21.2,1.5L-21.9,99.3c-4.3-2-6.1-7.2-4.1-11.5c0.7-1.4,1.7-2.6,3-3.5L99,3.4C102.2,1.3,106.2,1,109.6,2.6
									z"/>
								<path id="Path-48" class="st12" d="M62.3,94.1L81.9,92c7.3-2.9,11.3-5.8,12-8.7c1.1-4.4-8.7-6.5-17.4-4.4
									C70.6,80.3,65.9,85.4,62.3,94.1z"/>
							</g>
							<g id="Group-44" transform="translate(92.795933, 178.027998)">
								<g id="Group-43">
									<path id="Vector-12" class="st18" d="M-15.9,1.4c7.8,0.8,9.9,4,9.4,6.4c-0.5,2.4-9.9,8.5-16.6,10.1
										c-4.7,1.1-15.2,0.2-11.3-6.9C-32.8,8.1-23.7,0.6-15.9,1.4z"/>
									<path id="Vector-11" class="st0" d="M-17,0.1c7.5,0.8,9.5,3.9,9,6.2s-9.5,8.2-16,9.8c-4.5,1.1-14.6,0.2-10.8-6.7
										C-33.3,6.5-24.5-0.7-17,0.1z"/>
								</g>
								<path id="Vector-13" class="st18" d="M-21,3.8l2.7,1.4l3.3-2.8L-21,3.8z"/>
							</g>
							<g id="Group-46" transform="translate(121.929549, 0.000000)">
								<path id="Combined-Shape_1_" class="st19" d="M-28.3,0.7c0.5,0,0.9,0.1,1.3,0.3l177.3,79.7c3.9,1.7,6.4,5.6,6.4,9.8V217
									c0,1.6-0.7,3.1-1.9,4.1l0,0.1l-3.1,2.6l0.1-1.4c-0.2,0-0.3,0-0.5,0c-0.8,0-1.5-0.2-2.2-0.5c-73-32.6-133.3-59.5-180.6-80.7
									l0-135.3l-3.2-1.6l4.1-2.7l0,0C-30,1-29.2,0.7-28.3,0.7z"/>
								<g id="Group-47" transform="translate(49.102874, 173.498199)">
									<path id="Vector-10_1_" class="st19" d="M-11.8,21.8l-23.8,11.4l0,0v4.1l49.1,22.3L37,44c2.8-1.8,4-5.2,3.1-8.4l-3.5-11.9
										l0,0L-13.8,1.8l5.1,11.5C-7.2,16.5-8.6,20.3-11.8,21.8z"/>
									<path id="Vector-9" class="st20" d="M-15,20.2l-20.6,12.5l0,0L13,55l20.8-13.6c2.5-1.6,3.5-4.7,2.6-7.6l-4.7-13.4l0,0
										L-17.9,0l5.4,12.1C-11.2,15-12.3,18.5-15,20.2z"/>
								</g>
								<path id="Vector-4_1_" class="st18" d="M152.6,94.1v126.5c0,3-2.4,5.4-5.4,5.4c-0.8,0-1.5-0.2-2.2-0.5l-174.3-78.7
									c-3.9-1.7-6.3-5.6-6.3-9.8V6.7c0-1.8,1.4-3.2,3.2-3.2c0.5,0,0.9,0.1,1.3,0.3l177.3,80.5C150.1,86,152.6,89.8,152.6,94.1z"/>
								<path id="Vector-5" class="st21" d="M148.5,97.1v118.4c0,2.4-1.9,4.3-4.3,4.3c-0.6,0-1.2-0.1-1.8-0.4l-168.9-75.7
									c-3.1-1.4-5.1-4.5-5.1-7.9V13.9c0-1.8,1.4-3.2,3.2-3.2c0.5,0,0.9,0.1,1.3,0.3l169.1,76.3C146,89,148.5,92.8,148.5,97.1z"/>
								<g id="Mask-Group" transform="translate(4.091894, 8.912670)">
									<path id="Vector-10_2_" class="st22" d="M144.4,88.2v118.4c0,2.4-1.9,4.3-4.3,4.3c-0.6,0-1.2-0.1-1.8-0.4l-168.9-75.7
										c-3.1-1.4-5.1-4.5-5.1-7.9V5c0-1.8,1.4-3.2,3.2-3.2c0.5,0,0.9,0.1,1.3,0.3l169.1,76.3C141.9,80.1,144.4,83.9,144.4,88.2z"
										/>
									<path id="Path_6_" class="st23" d="M-32.4,1.8c0.5,0,0.9,0.1,1.3,0.3L71.8,48.4v132.2l-102.3-45.9
										c-3.1-1.4-5.1-4.5-5.1-7.9V5C-35.6,3.2-34.2,1.8-32.4,1.8z"/>
									<g id="Group-52_1_" transform="translate(25.189652, 69.440613)">
										<path id="Path_7_" class="st5" d="M-17.2,60.9L1.9,56l0.9,2.8l0,0l0.8,2.5l0,0l0.7,2.3l0,0l0.9,3l0,0l0.5,1.5l0,0L6,69.3
											l0.3,1.2l0.6,2l0,0l0.4,1.3l0,0l0.3,1.3l0,0l0.3,1.3l0,0l0.3,1.2c0,0.2,0.1,0.4,0.1,0.6l0.3,1.1c0,0.2,0.1,0.4,0.1,0.5
											c0.4,1.7,0.7,4,0.9,6.4l0.1,1.1c0,0.2,0,0.4,0,0.6l0.1,1.2c0,0.2,0,0.4,0,0.6l0.1,1.2l0,0l0.1,1.8l0,0l0,1.2
											c0,0.2,0,0.4,0,0.6l-17.4-7.8l-0.4-0.9l0,0l-0.6-1.4l0,0l-0.4-1l0,0l-0.2-0.5l0,0l-0.4-0.9l0,0l-0.3-0.6l0,0l-0.3-0.5l0,0
											l-0.2-0.4l0,0l-0.1-0.3l0,0l-0.1-0.2l0,0l-0.1-0.2l0,0l-0.1-0.1c-0.1-0.2-0.2-0.2-0.3-0.2l0,0c-0.1,0.1-0.3,0.3-0.7,0.5
											l-0.3,0.1l0,0l-0.3,0.1l0,0l-0.4,0.1l0,0L-13,81l0,0l-0.7,0.2l0,0l-0.7,0.2l0,0l-1.1,0.3l0,0l-0.8,0.2l0,0l-0.9,0.3
											c-0.1,0-0.3,0.1-0.4,0.1l-17.6-7.9c1.8-1.8,3.2-3.1,4.5-4l0.5-0.4c0.1-0.1,0.2-0.1,0.3-0.2l0.5-0.3
											c0.1-0.1,0.2-0.1,0.2-0.2l0.5-0.3c0.1,0,0.2-0.1,0.2-0.1l0.5-0.3l0,0l0.5-0.2l0,0l0.4-0.2l0,0l0.7-0.3l0,0l1.6-0.8
											c0.7-0.3,1.3-0.6,2-1c2.5-1.4,4-3.1,4.8-4.3l0.2-0.3C-17.5,61.4-17.4,61.2-17.2,60.9L-17.2,60.9z"/>
										<path id="Vector-38_1_" class="st7" d="M7.8,15.8c0-1-3.9,0.5-5.4-2c-1.2-2,0.8-5.7,2-7.4c1.6,1.3,4.9,4.1,4.9,4.9
											c1.8,0.8,5.4,2.8,5.4,4.4c0,2-1.5,16.7-2.9,18.1c-1.2,1.2-4.4-7-5.9-11.3C6.8,20.5,7.8,16.5,7.8,15.8z"/>
										<path id="Vector-37_1_" class="st7" d="M-33.4,5.9c1-0.5,4.2-1.6,9.3-2C-19,3.6-9.2,5.8-5,6.9l-1,3.4
											c-4.7,0-14.6-0.1-16.2-0.5c1.6,1.5,5.1,4.9,5.9,6.9s-4.3,2.5-6.9,2.5C-26.4,17.1-33,11.4-33.4,5.9z"/>
										<path id="Vector-34_1_" class="st5" d="M-3.5,0.1c10.3-1,8.8,9.8,8.3,11.8c-0.4,1.6-1.5,5.2-2,6.9l-3.9-4.9l-5.9-5.4
											l-3.4,2.9C-11.5,7.9-11.8,0.8-3.5,0.1z"/>
										<path id="Vector-35_1_" class="st7" d="M3.4,23.1c-0.3,2.5-1.6,7-7.8,6.4c-4.9-0.5-3.3-5.6-1-8.8l7.8-4.9L3.4,23.1z"/>
										<path id="Path-59" class="st3" d="M-25.9,18.1c1.3,1.9,2.8,3.8,4.8,5.7c2.9,2.9,3.8,3.8,3.8,6.6c0,1.9,0,6,0,12.4
											c1.3,3.2,1.6,5.4,1,6.7s-1.6,5.4-2.9,12.3c5.1,2.5,9.2,3.5,12.4,2.8c3.2-0.6,7-1.6,11.4-2.8c1.3-5.1,2.5-9.2,3.8-12.3
											c1.9-4.8,3.8-9.5,3.8-12.4c0-2.8,2.9-4.8,2.9-7.6c0-1.9,0-3.5,0-4.8c-2.5,0-4.4-0.3-5.7-1S7,22.2,6.4,20.9l-2.9,1
											c-1.3,5.7-3.8,8.2-7.6,7.6s-4.1-3.5-1-8.6L-6.9,19l-12.4-6.7c-1.9,2.5-3.2,4.1-3.8,4.8S-24.6,18.1-25.9,18.1z"/>
										<path id="Vector-33_1_" class="st4" d="M-10.9,12.3c0.5,0.3,1.4,1.3,1,2.5c-0.4,1.2,1.8,5.1,2.9,6.9H-4l5.4-4.4
											c1.1-0.3,3.2-1.5,2.5-3.4c-0.8-2-2.6-0.2-3.4,1C0.1,13-0.9,9.2-2,8.4c-1.5-1-6.9-1.5-7.8-1c-0.8,0.4-1,1.5-1,2V12.3z"/>
									</g>
								</g>
							</g>
						</g>
						<path id="Vector-4_2_" class="st9" d="M284.8,292.1v24.4c0,3.3-2.6,5.9-5.9,5.9c-0.8,0-1.6-0.2-2.3-0.5l-9.9-4.3l0,0
							l-10.3,5.9v-10.7l-20.3-9c-5-2.2-8.1-7.1-8.1-12.5v-25.9c0-2.7,2.2-4.9,4.9-4.9c0.7,0,1.4,0.1,2,0.4l41.9,18.7
							C281.6,281.8,284.8,286.7,284.8,292.1z"/>
						<g id="Group-3" transform="translate(135.115033, 0.656311)">
							<path id="Vector-31" class="st24" d="M129.4,242.8c0,2.1-1.7,3.7-3.7,3.7c-0.5,0-1.1-0.1-1.5-0.3l-50.2-22.7
								c-3.3-1.5-5.3-4.7-5.3-8.3v-0.8c0-1.8,1.4-3.2,3.2-3.2c0.5,0,0.9,0.1,1.3,0.3l51,23.2C127.3,236.1,129.4,239.3,129.4,242.8z"
								/>
							<path id="Vector-31_1_" class="st24" d="M129.4,259.7c0,2.1-1.7,3.7-3.7,3.7c-0.5,0-1.1-0.1-1.5-0.3l-50.2-22.7
								c-3.3-1.5-5.3-4.7-5.3-8.3v-0.8c0-1.8,1.4-3.2,3.2-3.2c0.5,0,0.9,0.1,1.3,0.3l51,23.2C127.3,252.9,129.4,256.1,129.4,259.7z"
								/>
							<path id="Vector-32" class="st22" d="M14.9,191.7c0,1.7-1.4,3.1-3.1,3.1c-0.4,0-0.9-0.1-1.3-0.3l-41.6-18.7
								c-2.7-1.2-4.4-3.9-4.4-6.8v-1.3c0-1.3,1-2.3,2.3-2.3c0.3,0,0.6,0.1,0.9,0.2L10.5,185C13.2,186.2,14.9,188.8,14.9,191.7z"/>
							<path id="Vector-33_2_" class="st22" d="M-5.1,196.3L-5.1,196.3c0,1.8-1.4,3.2-3.2,3.2c-0.5,0-0.9-0.1-1.3-0.3l-21.5-9.7
								c-2.7-1.2-4.4-3.9-4.4-6.9V181c0-1.3,1-2.3,2.3-2.3c0.3,0,0.6,0.1,0.9,0.2l22.8,10.4C-6.8,190.6-5.1,193.3-5.1,196.3z"/>
							<g id="Group-54" transform="translate(141.592385, 0.364393)">
								<g id="Group-27" transform="translate(13.514011, 0.289638)">
								</g>
								<path id="Shape" class="st25" d="M-8.6,293.2c1.6,0.7,2.9,2.6,2.9,4.4s-1.3,2.6-2.9,2c-1.6-0.7-2.9-2.6-2.9-4.4
									C-11.6,293.4-10.3,292.6-8.6,293.2z M-20.4,287.3c1.6,0.7,2.9,2.6,2.9,4.4c0,1.7-1.3,2.6-2.9,2c-1.6-0.7-2.9-2.6-2.9-4.4
									C-23.3,287.6-22,286.7-20.4,287.3z M-32.2,282.4c1.6,0.7,2.9,2.6,2.9,4.4c0,1.7-1.3,2.6-2.9,2c-1.6-0.7-2.9-2.6-2.9-4.4
									C-35.1,282.6-33.8,281.8-32.2,282.4z"/>
							</g>
							<g id="Group-56" transform="translate(108.335919, 299.028906)">
								<g id="Group-55">
									<path id="Vector-4_3_" class="st26" d="M0.8,23.9V36c0,2.7-2.2,4.9-4.9,4.9c-0.6,0-1.3-0.1-1.8-0.4l-7.6-3.1l0,0l-5.4,6.7
										l-5-11.2l-5.1-2.5c-4-2-6.5-6.1-6.5-10.5V6.1c0-2.2,1.8-3.9,3.9-3.9c0.6,0,1.1,0.1,1.6,0.3l23.9,10.7
										C-2,15.1,0.8,19.3,0.8,23.9z"/>
								</g>
								<path id="Vector" class="st27" d="M-18.7,18.1c-0.7-1.5-1.9-2.9-3.3-3.6c-2.1-1-3.8,0.2-3.8,2.3c0,3.6,2.4,7.7,7.2,12.5
									c4.8-0.2,7.2-2.1,7.2-5.7c0-2.1-1.7-4.9-3.8-5.9C-16.7,17.1-18,17.2-18.7,18.1z"/>
							</g>
							<g id="Group-58" transform="translate(77.717458, 261.650805)">
								<path id="Union" class="st28" d="M-35.3,10.9c0-8.5,6.3-12.6,14.1-9.1S-7.1,15-7.1,23.5c0,3.8-1.3,6.8-3.4,8.5
									c0.6,1.9,1.5,4.2,3,5.9c0.9,1.1,1.5,1.7,1.8,2c-1.8-0.5-5.5-2.4-8.5-6.1c-2,0.4-4.4,0-6.9-1.1C-29,29.2-35.3,19.5-35.3,10.9
									z"/>
								<path id="Vector_1_" class="st0" d="M-21.1,17.4c-1.8-0.8-3.3-3.1-3.3-5s1.5-2.9,3.3-2.1c1.8,0.8,3.3,3.1,3.3,5
									S-19.3,18.2-21.1,17.4z M-26.7,21c0.3-1.8,1.8-5.1,5.4-3.5s5.4,6.3,5.8,8.5L-26.7,21z"/>
								<path id="Vector_2_" class="st29" d="M-21.1,17.4c-1.8-0.8-3.3-3.1-3.3-5s1.5-2.9,3.3-2.1c1.8,0.8,3.3,3.1,3.3,5
									S-19.3,18.2-21.1,17.4z"/>
								<path id="Vector_3_" class="st29" d="M-26.7,21c0.3-1.8,1.8-5.1,5.4-3.5s5.4,6.3,5.8,8.5L-26.7,21z"/>
							</g>
						</g>
					</g>
					<g id="Group-2" transform="translate(175.793600, 263.333091)">
						<path id="Vector-27" class="st4" d="M-3.8,338.4l-7.8-13.2l-12.3,4.9l12.3,14.2L-3.8,338.4z"/>
						
							<linearGradient id="Vector-20_1_" gradientUnits="userSpaceOnUse" x1="71.8833" y1="148.8186" x2="71.9999" y2="149.7063" gradientTransform="matrix(93.1739 0 0 -165.7515 -6672.4961 25010.0293)">
							<stop  offset="0" style="stop-color:#323232"/>
							<stop  offset="1" style="stop-color:#2B2A2A"/>
						</linearGradient>
						<path id="Vector-20" class="st30" d="M30.6,211.4c3.4,8.8,3.9,8.3,3.9,13.2c0,4.9-2,40.2-2,44.1c0,3.1,0,11.1,0,14.7
							c-2.9,1.8-9.9,6.6-14.2,11.3c-5.4,5.9-9.3,15.2-15.7,20.1c-5.1,3.9-14.9,8.8-19.1,10.8v1.5c1.8,0.5,5.7,2.4,6.9,5.9
							c1.2,3.5,1.1,8,1,9.8c1.3-0.5,4.1-1.7,4.9-2.5c1-1,2-1.5,2.9-2c0.8-0.4,36-19.1,53.5-28.4c2.3-0.8,7.3-2.9,8.8-4.9
							c2-2.5,3.9-15.7,5.9-21.6s9.3-41.2,9.3-58.8c0-14.1-10.1-33.2-15.7-43.2L29.6,177C28.8,185.5,27.8,204.3,30.6,211.4z"/>
						<path id="Vector-18" class="st4" d="M34.5,29.4c-2.7-5.5-9.6-19.6-12.8-26c-1.6,2.3-5.1,8.4-5.9,14.7c-1,7.8-3.9,7.8-3.9,17.2
							c0,7.5,1.3,11.6,2,12.8l3.9,6.9l9.8-1l5.9-6.4C35,43.8,37.2,34.9,34.5,29.4z"/>
						<path id="Vector-30" class="st4" d="M150.7,268.2h11.8l7.8-9.3l-1-10.8l-16.7,6.4L150.7,268.2z"/>
						<path id="Vector-29" class="st18" d="M154.1,287.9c8.8,2,40.2-24,43.2-31.9c2.9-7.8-0.5-9.8-2-9.8c-1.2,0-17.8,11.1-26,16.7
							l-22.1,15.2C146.6,280.7,147.1,286.3,154.1,287.9z"/>
						<path id="Vector-28" class="st3" d="M147,272.2c-0.7,7.8,1.3,16.6,14,11.3c5.9-2.5,15.4-9.8,18.9-12.7
							c3.4-2.9,19.6-14.7,18.1-22.6c-1.5-7.8-8.6-6.4-12.5-4.9c-3.9,1.5-5.7,5.4-10.8,7.4c-3.9,1.5-5.4,1.4-5.4,5.4
							c0,1-2.2,4.4-7.1,7.4c-3.9,2.4-11.3,0.5-11.8-1C149.4,263.4,147.5,266.7,147,272.2z"/>
						<path id="Vector-21" class="st5" d="M47.2,214.3c3.4,6.4,8.8,13.2,26,16.2s60.3-30.4,69.1-34.8c7.1-3.5,8.5-4.4,8.3-4.4
							c-0.3,4.1-0.7,13.7,0.5,19.6c1.5,7.4,4.4,23.5,3.4,29.9c-1,6.4-3.4,13.7-3.4,14.2c0,0.5,4.4,4.4,11.3,2.5
							c6.9-2,9.3-9.3,9.3-10.3s0,1,0-2c0-2.9,4.4-27,4.9-33.8s0.5-22.1,1.5-29.4c1-7.4,2.5-14.2-6.4-21.6
							c-8.8-7.4-24.5-0.5-35.8,3.9c-9,3.5-29.9,12.3-39.2,16.2l-52,4.9C44.4,192.9,44.5,209.2,47.2,214.3z"/>
						<path id="Vector-23" class="st7" d="M81.1,75c2,0.5,6.7,1.2,9.8,0s4.9-12.9,5.4-18.6V39.7l-23.5,8.8l-7.8,13.2l-7.4,10.8
							l19.6,14.2L81.1,75z"/>
						<path id="Vector-22" class="st5" d="M51.6,49.5c-1.5-5.4-2-12.8,3.4-19.6c5.4-6.9,10.8-9.3,13.2-9.8c2-0.4,5.1-0.8,6.4-1
							c-0.5-1.8-0.2-5.5,4.9-5.9s5.7,3.4,5.4,5.4c3.4-0.7,10.8-0.7,12.8,4.4c2,5.1-0.2,8.3-1.5,9.3c2.3,0.8,6.5,3.5,4.9,7.8
							s-8.5,7-11.8,7.8l-10.3,1.5l-1,5.9c-1.6-0.7-5-1.3-5.4,1.5c-0.5,3.4,1.5,6.9,5.4,7.4c-0.8,3.4-4.2,10-11.3,8.8
							c-7.1-1.2-10.1-5.4-10.8-7.4C55.1,62.1,52.8,53.8,51.6,49.5z"/>
						<path id="Path-50" class="st31" d="M70.3,20.8c-0.7-3.5,0.3-5.9,3.1-7.3"/>
						<path id="Vector-17" class="st32" d="M41.3,37.8c-5.1-3.1-15.8-11-18.1-17.7c-2.9-8.3-4.9-11.3-2.5-15.7S23.7,0,26.1,0
							c2.5,0,6.4,3.4,7.4,5.4c1,2,13.7,25.5,16.2,26.5c2.5,1,6.4-1,8.8,0.5c2.5,1.5,7.8,3.9,8.8,4.4c1,0.5,0.5,2.9-3.4,1.5
							s-6.4-2-6.9-2s2.9,3.9,4.9,4.4c1.6,0.4,5.6,1.5,7.4,2l2.5,7.4l-7.8,4.9l-11.3-2L49.7,50L41.3,37.8z"/>
						<path id="Vector-16" class="st4" d="M55.6,56.1c-1.5-1-6.9-6.4-6.9-7.4c0-1,1.5-1,2,0c0.5,1,2.9,3.4,4.4,3.9
							c1.5,0.5,6.4,1.5,6.4,0s-4.9-1-7.4-3.4c-2.5-2.5-4.9-5.1-4.9-6s2.5,0,3.4,1.1c0.7,0.8,2.5,2.9,4.9,3.4c2.5,0.5,6.5,0.9,5.9,0
							c-0.5-0.6-5.9-2.1-6.9-3.1c-0.5-0.5-5.4-4.7-4.9-6.2c0.4-1.2,1.8-0.5,2.5,0c1.1,1.3,4.3,3.9,5.9,4.3c2,0.5,7.8,3.1,7.8,1.6
							c0-1.5-1-2-2.9-2.5c-2-0.5-3.4-0.6-3.4-2.6s2.9-0.7,5.9,0c3.9,1,7.3,5.1,10.3,7.5c6.4,0.7,23.1,1.2,29.4,0.8
							c7.8-0.5,23.5,1.5,25.5,3.4c2,2,1,16.2-4.4,28c-4.3,9.4-5.7,12.4-6.4,12.4l-20.1-14.2c0.8-1.6,3.6-4.8,5.4-6.5
							c2.5-2.5,5.6-3.3,5.9-3.4c-2.9-0.2-9.6-0.6-16.7-2.9c-7.1-2.4-19.1-6.7-22.6-8.2C68.1,56.4,56.7,56.8,55.6,56.1z"/>
						<path id="Vector-19" class="st0" d="M22.2,49.5c3.9,0,9.8-3.9,12.3-5.9c0.7,2.1,2.2,6.4,2.9,6.4c1,0,7.8,6.9,9.3,9.3
							s4.9,5.9,5.9,6.9c0.8,0.8,5.6,2.3,7.8,2.9c5.4,3.4,16.5,10.8,17.7,12.8c1.5,2.5,2.9,2.5,4.9,2.5s6.4-0.5,8.3,0
							c2.1-2.6,7.6-8,12.3-8.8c3.4,3.6,12.5,10.8,21.1,10.8c0.5,0.8,1.7,2.7,1.5,3.4c-1.5,5.9-8.8,18.9-13.7,28
							c-3.4,6.4-5.4,7.8-6.4,11.8c-1,3.9-3.9,17.7-5.9,22.6c-2,4.9-1.5,6.9-2,8.8c-0.5,2-1.5,9.8,0,13.2c1.5,3.4,3.9,5.4,2,7.4
							c-2,2-12.3,12.8-28.4,13.2s-30.4-10.3-37.3-13.2s-9.8-3.4-9.8-5.4c0-2,1-4.9,3.4-3.9c-0.7-1.1-1.6-3.8,0-5.4
							c0.8-4.4,2.6-15.3,3.4-23.5c1-10.3,1.5-17.2-2-35.3S16.3,76.5,14.4,65.2c-1.6-9-2-17.5-2-20.6C14,46.3,18.3,49.5,22.2,49.5z"
							/>
						<path id="Path-51" class="st33" d="M51,66.9C38.7,77.1,32.5,87.6,32.5,98.5"/>
						<path id="Vector-26" class="st3" d="M-21.9,328.6c3.6,0.7,11,3.4,11.8,9.3c-0.3,1.3-0.8,4.3,0,5.9c1,2-2,19.1,0.5,24.5
							s7.8,5.9,9.3,8.8c1.5,2.9-1,7.4-7.8,5.4c-5.5-1.6-17.7-19.3-23-28l-2-19.6l1.5-2.9L-21.9,328.6z"/>
						<path id="Vector-25" class="st19" d="M-26.3,331.5c3.9,1.5,6.9,5.4,6.9,9.3s-2,19.1,2.9,26.5s11.3,13.2,13.2,13.2
							s2.5,2.9-3.4,2.5c-4.7-0.4-14.7-10.3-19.1-15.2l-8.3-28l0.5-5.9C-32.5,332.6-29.5,330.3-26.3,331.5z"/>
						<path id="Vector-24" class="st18" d="M-35.2,356.5c0.5-12.3-1-19.1,1-21.6c2-2.5,3.9-2.9,7.8-1s4.9,9.3,4.9,14.7
							s0.4,16,2,19.1c1.5,2.9,5.9,9.8,14.2,14.7c3.6,2.1-20.4,5.5-27.5-3.9C-37.1,372.7-35.2,358.5-35.2,356.5z"/>
					</g>
					<path id="Path_8_" class="st34" d="M293.9,370.6l-1.4,2.6l0,0l-3.4,6.3l0,0l-0.8,1.5c-0.2,0.3-0.3,0.6-0.4,0.8l-0.4,0.8
						c-0.1,0.1-0.1,0.2-0.2,0.4l-0.4,0.7l0,0l-0.4,0.6l0,0l-0.4,0.6l0,0l-0.7,1.1l0,0l-0.9,1.5l0,0l-0.4,0.7c0,0.1-0.1,0.1-0.1,0.2
						l-0.3,0.4l0,0l-0.2,0.4c0,0.1-0.1,0.1-0.1,0.2l-0.2,0.4c-0.4,0.8-0.8,1.7-1,2.7l-0.2,0.7l0,0l-0.7,3.1l0,0l-1.2,5l0,0l-0.6,2.5
						l0,0l-0.5,1.9l0,0l-0.5,1.8l0,0l-0.2,0.9l0,0l-0.4,1.3l0,0l-0.2,0.8l0,0l-0.2,0.8l0,0l-0.2,0.8l0,0l-0.2,0.7l0,0l-0.2,0.7
						c0,0.1-0.1,0.2-0.1,0.3l-0.2,0.6c-0.1,0.2-0.1,0.4-0.2,0.6l-0.1,0.3c-0.4,1-0.7,1.8-0.9,2.6l-0.2,0.6c-0.1,0.4-0.2,0.7-0.2,1
						l-0.1,0.5l0,0l-0.1,0.4l0,0l-0.1,0.4l0,0l-0.1,0.6l0,0l-0.2,1.5l0,0l0,0.3c0,0.1,0,0.1,0,0.2l0,0.3c0,0,0,0.1,0,0.1l-0.1,0.3
						l0,0l0,0.1l0,0l-0.1,0.3l0,0l-0.1,0.4l0,0l-0.1,0.4l0,0l-0.1,0.5l0,0l-0.1,0.5l0,0l-0.1,0.6l0,0l-0.1,0.6l0,0l-0.1,0.6l0,0
						l-0.1,0.7c0,0.1,0,0.2,0,0.3l0,0.7c-0.1,2.7,0,5.7,0.7,7.5c0.2,0.4,0.3,0.7,0.5,1.1l0.2,0.4l0,0l0.2,0.4l0,0l0.4,0.7l0,0
						l0.3,0.5l0,0l0.3,0.5c0,0.1,0.1,0.1,0.1,0.2l0.2,0.3c0.6,1.1,0.7,2.1-0.1,3.1l-0.2,0.2l-0.7,0.7l0,0l-0.7,0.6l0,0l-0.6,0.6l0,0
						l-0.3,0.3l0,0l-0.6,0.5l0,0l-0.6,0.5l0,0l-0.4,0.4l0,0l-0.5,0.4l0,0l-0.5,0.4c-0.1,0.1-0.2,0.1-0.2,0.2l-0.5,0.4
						c-0.1,0.1-0.2,0.1-0.3,0.2l-0.5,0.4c-0.1,0.1-0.2,0.1-0.3,0.2l-0.6,0.4l0,0l-0.6,0.4l0,0l-0.6,0.4l0,0l-0.6,0.4
						c-0.1,0.1-0.2,0.1-0.3,0.2l-0.7,0.4l0,0l-0.7,0.4c-0.1,0.1-0.2,0.1-0.3,0.2l-0.7,0.4c-4.4,2.3-10,4.2-16.5,4.3
						c-7.7,0.2-15-2.1-21.2-4.9l-0.9-0.4l0,0l-0.9-0.4l0,0l-0.9-0.4l0,0l-0.9-0.4l0,0l-0.8-0.4l0,0l-0.8-0.4l0,0l-0.8-0.4l0,0
						l-0.8-0.4l0,0l-1.9-1l0,0l-3.1-1.7l0,0l-0.9-0.5l0,0l-0.9-0.5l0,0l-0.6-0.3l0,0l-0.5-0.3l0,0l-0.5-0.3l0,0l-0.5-0.2l0,0
						l-0.6-0.3l0,0l-1.1-0.4l0,0l-1.3-0.5l0,0l-3-1.2l0,0l-0.7-0.3l0,0l-0.4-0.2l0,0l-0.4-0.2l0,0l-0.4-0.2l0,0l-0.3-0.2l0,0
						l-0.3-0.2l0,0l-0.3-0.2c-0.9-0.5-1.3-1.1-1.3-1.8c0-0.1,0-0.3,0-0.4l0-0.3l0,0l0-0.3c0-0.2,0.1-0.4,0.1-0.6l0.1-0.3
						c0.4-1.5,1.4-2.7,3.2-2.1c-0.5-0.9-1.2-2.9-0.6-4.4c26.8,12.9,45.6,12.4,56.6-1.6c11.4-14.6,14.6-31,9.5-49.4l10.4-2.9
						C284.7,375.8,289.4,373.6,293.9,370.6z"/>
					<path id="Path-49" class="st33" d="M259.5,348.8c0.7,22.5,7.3,34.9,19.6,37.1"/>
				</g>
			</g>
		</g>
		<g id="Group-32" transform="translate(182.000000, 149.000000)">
		</g>
	</g>
</g>
</svg>
