<svg id="Layer_1" data-name="Layer 1" xmlns="http://www.w3.org/2000/svg" viewBox="0 0 609.17 205.11"><defs><style>.cls-1{fill:#ae36eb;}.cls-2{fill:#8f30c6;}.cls-3{fill:#333;}</style></defs><title>Logo_smaller</title><path class="cls-1" d="M150,58.94h0l-.19-.15q-2.94-2.47-6.11-4.71L102.59,22.4v-10A12.39,12.39,0,0,0,90.2,0h0A12.38,12.38,0,0,0,77.82,12.38v10L36.75,54.07q-3.16,2.24-6.11,4.71l-.19.15h0C11.78,74.7,0,97.65,0,123.22,0,160.29,24.72,191.88,59.39,204H121c34.67-12.11,59.39-43.7,59.39-80.77C180.41,97.65,168.63,74.7,150,58.94ZM90.2,179.61A50.77,50.77,0,1,1,141,128.84,50.77,50.77,0,0,1,90.2,179.61Z"/><path class="cls-2" d="M125.1,166A50.57,50.57,0,0,1,90.83,179.3h30.63a59.56,59.56,0,0,0,59-51.16A59.56,59.56,0,0,1,125.1,166Z"/><path class="cls-2" d="M.59,133.35A50.78,50.78,0,0,1,50.7,90.67h6a50.52,50.52,0,0,1,33.45-12.6H50.7A50.77,50.77,0,0,0,0,126.3c0,.87.09,1.72.15,2.58C.25,130.38.41,131.87.59,133.35Z"/><path class="cls-3" d="M94.36,88l-3.53,6.79L87.3,88a4,4,0,0,1,3.53-5.81h0A4,4,0,0,1,94.36,88Z"/><path class="cls-3" d="M62.79,99l2.3,7.3L57.8,104a4,4,0,0,1-1.62-6.61h0A4,4,0,0,1,62.79,99Z"/><path class="cls-3" d="M50.08,124.61l6.78,3.53-6.78,3.53a4,4,0,0,1-5.82-3.53h0A4,4,0,0,1,50.08,124.61Z"/><path class="cls-3" d="M118.86,99l-2.3,7.3,7.3-2.31a4,4,0,0,0,1.61-6.61h0A4,4,0,0,0,118.86,99Z"/><path class="cls-3" d="M131.58,124.61l-6.79,3.53,6.79,3.53a4,4,0,0,0,5.81-3.53h0A4,4,0,0,0,131.58,124.61Z"/><path class="cls-3" d="M94.36,168.25l-3.53-6.79-3.53,6.79a4,4,0,0,0,3.53,5.82h0A4,4,0,0,0,94.36,168.25Z"/><path class="cls-3" d="M62.79,157.3l2.3-7.29-7.29,2.3a4,4,0,0,0-1.62,6.61h0A4,4,0,0,0,62.79,157.3Z"/><path class="cls-3" d="M50.08,131.67l6.78-3.53-6.78-3.53a4,4,0,0,0-5.82,3.53h0A4,4,0,0,0,50.08,131.67Z"/><path class="cls-3" d="M118.86,157.3l-2.3-7.29,7.3,2.3a4,4,0,0,1,1.61,6.61h0A4,4,0,0,1,118.86,157.3Z"/><path class="cls-3" d="M131.58,131.67l-6.79-3.53,6.79-3.53a4,4,0,0,1,5.81,3.53h0A4,4,0,0,1,131.58,131.67Z"/><path class="cls-3" d="M412.72,164.69c-3.4,10-16,20.19-33.58,20.19-25.87,0-39.83-21.19-39.83-41.13,0-23.57,17.12-41.35,39.83-41.35,17.14,0,30.1,10.75,33.59,20.87l1.61,4.66L434,122l-1.51-4.9c-5.33-17.34-25.36-34.89-53.31-34.89-34.61,0-60.71,26.29-60.71,61.14,0,35.23,26.1,61.8,60.71,61.8,28.21,0,48.18-17.46,53.33-34.71l1.51-5.08-19.73-5.14Z"/><path class="cls-3" d="M507.91,83.21c-14.88,0-27.89,5.13-37.45,14.44V34.78H449.59V203.54h20.87V143.91c0-24.08,14.61-40.26,36.36-40.26,18.68,0,29,11.52,29,32.45v67.44h20.88V135C556.67,103.06,538,83.21,507.91,83.21Z"/><path class="cls-3" d="M591.72,73.25a13.59,13.59,0,1,0-13.8-13.8A13.5,13.5,0,0,0,591.72,73.25Z"/><rect class="cls-3" x="581.39" y="85.81" width="20.88" height="117.72"/><circle class="cls-1" cx="591.72" cy="59.66" r="17.44"/><polygon class="cls-3" points="282.38 85.81 282.38 106.04 282.38 144.67 282.38 203.54 303.26 203.54 303.26 85.81 282.38 85.81"/><path class="cls-3" d="M260.56,85.81H238.34V75.08c0-15.83,6.39-22.89,20.72-22.89,9.63,0,17.72,3.18,26.24,10.31l6,5,6-20.24-2.55-2.16c-10.45-8.82-21.85-12.93-35.88-12.93-26.68,0-41.38,15-41.38,42.25V85.81H194V106h23.45v97.5h20.88V106h22.22Z"/></svg>