<?xml version="1.0" standalone="no"?>
<svg xmlns:xlink="http://www.w3.org/1999/xlink" id="wave" style="transform:rotate(180deg); transition: 0.3s" viewBox="0 0 1440 170" version="1.1" xmlns="http://www.w3.org/2000/svg"><defs><linearGradient id="sw-gradient-0" x1="0" x2="0" y1="1" y2="0"><stop stop-color="rgba(172, 73, 235, 1)" offset="0%"/><stop stop-color="rgba(172, 73, 235, 1)" offset="100%"/></linearGradient></defs><path style="transform:translate(0, 0px); opacity:1" fill="url(#sw-gradient-0)" d="M0,0L80,19.8C160,40,320,79,480,102C640,125,800,130,960,136C1120,142,1280,147,1440,127.5C1600,108,1760,62,1920,62.3C2080,62,2240,108,2400,119C2560,130,2720,108,2880,107.7C3040,108,3200,130,3360,133.2C3520,136,3680,119,3840,99.2C4000,79,4160,57,4320,39.7C4480,23,4640,11,4800,22.7C4960,34,5120,68,5280,68C5440,68,5600,34,5760,31.2C5920,28,6080,57,6240,76.5C6400,96,6560,108,6720,119C6880,130,7040,142,7200,121.8C7360,102,7520,51,7680,51C7840,51,8000,102,8160,104.8C8320,108,8480,62,8640,62.3C8800,62,8960,108,9120,124.7C9280,142,9440,130,9600,104.8C9760,79,9920,40,10080,25.5C10240,11,10400,23,10560,42.5C10720,62,10880,91,11040,93.5C11200,96,11360,74,11440,62.3L11520,51L11520,170L11440,170C11360,170,11200,170,11040,170C10880,170,10720,170,10560,170C10400,170,10240,170,10080,170C9920,170,9760,170,9600,170C9440,170,9280,170,9120,170C8960,170,8800,170,8640,170C8480,170,8320,170,8160,170C8000,170,7840,170,7680,170C7520,170,7360,170,7200,170C7040,170,6880,170,6720,170C6560,170,6400,170,6240,170C6080,170,5920,170,5760,170C5600,170,5440,170,5280,170C5120,170,4960,170,4800,170C4640,170,4480,170,4320,170C4160,170,4000,170,3840,170C3680,170,3520,170,3360,170C3200,170,3040,170,2880,170C2720,170,2560,170,2400,170C2240,170,2080,170,1920,170C1760,170,1600,170,1440,170C1280,170,1120,170,960,170C800,170,640,170,480,170C320,170,160,170,80,170L0,170Z"/><defs><linearGradient id="sw-gradient-1" x1="0" x2="0" y1="1" y2="0"><stop stop-color="rgba(172, 73, 235, 1)" offset="0%"/><stop stop-color="rgba(172, 73, 235, 1)" offset="100%"/></linearGradient></defs><path style="transform:translate(0, 50px); opacity:0.9" fill="url(#sw-gradient-1)" d="M0,119L80,107.7C160,96,320,74,480,59.5C640,45,800,40,960,36.8C1120,34,1280,34,1440,45.3C1600,57,1760,79,1920,85C2080,91,2240,79,2400,62.3C2560,45,2720,23,2880,36.8C3040,51,3200,102,3360,102C3520,102,3680,51,3840,42.5C4000,34,4160,68,4320,68C4480,68,4640,34,4800,31.2C4960,28,5120,57,5280,68C5440,79,5600,74,5760,76.5C5920,79,6080,91,6240,102C6400,113,6560,125,6720,121.8C6880,119,7040,102,7200,102C7360,102,7520,119,7680,107.7C7840,96,8000,57,8160,36.8C8320,17,8480,17,8640,14.2C8800,11,8960,6,9120,8.5C9280,11,9440,23,9600,36.8C9760,51,9920,68,10080,76.5C10240,85,10400,85,10560,82.2C10720,79,10880,74,11040,79.3C11200,85,11360,102,11440,110.5L11520,119L11520,170L11440,170C11360,170,11200,170,11040,170C10880,170,10720,170,10560,170C10400,170,10240,170,10080,170C9920,170,9760,170,9600,170C9440,170,9280,170,9120,170C8960,170,8800,170,8640,170C8480,170,8320,170,8160,170C8000,170,7840,170,7680,170C7520,170,7360,170,7200,170C7040,170,6880,170,6720,170C6560,170,6400,170,6240,170C6080,170,5920,170,5760,170C5600,170,5440,170,5280,170C5120,170,4960,170,4800,170C4640,170,4480,170,4320,170C4160,170,4000,170,3840,170C3680,170,3520,170,3360,170C3200,170,3040,170,2880,170C2720,170,2560,170,2400,170C2240,170,2080,170,1920,170C1760,170,1600,170,1440,170C1280,170,1120,170,960,170C800,170,640,170,480,170C320,170,160,170,80,170L0,170Z"/></svg>