<?xml version="1.0" encoding="utf-8"?>
<!-- Generator: Adobe Illustrator 24.0.1, SVG Export Plug-In . SVG Version: 6.00 Build 0)  -->
<svg version="1.1" id="Layer_1" xmlns="http://www.w3.org/2000/svg" xmlns:xlink="http://www.w3.org/1999/xlink" x="0px" y="0px"
	 viewBox="0 0 797.4 910.4" style="enable-background:new 0 0 797.4 910.4;" xml:space="preserve">
<style type="text/css">
	.st0{fill-rule:evenodd;clip-rule:evenodd;fill:url(#Path_9_);}
	.st1{opacity:0.9628;fill-rule:evenodd;clip-rule:evenodd;fill:url(#Vector-15_2_);enable-background:new    ;}
	.st2{fill-rule:evenodd;clip-rule:evenodd;fill:#3768FA;}
	.st3{fill-rule:evenodd;clip-rule:evenodd;fill:#FFA54E;}
	.st4{fill-rule:evenodd;clip-rule:evenodd;fill:#323232;}
	.st5{fill-rule:evenodd;clip-rule:evenodd;fill:#282727;}
	.st6{fill-rule:evenodd;clip-rule:evenodd;fill:#F29439;}
	.st7{fill:none;stroke:#FFFFFF;stroke-width:1.5162;stroke-linecap:round;}
	.st8{fill-rule:evenodd;clip-rule:evenodd;fill:#FFFFFF;}
	.st9{fill-rule:evenodd;clip-rule:evenodd;fill:#C0FA37;}
	.st10{fill:#688D12;}
	.st11{opacity:0.9628;fill-rule:evenodd;clip-rule:evenodd;fill:url(#Vector-15_3_);enable-background:new    ;}
	.st12{opacity:0.1551;fill-rule:evenodd;clip-rule:evenodd;fill:#333333;enable-background:new    ;}
	.st13{fill-rule:evenodd;clip-rule:evenodd;fill:url(#Vector-10_3_);}
	.st14{fill-rule:evenodd;clip-rule:evenodd;fill:url(#Combined-Shape_2_);}
	.st15{fill:none;stroke:#FFFFFF;stroke-width:0.95;stroke-dasharray:0,0;}
	.st16{fill-rule:evenodd;clip-rule:evenodd;fill:url(#Rectangle-10_1_);}
	.st17{fill-rule:evenodd;clip-rule:evenodd;fill:url(#Rectangle-9_1_);}
	.st18{fill-rule:evenodd;clip-rule:evenodd;fill:#B6C8FF;}
	.st19{fill-rule:evenodd;clip-rule:evenodd;fill:#7F9AEC;}
	.st20{fill-rule:evenodd;clip-rule:evenodd;fill:#A3B9FC;}
	.st21{fill-rule:evenodd;clip-rule:evenodd;fill:#998F8F;}
	.st22{fill-rule:evenodd;clip-rule:evenodd;fill:#AAC3FF;}
	.st23{opacity:0.8373;fill-rule:evenodd;clip-rule:evenodd;fill:#FFFFFF;enable-background:new    ;}
	.st24{opacity:0.6979;fill-rule:evenodd;clip-rule:evenodd;fill:#FFFFFF;enable-background:new    ;}
	.st25{fill-rule:evenodd;clip-rule:evenodd;fill:#86B024;}
	.st26{fill-rule:evenodd;clip-rule:evenodd;fill:#DA17F5;}
	.st27{fill-rule:evenodd;clip-rule:evenodd;fill:#F4A8FF;}
	.st28{fill-rule:evenodd;clip-rule:evenodd;fill:#F0B135;}
	.st29{fill:#FFF2D8;}
	.st30{fill-rule:evenodd;clip-rule:evenodd;fill:url(#Vector-20_1_);}
	.st31{fill:none;stroke:#323232;stroke-width:1.0379;stroke-linecap:round;}
	.st32{fill-rule:evenodd;clip-rule:evenodd;fill:#F99B40;}
	.st33{fill:none;stroke:#B6C8FF;stroke-width:1.0898;stroke-linecap:round;}
	.st34{opacity:0.8373;fill-rule:evenodd;clip-rule:evenodd;fill:#DAE3FF;enable-background:new    ;}
</style>
<g id="Page-1">
	<g id="Home4" transform="translate(-607.000000, 0.000000)">
		<g id="Group-45" transform="translate(614.000000, -113.000000)">
			
				<linearGradient id="Path_9_" gradientUnits="userSpaceOnUse" x1="517.5135" y1="107.9895" x2="518.4872" y2="108.2475" gradientTransform="matrix(807.5 0 0 780.8843 -418025.375 -83960.7344)">
				<stop  offset="0" style="stop-color:#AE36EB"/>
				<stop  offset="1" style="stop-color:#9C29D6"/>
			</linearGradient>
			<path id="Path" class="st0" d="M-6.2,889.3c265.5-155.3,531.1-310.5,796.6-465.8c0.1-103.5,0.2-207,0.2-310.5
				C525,258.2,259.4,403.4-6.2,548.6V889.3z"/>
			<g id="Group-37" transform="translate(0.000000, 195.700000)">
				
					<linearGradient id="Vector-15_2_" gradientUnits="userSpaceOnUse" x1="516.4678" y1="106.5086" x2="518.2221" y2="106.6673" gradientTransform="matrix(438.3472 0 0 263.0167 -226200.7188 -27602.334)">
					<stop  offset="0" style="stop-color:#A12ADE"/>
					<stop  offset="1" style="stop-color:#8A1DC1"/>
				</linearGradient>
				<path id="Vector-15" class="st1" d="M659.5,566.9c43.6-30.3,87.3-60.6,130.9-90.9c0-1.8,0-3.6,0-5.4c0-2.4,0-4.8,0-7.1
					c0-3,0-5.9,0-8.9c0-11.7,0-23.4,0-35.1c0.1-21.1,0.3-42.2,0.4-63.4c-0.1-5.4-0.3-10.9-0.4-16.3c-22.1-11.1-44.2-22.2-66.3-33.3
					c-87.2,51.7-174.3,103.3-261.5,155c-3.3,1.9-4.3,6.1-2.4,9.4c0.7,1.1,1.6,2,2.7,2.6l181.4,94.3C649.1,570.4,655,570,659.5,566.9
					z"/>
				<g id="Group-36" transform="translate(582.350000, 82.650000)">
					<path id="Path-80" class="st2" d="M64.9,156.9c18.2,0,29.3,2,33.4,6.1c4.1,4.1-4.5,11.1-25.8,21.2L58.8,166L64.9,156.9z"/>
					<path id="Path-69" class="st3" d="M-4.8,285.8c-6.1,5.1-9.1,8.6-9.1,10.6s0.5,8.6,1.5,19.7l3,68.2l10.6,6.1l3-4.5
						c-1-10.1,0-20.2,3-30.3c3-10.1,4-25.8,3-47l7.6-7.6l-7.6-16.7L-4.8,285.8z"/>
					<path id="Path-70" class="st3" d="M84.6,360.1c5.1,8.1,9.1,12.1,12.1,12.1c4.5,0,24.3-7.6,31.8-7.6c5.1,0,13.1-0.5,24.3-1.5
						l9.1-12.1l-3-4.5c-8.1,0-14.2-0.5-18.2-1.5c-6.1-1.5-12.1-4.5-22.7-1.5c-7.1,2-14.2,2.5-21.2,1.5L84.6,360.1z"/>
					<path id="Path-65" class="st4" d="M43.7,243.3c-3,11.1-5.6,16.7-7.6,16.7c-3,0-28.8,12.1-39.4,21.2c-7.1,6.1-8.6,8.6-4.5,7.6
						c10.1,5.1,15.7,9.1,16.7,12.1c1,3,2,6.6,3,10.6c15.1-8,25.2-12.1,30.3-12.1s13.6-2,25.8-6.1c11.1-19.2,16.7-33.9,16.7-44
						C84.6,239.3,71,237.3,43.7,243.3z"/>
					<path id="Path-68" class="st5" d="M55.8,257c2,17.2,4.5,29.3,7.6,36.4c3,7.1,9.1,30.8,18.2,71.3c10.1-2,16.7-4,19.7-6.1
						c3-2,6.1-7.1,9.1-15.2c0-31.3-1-50.5-3-57.6s-8.1-20.2-18.2-39.4L55.8,257z"/>
					<g id="Group-52" transform="translate(43.825400, 0.000000)">
						<path id="Vector-38" class="st6" d="M59,144.6c0-2.3-9,1.1-12.4-4.5c-2.7-4.5,1.9-13.1,4.5-16.9c3.8,3,11.3,9.5,11.3,11.3
							c4.1,1.9,12.4,6.5,12.4,10.1c0,4.5-3.4,38.3-6.8,41.7c-2.7,2.7-10.1-16.1-13.5-25.9C56.8,155.5,59,146.4,59,144.6z"/>
						<path id="Vector-37" class="st6" d="M-35.6,122.1c2.3-1.1,9.7-3.6,21.4-4.5s34.2,4.1,43.9,6.8l-2.3,7.9
							c-10.9,0-33.6-0.2-37.2-1.1c3.9,3.2,11.8,11.1,13.6,15.6s-9.8,5.6-15.8,5.6C-19.4,147.6-34.7,134.7-35.6,122.1z"/>
						<path id="Vector-34" class="st4" d="M33.1,108.5c23.6-2.3,20.3,22.5,19.1,27c-0.9,3.6-3.4,12-4.5,15.8l-9-11.3l-13.5-12.3
							l-7.8,6.7C14.7,126.6,14.2,110.3,33.1,108.5z"/>
						<path id="Vector-35" class="st6" d="M48.9,161.5c-0.8,5.6-3.7,16.1-18,14.6c-11.3-1.1-7.5-12.8-2.3-20.3l18-11.3L48.9,161.5z"
							/>
						<path id="Vector-33" class="st3" d="M16.2,136.7c1.1,0.8,3.2,2.9,2.3,5.6c-0.9,2.7,4.1,11.6,6.8,15.8H32L44.4,148
							c2.6-0.8,7.4-3.4,5.6-7.9s-6-0.4-7.9,2.3c-0.8-4.1-2.9-12.8-5.6-14.6c-3.4-2.3-15.8-3.4-18-2.3c-1.8,0.9-2.3,3.4-2.3,4.5
							V136.7z"/>
					</g>
					<path id="Path-60" class="st2" d="M27,149.3c9.1,7.1,14.2,11.6,15.2,13.6s2,6.1,3,12.1v27.4c3,5.1,4,8.6,3,10.6
						s-3,13.6-6.1,34.9c3,5.1,7.6,8.1,13.6,9.1c6.1,1,18.7-0.5,37.9-4.5c-2-5.1-2-10.6,0-16.7c3-9.1,21.2-33.4,21.2-40.9
						c0-5.1,1-15.2,3-30.3c-6.1,1-10.1,1-12.1,0s-4.5-3-7.6-6.1c-9.9,14.1-18,19.6-24.1,16.6s-7.6-8.1-4.5-15.2
						c-8.1-8.1-13.1-13.1-15.2-15.2c-2-2-6.6-4.5-13.6-7.6c-4,6.1-7.1,9.1-9.1,9.1S28,147.3,27,149.3z"/>
					<path id="Path-62" class="st7" d="M51.3,158.4c-2,9.1-3,15.2-3,18.2"/>
					<path id="Path-63" class="st7" d="M84.6,176.6c5.1,14.2,13.6,21.2,25.8,21.2"/>
					<path id="Path-64" class="st7" d="M60.4,249.4c11.1-4,19.2-7.6,24.3-10.6"/>
					<path id="Path-77" class="st2" d="M-4.8,387.4c1-3,1-4.5,0-4.5s-2.5-0.5-4.5-1.5l-3,4.5L-4.8,387.4z"/>
					<path id="Path-64_1_" class="st7" d="M77,237.3c4.2-1.7,7.2-3.2,9.1-4.5"/>
					<path id="Path-76" class="st8" d="M-10.9,382.8c-5.1,6.1-8.1,10.1-9.1,12.1c-1.5,3-14.2,4.7-15.2,7.6s0,6.1,10.6,6.1
						s15.2-3,21.2-3c6.1,0,7.6,0,10.6-1.5c2-1,1-8.1-3-21.2c-4,1-7.1,1.5-9.1,1.5S-8.9,383.8-10.9,382.8z"/>
					<path id="Path_1_" class="st2" d="M8.2,399.7c0.2,2.5-0.1,4-0.9,4.4l-0.6,0.3l0,0l-0.5,0.2c-0.9,0.4-1.8,0.6-2.8,0.8l-0.6,0
						c-0.1,0-0.2,0-0.3,0H1.9l0,0H1.2l0,0H0.5l0,0h-1.3l0,0h-2.5l0,0c-1.4,0-2.7,0.2-4,0.4l-0.9,0.2l0,0l-0.9,0.2l0,0l-0.9,0.2l0,0
						l-2.4,0.6l0,0l-1,0.2l0,0l-1.1,0.2l0,0l-1.1,0.2c-2.5,0.4-5.3,0.8-8.9,0.8c-6.9,0-9.7-1.3-10.6-3l3.6-0.3l0,0l3.5-0.3l0,0
						l3.3-0.3l0,0l3.2-0.3l0,0l3-0.3l0,0l2.9-0.3l0,0l2.7-0.3l0,0l1.7-0.2l0,0l1.7-0.2l0,0l2.6-0.4l0,0l1.9-0.3l0,0l1.8-0.3
						c0.3,0,0.6-0.1,0.9-0.1l1.7-0.3c0.3,0,0.5-0.1,0.8-0.1l1.6-0.3l0,0l1.5-0.3l0,0l1.4-0.3c0.2,0,0.5-0.1,0.7-0.1l1.3-0.3
						c0.2,0,0.4-0.1,0.6-0.1L8.2,399.7z"/>
					<path id="Path-78" class="st8" d="M151.3,363.1c3,3,4.5,7.1,4.5,12.1c0,7.6-1.5,13.6,0,15.2c1.5,1.5,9.1,0,13.6-1.5
						s4.5-12.1,4.5-13.6s-1.5-19.7-1.5-24.3s-1.5-6.1-3-6.1c-1,0-6.6,0.5-16.7,1.5c2,4,3,7.1,3,9.1
						C155.9,357.6,154.4,360.1,151.3,363.1z"/>
					<path id="Path-79" class="st2" d="M152.9,364.6c-2-1-3-2-3-3s1.5-2.5,4.5-4.5l3,3L152.9,364.6z"/>
					<path id="Path_2_" class="st2" d="M169.5,344.9c1.5,0,2.9,1.4,3,5.6v0.9l0,0v1l0,0l0.1,1.6l0,0l0.2,2.8l0,0l0.2,2.6l0,0l1,14.2
						l0,0l0.1,1.3l0,0v0.2l0,0v1l0,0v0.8l0,0v0.9l0,0v0.7l0,0l-0.1,0.7c0,0.1,0,0.2,0,0.4l-0.1,0.8c-0.5,3.5-1.6,7.5-4.2,8.4
						c-0.4,0.1-0.9,0.3-1.3,0.4l0.5-2.8l0,0l0.3-1.8l0,0l0.3-1.7l0,0l0.3-1.7l0,0l0.2-1.6l0,0l0.2-1.5l0,0l0.2-1.5l0,0l0.2-1.4
						c0-0.2,0.1-0.5,0.1-0.7l0.1-1.3l0,0l0.1-1.3l0,0l0.1-1.2c0-0.2,0-0.4,0-0.6l0.1-1.1c0-0.2,0-0.4,0-0.5v-1c0-0.5,0-1,0-1.4
						c0-1.9-0.1-4.1-0.4-6.6l-0.2-1.4l0,0l-0.2-1.4c0-0.2-0.1-0.5-0.1-0.7l-0.2-1.5c0-0.3-0.1-0.5-0.1-0.8l-0.3-1.6l0,0l-0.3-1.7
						c-0.1-0.3-0.1-0.6-0.2-0.9l-0.4-1.8l0,0l-0.4-1.8l0,0l-0.2-0.8l1.1-0.1l0,0L169.5,344.9L169.5,344.9z"/>
				</g>
				<g id="Group-53" transform="translate(584.250000, 2.286265)">
					<path id="Vector-4" class="st9" d="M59.1,160.3v17.8c0,3.3-2.6,5.9-5.9,5.9c-0.8,0-1.6-0.2-2.3-0.5l-9.9-4.3l0,0l0.2,10.6
						l-10.5-15.4l-58.3-26.6c-4.9-2.2-8-7.1-8-12.5V116c0-2.7,2.2-4.9,4.9-4.9c0.7,0,1.4,0.1,2,0.4l79.8,36.2
						C56,150,59.1,154.9,59.1,160.3z"/>
					<path id="Yougotthis_x21_" class="st10" d="M-22.7,136.9v-2.8l2.9-4.3l-2.3-1l-1.6,2.7l-1.6-4.1l-2.3-1l2.9,6.9v2.8
						L-22.7,136.9z M-15.6,140.1c0.6,0.3,1.2,0.4,1.7,0.4s0.9-0.3,1.2-0.7c0.3-0.4,0.4-0.9,0.4-1.6s-0.1-1.4-0.4-2
						c-0.3-0.6-0.7-1.2-1.2-1.7s-1.1-0.9-1.7-1.2c-0.6-0.3-1.2-0.4-1.7-0.4s-0.9,0.3-1.2,0.6c-0.3,0.4-0.4,0.9-0.4,1.6
						c0,0.7,0.1,1.4,0.4,2c0.3,0.6,0.7,1.2,1.2,1.7C-16.9,139.4-16.3,139.8-15.6,140.1z M-15.6,138.4c-0.4-0.2-0.7-0.4-1-0.8
						c-0.3-0.4-0.4-0.9-0.4-1.4s0.1-0.9,0.4-1s0.6-0.2,1,0s0.7,0.4,1,0.8c0.3,0.4,0.4,0.9,0.4,1.4s-0.1,0.9-0.4,1
						C-14.9,138.5-15.3,138.5-15.6,138.4z M-8.5,143.3c0.5,0.2,0.9,0.3,1.3,0.2c0.4-0.1,0.7-0.3,0.8-0.6v1.2l2,0.9v-6.6l-2-0.9v3.5
						c0,0.5-0.1,0.8-0.4,1c-0.2,0.2-0.6,0.1-1,0c-0.4-0.2-0.7-0.4-0.9-0.8c-0.2-0.4-0.3-0.8-0.3-1.2v-3.6l-2-0.9v3.8
						c0,0.9,0.2,1.7,0.7,2.4S-9.2,142.9-8.5,143.3z M3.5,151.7c0.7,0.3,1.3,0.4,1.8,0.4c0.5-0.1,0.8-0.3,1.1-0.7
						c0.3-0.4,0.4-0.9,0.4-1.5v-6.6l-2-0.9v1.2c-0.2-0.5-0.4-0.9-0.8-1.3c-0.4-0.4-0.8-0.7-1.3-0.9s-1-0.3-1.4-0.2
						c-0.4,0.1-0.8,0.3-1,0.7c-0.2,0.4-0.4,1-0.4,1.6c0,0.7,0.1,1.3,0.4,2c0.2,0.6,0.6,1.2,1,1.6s0.9,0.8,1.4,1
						c0.5,0.3,0.9,0.4,1.3,0.3c0.4-0.1,0.6-0.3,0.8-0.6v1.2c0,0.5-0.1,0.9-0.4,1c-0.3,0.1-0.6,0.1-1-0.1s-0.7-0.4-0.9-0.6
						s-0.4-0.5-0.4-0.8l-2-0.9c0.1,0.9,0.5,1.7,1.1,2.4S2.6,151.3,3.5,151.7z M3.3,146.7c-0.4-0.2-0.8-0.5-1-0.9
						c-0.3-0.4-0.4-0.9-0.4-1.4s0.1-0.8,0.4-1s0.6-0.2,1,0s0.8,0.5,1,0.9c0.3,0.4,0.4,0.9,0.4,1.4s-0.1,0.8-0.4,1
						C4.1,146.9,3.8,146.9,3.3,146.7z M11.6,152.1c0.6,0.3,1.2,0.4,1.7,0.4s0.9-0.3,1.2-0.7c0.3-0.4,0.4-0.9,0.4-1.6s-0.1-1.4-0.4-2
						c-0.3-0.6-0.7-1.2-1.2-1.7s-1.1-0.9-1.7-1.2c-0.6-0.3-1.2-0.4-1.7-0.4s-0.9,0.3-1.2,0.6c-0.3,0.4-0.4,0.9-0.4,1.6
						s0.1,1.4,0.4,2c0.3,0.6,0.7,1.2,1.2,1.7C10.4,151.4,11,151.8,11.6,152.1z M11.6,150.3c-0.4-0.2-0.7-0.4-1-0.8
						c-0.3-0.4-0.4-0.9-0.4-1.4s0.1-0.9,0.4-1c0.3-0.2,0.6-0.2,1,0c0.4,0.2,0.7,0.4,1,0.8c0.3,0.4,0.4,0.9,0.4,1.4s-0.1,0.9-0.4,1
						C12.3,150.5,12,150.5,11.6,150.3z M20.1,155.7V154l-0.6-0.3c-0.3-0.1-0.4-0.2-0.5-0.4c-0.1-0.1-0.2-0.4-0.2-0.6v-2.5l1.3,0.6
						v-1.7l-1.3-0.6v-1.6l-2-0.9v1.6l-0.9-0.4v1.7l0.9,0.4v2.4c0,0.9,0.2,1.6,0.6,2.2s1,1,1.8,1.4L20.1,155.7z M28.1,159.2v-1.7
						l-0.6-0.3c-0.3-0.1-0.4-0.2-0.5-0.4c-0.1-0.2-0.2-0.4-0.2-0.6v-2.5l1.3,0.6v-1.7l-1.3-0.6v-1.6l-2-0.9v1.6l-0.9-0.4v1.7
						l0.9,0.4v2.4c0,0.9,0.2,1.6,0.6,2.2s1,1,1.8,1.4L28.1,159.2z M31.6,160.8v-3.5c0-0.5,0.1-0.8,0.4-1c0.2-0.2,0.6-0.1,1,0
						c0.4,0.2,0.7,0.4,0.9,0.8c0.2,0.4,0.3,0.7,0.3,1.2v3.6l2,0.9V159c0-0.9-0.2-1.7-0.7-2.4c-0.4-0.7-1-1.2-1.8-1.5
						c-0.5-0.2-0.9-0.3-1.3-0.2c-0.4,0.1-0.7,0.3-0.8,0.6v-3.4l-2-0.9v8.8L31.6,160.8z M39,156.6c0.4,0.2,0.6,0.2,0.9,0.1
						s0.3-0.3,0.3-0.6c0-0.3-0.1-0.6-0.3-0.9s-0.5-0.5-0.9-0.7c-0.4-0.2-0.6-0.2-0.9-0.1c-0.2,0.1-0.3,0.3-0.3,0.6
						c0,0.3,0.1,0.6,0.3,0.9S38.6,156.4,39,156.6z M40,164.4v-6.6l-2-0.9v6.6L40,164.4z M44.6,166.5c0.5,0.2,1,0.3,1.4,0.3
						s0.7-0.1,0.9-0.3c0.2-0.2,0.3-0.5,0.3-0.9c0-0.5-0.1-0.9-0.4-1.3c-0.2-0.4-0.5-0.7-0.8-1c-0.3-0.3-0.7-0.6-1.2-0.9
						s-0.8-0.6-1-0.8s-0.3-0.4-0.3-0.6c0-0.2,0.1-0.3,0.2-0.3c0.1,0,0.3,0,0.5,0.1c0.3,0.1,0.5,0.3,0.7,0.5c0.2,0.2,0.3,0.5,0.4,0.8
						l1.9,0.8c-0.1-0.7-0.4-1.4-0.9-2.1s-1.2-1.1-2-1.5c-0.8-0.4-1.4-0.4-1.9-0.3c-0.5,0.1-0.7,0.6-0.7,1.1s0.1,0.9,0.3,1.2
						c0.2,0.4,0.5,0.7,0.8,0.9c0.3,0.3,0.7,0.5,1.2,0.9c0.5,0.3,0.8,0.6,1,0.8s0.3,0.4,0.3,0.6s-0.1,0.3-0.2,0.3
						c-0.1,0.1-0.3,0-0.5-0.1c-0.3-0.1-0.6-0.3-0.8-0.6c-0.2-0.2-0.3-0.5-0.4-0.8l-1.9-0.8c0.1,0.8,0.4,1.5,1,2.1
						C43,165.6,43.7,166.1,44.6,166.5z M51.1,166.3l0.2-5.7l-2.2-1l0.2,5.9L51.1,166.3z M51.3,169.4v-2l-2.1-0.9v2L51.3,169.4z"/>
				</g>
				<g id="Group-7">
					
						<linearGradient id="Vector-15_3_" gradientUnits="userSpaceOnUse" x1="516.2894" y1="106.5782" x2="518.5475" y2="106.8008" gradientTransform="matrix(439.3448 0 0 274.1266 -227146.3906 -28563.9473)">
						<stop  offset="0" style="stop-color:#A12ADE"/>
						<stop  offset="1" style="stop-color:#8A1DC1"/>
					</linearGradient>
					<path id="Vector-15_1_" class="st11" d="M212.9,821.3l254.5-174.7c2.7-1.8,3.4-5.5,1.5-8.2c-0.6-0.8-1.3-1.5-2.2-1.9
						l-170.2-86.7l0,0L34,705.4c-3.3,1.9-4.3,6.1-2.4,9.4c0.5,0.9,1.3,1.7,2.2,2.3l162.9,104.5C201.6,824.7,208,824.6,212.9,821.3z"
						/>
					<path id="Path_3_" class="st12" d="M379.4,629.4c0.5,0.5,0.6,1.6,0.3,3.2l-0.1,0.5c0,0.1,0,0.2-0.1,0.2l-0.1,0.5
						c0,0.2-0.1,0.4-0.1,0.5l-0.2,0.6l0,0l-0.2,0.6c0,0.1-0.1,0.2-0.1,0.3l-0.2,0.6l0,0l-0.2,0.7l0,0l-0.2,0.7l0,0l-0.3,0.7l0,0
						l-0.3,0.8l0,0l-0.3,0.8l0,0l-0.3,0.8l0,0l-0.5,1.3l0,0l-0.6,1.3l0,0l-0.4,0.9l0,0l-0.6,1.4l0,0l-0.5,1l0,0l-0.5,1l0,0l50.1,6.5
						l11.4,14.1l-153,105.1l-116.7-18.9l-4.4-15.3H279l83.9-25.1l21.8-42.5l-54.5-15.3l38.1-27.2c0.7-0.2,1.5-0.3,2.1-0.5l0.8-0.2
						C375.5,627.9,378.2,628.2,379.4,629.4z"/>
					<g id="Group-6" transform="translate(201.400000, 170.185375)">
						<g id="Group-26" transform="translate(0.670919, 0.674163)">
							
								<linearGradient id="Vector-10_3_" gradientUnits="userSpaceOnUse" x1="119.3708" y1="105.5415" x2="119.5971" y2="105.3237" gradientTransform="matrix(-119.5334 0 0 174.8771 14306.4941 -18240.3672)">
								<stop  offset="0" style="stop-color:#621688"/>
								<stop  offset="1" style="stop-color:#9A26D6"/>
							</linearGradient>
							<path id="Vector-10" class="st13" d="M-35.6,173.5v107.7c0,2.2,1.8,3.9,3.9,3.9c0.6,0,1.2-0.1,1.7-0.4L79.5,231
								c2.7-1.3,4.4-4.1,4.4-7V113.1c0-1.6-1.3-2.9-2.9-2.9c-0.5,0-0.9,0.1-1.3,0.3l-109.9,54.2C-33.5,166.3-35.6,169.8-35.6,173.5z
								"/>
							
								<linearGradient id="Combined-Shape_2_" gradientUnits="userSpaceOnUse" x1="109.3599" y1="104.9073" x2="109.8925" y2="105.4896" gradientTransform="matrix(113.2921 0 0 168.44 -12409.2539 -17540.9941)">
								<stop  offset="0" style="stop-color:#A12ADE"/>
								<stop  offset="1" style="stop-color:#9A26D6"/>
							</linearGradient>
							<path id="Combined-Shape" class="st14" d="M77.7,111.5v108c0,3-1.7,5.7-4.4,7l0,0l-108.9,53.4V173.5c0-3.6,2-7,5.2-8.7
								l0.3-0.1L77.7,111.5z"/>
						</g>
					</g>
					<path id="Path_4_" class="st15" d="M0.3,692.7C119,623.8,237.6,554.9,356.2,486"/>
					<path id="Path_5_" class="st15" d="M724,668.4L355.7,486l0.1-274"/>
					<g id="Group-5" transform="translate(293.149822, 0.415423)">
						<g id="Group-49" transform="translate(0.000000, 142.542750)">
							<g id="Group-48" transform="translate(0.000000, 102.496417)">
								
									<linearGradient id="Rectangle-10_1_" gradientUnits="userSpaceOnUse" x1="-68.8053" y1="106.0197" x2="-69.6435" y2="105.5495" gradientTransform="matrix(366.3823 0 0 202.9015 25429.1875 -21273.8984)">
									<stop  offset="0" style="stop-color:#621688"/>
									<stop  offset="1" style="stop-color:#9A26D6"/>
								</linearGradient>
								<path id="Rectangle-10" class="st16" d="M-22.9,198.2L97.7,118c0.9-0.6,2-1.1,3.1-1.4c3.9-1.1,6.8-1.2,8.8-0.2l226.1,103.1
									c1.6,0.7,2.8,2,3.4,3.6c2.5,6.5,2.4,10.5-0.1,12.2l-118,78.8c-1.9,1.3-4,2.2-6.2,2.8c-7.8,2.2-13.7,2.3-17.6,0.4l-216.5-103
									c-1.8-0.8-3.2-2.2-4-4C-26.3,204.4-26.2,200.3-22.9,198.2z"/>
								
									<linearGradient id="Rectangle-9_1_" gradientUnits="userSpaceOnUse" x1="-70.2551" y1="105.8034" x2="-69.067" y2="105.9265" gradientTransform="matrix(368.1149 0 0 204.0583 25545.5684 -21405.1328)">
									<stop  offset="0" style="stop-color:#A12ADE"/>
									<stop  offset="1" style="stop-color:#8A1DC1"/>
								</linearGradient>
								<path id="Rectangle-9" class="st17" d="M109.6,111l228,108.5c3.2,1.5,4.6,5.4,3.1,8.6c-0.5,1.1-1.3,2-2.3,2.6l-120,79.7
									c-6.3,4.2-14.4,4.8-21.2,1.5L-21.9,207.7c-4.3-2-6.1-7.2-4.1-11.5c0.7-1.4,1.7-2.6,3-3.5l122-80.9
									C102.2,109.7,106.2,109.4,109.6,111z"/>
								<path id="Path-48" class="st12" d="M62.3,202.5l19.6-2.1c7.3-2.9,11.3-5.8,12-8.7c1.1-4.4-8.7-6.5-17.4-4.4
									C70.6,188.7,65.9,193.8,62.3,202.5z"/>
							</g>
							<g id="Group-44" transform="translate(92.795933, 178.027998)">
								<g id="Group-43">
									<path id="Vector-12" class="st18" d="M-15.9,109.8c7.8,0.8,9.9,4,9.4,6.4s-9.9,8.5-16.6,10.1c-4.7,1.1-15.2,0.2-11.3-6.9
										C-32.8,116.5-23.7,109-15.9,109.8z"/>
									<path id="Vector-11" class="st8" d="M-17,108.5c7.5,0.8,9.5,3.9,9,6.2s-9.5,8.2-16,9.8c-4.5,1.1-14.6,0.2-10.8-6.7
										C-33.3,114.9-24.5,107.7-17,108.5z"/>
								</g>
								<path id="Vector-13" class="st18" d="M-21,112.2l2.7,1.4l3.3-2.8L-21,112.2z"/>
							</g>
							<g id="Group-46" transform="translate(121.929549, 0.000000)">
								<path id="Combined-Shape_1_" class="st19" d="M-28.3,109.1c0.5,0,0.9,0.1,1.3,0.3l177.3,79.7c3.9,1.7,6.4,5.6,6.4,9.8v126.5
									c0,1.6-0.7,3.1-1.9,4.1v0.1l-3.1,2.6l0.1-1.4c-0.2,0-0.3,0-0.5,0c-0.8,0-1.5-0.2-2.2-0.5c-73-32.6-133.3-59.5-180.6-80.7
									V114.3l-3.2-1.6l4.1-2.7l0,0C-30,109.4-29.2,109.1-28.3,109.1z"/>
								<g id="Group-47" transform="translate(49.102874, 173.498199)">
									<path id="Vector-10_1_" class="st19" d="M-11.8,130.2l-23.8,11.4l0,0v4.1L13.5,168L37,152.4c2.8-1.8,4-5.2,3.1-8.4
										l-3.5-11.9l0,0l-50.4-21.9l5.1,11.5C-7.2,124.9-8.6,128.7-11.8,130.2z"/>
									<path id="Vector-9" class="st20" d="M-15,128.6l-20.6,12.5l0,0L13,163.4l20.8-13.6c2.5-1.6,3.5-4.7,2.6-7.6l-4.7-13.4l0,0
										l-49.6-20.4l5.4,12.1C-11.2,123.4-12.3,126.9-15,128.6z"/>
								</g>
								<path id="Vector-4_1_" class="st18" d="M152.6,202.5V329c0,3-2.4,5.4-5.4,5.4c-0.8,0-1.5-0.2-2.2-0.5l-174.3-78.7
									c-3.9-1.7-6.3-5.6-6.3-9.8V115.1c0-1.8,1.4-3.2,3.2-3.2c0.5,0,0.9,0.1,1.3,0.3l177.3,80.5
									C150.1,194.4,152.6,198.2,152.6,202.5z"/>
								<path id="Vector-5" class="st21" d="M148.5,205.5v118.4c0,2.4-1.9,4.3-4.3,4.3c-0.6,0-1.2-0.1-1.8-0.4l-168.9-75.7
									c-3.1-1.4-5.1-4.5-5.1-7.9V122.3c0-1.8,1.4-3.2,3.2-3.2c0.5,0,0.9,0.1,1.3,0.3L142,195.7C146,197.4,148.5,201.2,148.5,205.5
									z"/>
								<g id="Mask-Group" transform="translate(4.091894, 8.912670)">
									<path id="Vector-10_2_" class="st22" d="M144.4,196.6V315c0,2.4-1.9,4.3-4.3,4.3c-0.6,0-1.2-0.1-1.8-0.4l-168.9-75.7
										c-3.1-1.4-5.1-4.5-5.1-7.9V113.4c0-1.8,1.4-3.2,3.2-3.2c0.5,0,0.9,0.1,1.3,0.3l169.1,76.3
										C141.9,188.5,144.4,192.3,144.4,196.6z"/>
									<path id="Path_6_" class="st23" d="M-32.4,110.2c0.5,0,0.9,0.1,1.3,0.3l102.9,46.3V289l-102.3-45.9
										c-3.1-1.4-5.1-4.5-5.1-7.9V113.4C-35.6,111.6-34.2,110.2-32.4,110.2z"/>
									<g id="Group-52_1_" transform="translate(25.189652, 69.440613)">
										<path id="Path_7_" class="st4" d="M-17.2,169.3l19.1-4.9l0.9,2.8l0,0l0.8,2.5l0,0l0.7,2.3l0,0l0.9,3l0,0l0.5,1.5l0,0
											l0.3,1.2l0.3,1.2l0.6,2l0,0l0.4,1.3l0,0l0.3,1.3l0,0l0.3,1.3l0,0l0.3,1.2c0,0.2,0.1,0.4,0.1,0.6l0.3,1.1
											c0,0.2,0.1,0.4,0.1,0.5c0.4,1.7,0.7,4,0.9,6.4l0.1,1.1c0,0.2,0,0.4,0,0.6l0.1,1.2c0,0.2,0,0.4,0,0.6l0.1,1.2l0,0l0.1,1.8
											l0,0v1.2c0,0.2,0,0.4,0,0.6l-17.4-7.8l-0.4-0.9l0,0l-0.6-1.4l0,0l-0.4-1l0,0l-0.2-0.5l0,0l-0.4-0.9l0,0l-0.3-0.6l0,0
											l-0.3-0.5l0,0l-0.2-0.4l0,0l-0.1-0.3l0,0l-0.1-0.2l0,0l-0.1-0.2l0,0l-0.1-0.1c-0.1-0.2-0.2-0.2-0.3-0.2l0,0
											c-0.1,0.1-0.3,0.3-0.7,0.5l-0.3,0.1l0,0l-0.3,0.1l0,0l-0.4,0.1l0,0l-0.4,0.7l0,0l-0.7,0.2l0,0l-0.7,0.2l0,0l-1.1,0.3l0,0
											l-0.8,0.2l0,0l-0.9,0.3c-0.1,0-0.3,0.1-0.4,0.1l-17.6-7.9c1.8-1.8,3.2-3.1,4.5-4l0.5-0.4c0.1-0.1,0.2-0.1,0.3-0.2l0.5-0.3
											c0.1-0.1,0.2-0.1,0.2-0.2l0.5-0.3c0.1,0,0.2-0.1,0.2-0.1l0.5-0.3l0,0l0.5-0.2l0,0l0.4-0.2l0,0l0.7-0.3l0,0l1.6-0.8
											c0.7-0.3,1.3-0.6,2-1c2.5-1.4,4-3.1,4.8-4.3l0.2-0.3C-17.5,169.8-17.4,169.6-17.2,169.3L-17.2,169.3z"/>
										<path id="Vector-38_1_" class="st6" d="M7.8,124.2c0-1-3.9,0.5-5.4-2c-1.2-2,0.8-5.7,2-7.4c1.6,1.3,4.9,4.1,4.9,4.9
											c1.8,0.8,5.4,2.8,5.4,4.4c0,2-1.5,16.7-2.9,18.1c-1.2,1.2-4.4-7-5.9-11.3C6.8,128.9,7.8,124.9,7.8,124.2z"/>
										<path id="Vector-37_1_" class="st6" d="M-33.4,114.3c1-0.5,4.2-1.6,9.3-2c5.1-0.3,14.9,1.9,19.1,3l-1,3.4
											c-4.7,0-14.6-0.1-16.2-0.5c1.6,1.5,5.1,4.9,5.9,6.9c0.8,2-4.3,2.5-6.9,2.5C-26.4,125.5-33,119.8-33.4,114.3z"/>
										<path id="Vector-34_1_" class="st4" d="M-3.5,108.5c10.3-1,8.8,9.8,8.3,11.8c-0.4,1.6-1.5,5.2-2,6.9l-3.9-4.9l-5.9-5.4
											l-3.4,2.9C-11.5,116.3-11.8,109.2-3.5,108.5z"/>
										<path id="Vector-35_1_" class="st6" d="M3.4,131.5c-0.3,2.5-1.6,7-7.8,6.4c-4.9-0.5-3.3-5.6-1-8.8l7.8-4.9L3.4,131.5z"/>
										<path id="Path-59" class="st2" d="M-25.9,126.5c1.3,1.9,2.8,3.8,4.8,5.7c2.9,2.9,3.8,3.8,3.8,6.6c0,1.9,0,6,0,12.4
											c1.3,3.2,1.6,5.4,1,6.7c-0.6,1.3-1.6,5.4-2.9,12.3c5.1,2.5,9.2,3.5,12.4,2.8c3.2-0.6,7-1.6,11.4-2.8
											c1.3-5.1,2.5-9.2,3.8-12.3c1.9-4.8,3.8-9.5,3.8-12.4c0-2.8,2.9-4.8,2.9-7.6c0-1.9,0-3.5,0-4.8c-2.5,0-4.4-0.3-5.7-1
											s-2.4-1.5-3-2.8l-2.9,1c-1.3,5.7-3.8,8.2-7.6,7.6c-3.8-0.6-4.1-3.5-1-8.6l-1.8-1.9l-12.4-6.7c-1.9,2.5-3.2,4.1-3.8,4.8
											C-23.7,126.2-24.6,126.5-25.9,126.5z"/>
										<path id="Vector-33_1_" class="st3" d="M-10.9,120.7c0.5,0.3,1.4,1.3,1,2.5s1.8,5.1,2.9,6.9h3l5.4-4.4
											c1.1-0.3,3.2-1.5,2.5-3.4c-0.8-2-2.6-0.2-3.4,1c-0.4-1.9-1.4-5.7-2.5-6.5c-1.5-1-6.9-1.5-7.8-1c-0.8,0.4-1,1.5-1,2
											L-10.9,120.7L-10.9,120.7z"/>
									</g>
								</g>
							</g>
						</g>
						<path id="Vector-4_2_" class="st9" d="M284.8,400.5v24.4c0,3.3-2.6,5.9-5.9,5.9c-0.8,0-1.6-0.2-2.3-0.5l-9.9-4.3l0,0
							l-10.3,5.9v-10.7l-20.3-9c-5-2.2-8.1-7.1-8.1-12.5v-25.9c0-2.7,2.2-4.9,4.9-4.9c0.7,0,1.4,0.1,2,0.4l41.9,18.7
							C281.6,390.2,284.8,395.1,284.8,400.5z"/>
						<g id="Group-3" transform="translate(135.115033, 0.656311)">
							<path id="Vector-31" class="st24" d="M129.4,351.2c0,2.1-1.7,3.7-3.7,3.7c-0.5,0-1.1-0.1-1.5-0.3L74,331.9
								c-3.3-1.5-5.3-4.7-5.3-8.3v-0.8c0-1.8,1.4-3.2,3.2-3.2c0.5,0,0.9,0.1,1.3,0.3l51,23.2C127.3,344.5,129.4,347.7,129.4,351.2z"
								/>
							<path id="Vector-31_1_" class="st24" d="M129.4,368.1c0,2.1-1.7,3.7-3.7,3.7c-0.5,0-1.1-0.1-1.5-0.3L74,348.8
								c-3.3-1.5-5.3-4.7-5.3-8.3v-0.8c0-1.8,1.4-3.2,3.2-3.2c0.5,0,0.9,0.1,1.3,0.3l51,23.2C127.3,361.3,129.4,364.5,129.4,368.1z"
								/>
							<path id="Vector-32" class="st22" d="M14.9,300.1c0,1.7-1.4,3.1-3.1,3.1c-0.4,0-0.9-0.1-1.3-0.3l-41.6-18.7
								c-2.7-1.2-4.4-3.9-4.4-6.8v-1.3c0-1.3,1-2.3,2.3-2.3c0.3,0,0.6,0.1,0.9,0.2l42.8,19.4C13.2,294.6,14.9,297.2,14.9,300.1z"/>
							<path id="Vector-33_2_" class="st22" d="M-5.1,304.7L-5.1,304.7c0,1.8-1.4,3.2-3.2,3.2c-0.5,0-0.9-0.1-1.3-0.3l-21.5-9.7
								c-2.7-1.2-4.4-3.9-4.4-6.9v-1.6c0-1.3,1-2.3,2.3-2.3c0.3,0,0.6,0.1,0.9,0.2l22.8,10.4C-6.8,299-5.1,301.7-5.1,304.7z"/>
							<g id="Group-54" transform="translate(141.592385, 0.364393)">
								<path id="Shape" class="st25" d="M-8.6,401.6c1.6,0.7,2.9,2.6,2.9,4.4s-1.3,2.6-2.9,2c-1.6-0.7-2.9-2.6-2.9-4.4
									C-11.6,401.8-10.3,401-8.6,401.6z M-20.4,395.7c1.6,0.7,2.9,2.6,2.9,4.4c0,1.7-1.3,2.6-2.9,2c-1.6-0.7-2.9-2.6-2.9-4.4
									C-23.3,396-22,395.1-20.4,395.7z M-32.2,390.8c1.6,0.7,2.9,2.6,2.9,4.4c0,1.7-1.3,2.6-2.9,2c-1.6-0.7-2.9-2.6-2.9-4.4
									C-35.1,391-33.8,390.2-32.2,390.8z"/>
							</g>
							<g id="Group-56" transform="translate(108.335919, 299.028906)">
								<g id="Group-55">
									<path id="Vector-4_3_" class="st26" d="M0.8,132.3v12.1c0,2.7-2.2,4.9-4.9,4.9c-0.6,0-1.3-0.1-1.8-0.4l-7.6-3.1l0,0
										l-5.4,6.7l-5-11.2l-5.1-2.5c-4-2-6.5-6.1-6.5-10.5v-13.8c0-2.2,1.8-3.9,3.9-3.9c0.6,0,1.1,0.1,1.6,0.3l23.9,10.7
										C-2,123.5,0.8,127.7,0.8,132.3z"/>
								</g>
								<path id="Vector" class="st27" d="M-18.7,126.5c-0.7-1.5-1.9-2.9-3.3-3.6c-2.1-1-3.8,0.2-3.8,2.3c0,3.6,2.4,7.7,7.2,12.5
									c4.8-0.2,7.2-2.1,7.2-5.7c0-2.1-1.7-4.9-3.8-5.9C-16.7,125.5-18,125.6-18.7,126.5z"/>
							</g>
							<g id="Group-58" transform="translate(77.717458, 261.650805)">
								<path id="Union" class="st28" d="M-35.3,119.3c0-8.5,6.3-12.6,14.1-9.1s14.1,13.2,14.1,21.7c0,3.8-1.3,6.8-3.4,8.5
									c0.6,1.9,1.5,4.2,3,5.9c0.9,1.1,1.5,1.7,1.8,2c-1.8-0.5-5.5-2.4-8.5-6.1c-2,0.4-4.4,0-6.9-1.1
									C-29,137.6-35.3,127.9-35.3,119.3z"/>
								<path id="Vector_1_" class="st8" d="M-21.1,125.8c-1.8-0.8-3.3-3.1-3.3-5s1.5-2.9,3.3-2.1s3.3,3.1,3.3,5
									S-19.3,126.6-21.1,125.8z M-26.7,129.4c0.3-1.8,1.8-5.1,5.4-3.5c3.6,1.6,5.4,6.3,5.8,8.5L-26.7,129.4z"/>
								<path id="Vector_2_" class="st29" d="M-21.1,125.8c-1.8-0.8-3.3-3.1-3.3-5s1.5-2.9,3.3-2.1s3.3,3.1,3.3,5
									S-19.3,126.6-21.1,125.8z"/>
								<path id="Vector_3_" class="st29" d="M-26.7,129.4c0.3-1.8,1.8-5.1,5.4-3.5c3.6,1.6,5.4,6.3,5.8,8.5L-26.7,129.4z"/>
							</g>
						</g>
					</g>
					<g id="Group-2" transform="translate(175.793600, 263.333091)">
						<path id="Vector-27" class="st3" d="M-3.8,446.8l-7.8-13.2l-12.3,4.9l12.3,14.2L-3.8,446.8z"/>
						
							<linearGradient id="Vector-20_1_" gradientUnits="userSpaceOnUse" x1="161.1386" y1="105.743" x2="161.2552" y2="104.8553" gradientTransform="matrix(93.1739 0 0 165.7515 -14988.7266 -17075.4844)">
							<stop  offset="0" style="stop-color:#323232"/>
							<stop  offset="1" style="stop-color:#2B2A2A"/>
						</linearGradient>
						<path id="Vector-20" class="st30" d="M30.6,319.8c3.4,8.8,3.9,8.3,3.9,13.2s-2,40.2-2,44.1c0,3.1,0,11.1,0,14.7
							c-2.9,1.8-9.9,6.6-14.2,11.3C12.9,409,9,418.3,2.6,423.2c-5.1,3.9-14.9,8.8-19.1,10.8v1.5c1.8,0.5,5.7,2.4,6.9,5.9
							s1.1,8,1,9.8c1.3-0.5,4.1-1.7,4.9-2.5c1-1,2-1.5,2.9-2c0.8-0.4,36-19.1,53.5-28.4c2.3-0.8,7.3-2.9,8.8-4.9
							c2-2.5,3.9-15.7,5.9-21.6s9.3-41.2,9.3-58.8c0-14.1-10.1-33.2-15.7-43.2l-31.4-4.4C28.8,293.9,27.8,312.7,30.6,319.8z"/>
						<path id="Vector-18" class="st3" d="M34.5,137.8c-2.7-5.5-9.6-19.6-12.8-26c-1.6,2.3-5.1,8.4-5.9,14.7
							c-1,7.8-3.9,7.8-3.9,17.2c0,7.5,1.3,11.6,2,12.8l3.9,6.9l9.8-1l5.9-6.4C35,152.2,37.2,143.3,34.5,137.8z"/>
						<path id="Vector-30" class="st3" d="M150.7,376.6h11.8l7.8-9.3l-1-10.8l-16.7,6.4L150.7,376.6z"/>
						<path id="Vector-29" class="st18" d="M154.1,396.3c8.8,2,40.2-24,43.2-31.9c2.9-7.8-0.5-9.8-2-9.8c-1.2,0-17.8,11.1-26,16.7
							l-22.1,15.2C146.6,389.1,147.1,394.7,154.1,396.3z"/>
						<path id="Vector-28" class="st2" d="M147,380.6c-0.7,7.8,1.3,16.6,14,11.3c5.9-2.5,15.4-9.8,18.9-12.7
							c3.4-2.9,19.6-14.7,18.1-22.6c-1.5-7.8-8.6-6.4-12.5-4.9s-5.7,5.4-10.8,7.4c-3.9,1.5-5.4,1.4-5.4,5.4c0,1-2.2,4.4-7.1,7.4
							c-3.9,2.4-11.3,0.5-11.8-1C149.4,371.8,147.5,375.1,147,380.6z"/>
						<path id="Vector-21" class="st4" d="M47.2,322.7c3.4,6.4,8.8,13.2,26,16.2s60.3-30.4,69.1-34.8c7.1-3.5,8.5-4.4,8.3-4.4
							c-0.3,4.1-0.7,13.7,0.5,19.6c1.5,7.4,4.4,23.5,3.4,29.9s-3.4,13.7-3.4,14.2s4.4,4.4,11.3,2.5c6.9-2,9.3-9.3,9.3-10.3s0,1,0-2
							c0-2.9,4.4-27,4.9-33.8c0.5-6.8,0.5-22.1,1.5-29.4c1-7.4,2.5-14.2-6.4-21.6c-8.8-7.4-24.5-0.5-35.8,3.9
							c-9,3.5-29.9,12.3-39.2,16.2l-52,4.9C44.4,301.3,44.5,317.6,47.2,322.7z"/>
						<path id="Vector-23" class="st6" d="M81.1,183.4c2,0.5,6.7,1.2,9.8,0s4.9-12.9,5.4-18.6v-16.7l-23.5,8.8L65,170.1l-7.4,10.8
							l19.6,14.2L81.1,183.4z"/>
						<path id="Vector-22" class="st4" d="M51.6,157.9c-1.5-5.4-2-12.8,3.4-19.6c5.4-6.9,10.8-9.3,13.2-9.8c2-0.4,5.1-0.8,6.4-1
							c-0.5-1.8-0.2-5.5,4.9-5.9c5.1-0.4,5.7,3.4,5.4,5.4c3.4-0.7,10.8-0.7,12.8,4.4c2,5.1-0.2,8.3-1.5,9.3c2.3,0.8,6.5,3.5,4.9,7.8
							c-1.6,4.3-8.5,7-11.8,7.8L79,157.8l-1,5.9c-1.6-0.7-5-1.3-5.4,1.5c-0.5,3.4,1.5,6.9,5.4,7.4c-0.8,3.4-4.2,10-11.3,8.8
							c-7.1-1.2-10.1-5.4-10.8-7.4C55.1,170.5,52.8,162.2,51.6,157.9z"/>
						<path id="Path-50" class="st31" d="M70.3,129.2c-0.7-3.5,0.3-5.9,3.1-7.3"/>
						<path id="Vector-17" class="st32" d="M41.3,146.2c-5.1-3.1-15.8-11-18.1-17.7c-2.9-8.3-4.9-11.3-2.5-15.7s3-4.4,5.4-4.4
							c2.5,0,6.4,3.4,7.4,5.4s13.7,25.5,16.2,26.5s6.4-1,8.8,0.5c2.5,1.5,7.8,3.9,8.8,4.4s0.5,2.9-3.4,1.5c-3.9-1.4-6.4-2-6.9-2
							s2.9,3.9,4.9,4.4c1.6,0.4,5.6,1.5,7.4,2l2.5,7.4l-7.8,4.9l-11.3-2l-3-3L41.3,146.2z"/>
						<path id="Vector-16" class="st3" d="M55.6,164.5c-1.5-1-6.9-6.4-6.9-7.4s1.5-1,2,0s2.9,3.4,4.4,3.9s6.4,1.5,6.4,0
							s-4.9-1-7.4-3.4c-2.5-2.5-4.9-5.1-4.9-6c0-0.9,2.5,0,3.4,1.1c0.7,0.8,2.5,2.9,4.9,3.4c2.5,0.5,6.5,0.9,5.9,0
							c-0.5-0.6-5.9-2.1-6.9-3.1c-0.5-0.5-5.4-4.7-4.9-6.2c0.4-1.2,1.8-0.5,2.5,0c1.1,1.3,4.3,3.9,5.9,4.3c2,0.5,7.8,3.1,7.8,1.6
							s-1-2-2.9-2.5c-2-0.5-3.4-0.6-3.4-2.6s2.9-0.7,5.9,0c3.9,1,7.3,5.1,10.3,7.5c6.4,0.7,23.1,1.2,29.4,0.8
							c7.8-0.5,23.5,1.5,25.5,3.4c2,2,1,16.2-4.4,28c-4.3,9.4-5.7,12.4-6.4,12.4l-20.1-14.2c0.8-1.6,3.6-4.8,5.4-6.5
							c2.5-2.5,5.6-3.3,5.9-3.4c-2.9-0.2-9.6-0.6-16.7-2.9c-7.1-2.4-19.1-6.7-22.6-8.2C68.1,164.8,56.7,165.2,55.6,164.5z"/>
						<path id="Vector-19" class="st8" d="M22.2,157.9c3.9,0,9.8-3.9,12.3-5.9c0.7,2.1,2.2,6.4,2.9,6.4c1,0,7.8,6.9,9.3,9.3
							s4.9,5.9,5.9,6.9c0.8,0.8,5.6,2.3,7.8,2.9c5.4,3.4,16.5,10.8,17.7,12.8c1.5,2.5,2.9,2.5,4.9,2.5s6.4-0.5,8.3,0
							c2.1-2.6,7.6-8,12.3-8.8c3.4,3.6,12.5,10.8,21.1,10.8c0.5,0.8,1.7,2.7,1.5,3.4c-1.5,5.9-8.8,18.9-13.7,28
							c-3.4,6.4-5.4,7.8-6.4,11.8c-1,3.9-3.9,17.7-5.9,22.6c-2,4.9-1.5,6.9-2,8.8c-0.5,2-1.5,9.8,0,13.2s3.9,5.4,2,7.4
							c-2,2-12.3,12.8-28.4,13.2S41.4,292.9,34.5,290s-9.8-3.4-9.8-5.4s1-4.9,3.4-3.9c-0.7-1.1-1.6-3.8,0-5.4
							c0.8-4.4,2.6-15.3,3.4-23.5c1-10.3,1.5-17.2-2-35.3s-13.2-31.6-15.1-42.9c-1.6-9-2-17.5-2-20.6
							C14,154.7,18.3,157.9,22.2,157.9z"/>
						<path id="Path-51" class="st33" d="M51,175.3c-12.3,10.2-18.5,20.7-18.5,31.6"/>
						<path id="Vector-26" class="st2" d="M-21.9,437c3.6,0.7,11,3.4,11.8,9.3c-0.3,1.3-0.8,4.3,0,5.9c1,2-2,19.1,0.5,24.5
							s7.8,5.9,9.3,8.8s-1,7.4-7.8,5.4c-5.5-1.6-17.7-19.3-23-28l-2-19.6l1.5-2.9L-21.9,437z"/>
						<path id="Vector-25" class="st19" d="M-26.3,439.9c3.9,1.5,6.9,5.4,6.9,9.3s-2,19.1,2.9,26.5s11.3,13.2,13.2,13.2
							s2.5,2.9-3.4,2.5c-4.7-0.4-14.7-10.3-19.1-15.2l-8.3-28l0.5-5.9C-32.5,441-29.5,438.7-26.3,439.9z"/>
						<path id="Vector-24" class="st18" d="M-35.2,464.9c0.5-12.3-1-19.1,1-21.6s3.9-2.9,7.8-1s4.9,9.3,4.9,14.7s0.4,16,2,19.1
							c1.5,2.9,5.9,9.8,14.2,14.7c3.6,2.1-20.4,5.5-27.5-3.9C-37.1,481.1-35.2,466.9-35.2,464.9z"/>
					</g>
					<path id="Path_8_" class="st34" d="M293.9,479l-1.4,2.6l0,0l-3.4,6.3l0,0l-0.8,1.5c-0.2,0.3-0.3,0.6-0.4,0.8l-0.4,0.8
						c-0.1,0.1-0.1,0.2-0.2,0.4l-0.4,0.7l0,0l-0.4,0.6l0,0l-0.4,0.6l0,0l-0.7,1.1l0,0l-0.9,1.5l0,0l-0.4,0.7c0,0.1-0.1,0.1-0.1,0.2
						l-0.3,0.4l0,0l-0.2,0.4c0,0.1-0.1,0.1-0.1,0.2l-0.2,0.4c-0.4,0.8-0.8,1.7-1,2.7l-0.2,0.7l0,0l-0.7,3.1l0,0l-1.2,5l0,0l-0.6,2.5
						l0,0l-0.5,1.9l0,0l-0.5,1.8l0,0l-0.2,0.9l0,0l-0.4,1.3l0,0l-0.2,0.8l0,0l-0.2,0.8l0,0l-0.2,0.8l0,0l-0.2,0.7l0,0l-0.2,0.7
						c0,0.1-0.1,0.2-0.1,0.3l-0.2,0.6c-0.1,0.2-0.1,0.4-0.2,0.6l-0.1,0.3c-0.4,1-0.7,1.8-0.9,2.6l-0.2,0.6c-0.1,0.4-0.2,0.7-0.2,1
						l-0.1,0.5l0,0l-0.1,0.4l0,0l-0.1,0.4l0,0l-0.1,0.6l0,0l-0.2,1.5l0,0v0.3c0,0.1,0,0.1,0,0.2v0.3v0.1l-0.1,0.3l0,0v0.1l0,0
						l-0.1,0.3l0,0l-0.1,0.4l0,0l-0.1,0.4l0,0l-0.1,0.5l0,0l-0.1,0.5l0,0l-0.1,0.6l0,0l-0.1,0.6l0,0l-0.1,0.6l0,0l-0.1,0.7
						c0,0.1,0,0.2,0,0.3v0.7c-0.1,2.7,0,5.7,0.7,7.5c0.2,0.4,0.3,0.7,0.5,1.1l0.2,0.4l0,0l0.2,0.4l0,0l0.4,0.7l0,0l0.3,0.5l0,0
						l0.3,0.5c0,0.1,0.1,0.1,0.1,0.2l0.2,0.3c0.6,1.1,0.7,2.1-0.1,3.1l-0.2,0.2l-0.7,0.7l0,0l-0.7,0.6l0,0L274,555l0,0l-0.3,0.3l0,0
						l-0.6,0.5l0,0l-0.6,0.5l0,0l-0.4,0.4l0,0l-0.5,0.4l0,0l-0.5,0.4c-0.1,0.1-0.2,0.1-0.2,0.2l-0.5,0.4c-0.1,0.1-0.2,0.1-0.3,0.2
						l-0.5,0.4c-0.1,0.1-0.2,0.1-0.3,0.2l-0.6,0.4l0,0l-0.6,0.4l0,0l-0.6,0.4l0,0l-0.6,0.4c-0.1,0.1-0.2,0.1-0.3,0.2l-0.7,0.4l0,0
						l-0.7,0.4c-0.1,0.1-0.2,0.1-0.3,0.2l-0.7,0.4c-4.4,2.3-10,4.2-16.5,4.3c-7.7,0.2-15-2.1-21.2-4.9l-0.9-0.4l0,0l-0.9-0.4l0,0
						l-0.9-0.4l0,0l-0.9-0.4l0,0l-0.8-0.4l0,0l-0.8-0.4l0,0l-0.8-0.4l0,0l-0.8-0.4l0,0l-1.9-1l0,0l-3.1-1.7l0,0l-0.9-0.5l0,0
						l-0.9-0.5l0,0l-0.6-0.3l0,0l-0.5-0.3l0,0l-0.5-0.3l0,0l-0.5-0.2l0,0l-0.6-0.3l0,0l-1.1-0.4l0,0l-1.3-0.5l0,0l-3-1.2l0,0
						l-0.7-0.3l0,0l-0.4-0.2l0,0l-0.4-0.2l0,0l-0.4-0.2l0,0l-0.3-0.2l0,0l-0.3-0.2l0,0l-0.3-0.2c-0.9-0.5-1.3-1.1-1.3-1.8
						c0-0.1,0-0.3,0-0.4v-0.3l0,0v-0.3c0-0.2,0.1-0.4,0.1-0.6l0.1-0.3c0.4-1.5,1.4-2.7,3.2-2.1c-0.5-0.9-1.2-2.9-0.6-4.4
						c26.8,12.9,45.6,12.4,56.6-1.6c11.4-14.6,14.6-31,9.5-49.4l10.4-2.9C284.7,484.2,289.4,482,293.9,479z"/>
					<path id="Path-49" class="st33" d="M259.5,457.2c0.7,22.5,7.3,34.9,19.6,37.1"/>
				</g>
			</g>
		</g>
	</g>
</g>
</svg>
