<?xml version="1.0" encoding="utf-8"?>
<!-- Generator: Adobe Illustrator 24.0.1, SVG Export Plug-In . SVG Version: 6.00 Build 0)  -->
<svg version="1.1" id="Layer_1" xmlns="http://www.w3.org/2000/svg" xmlns:xlink="http://www.w3.org/1999/xlink" x="0px" y="0px"
	 viewBox="0 0 447 413" style="enable-background:new 0 0 447 413;" xml:space="preserve">
<style type="text/css">
	.st0{fill-rule:evenodd;clip-rule:evenodd;fill:#FFFFFF;}
	.st1{fill-rule:evenodd;clip-rule:evenodd;fill:#D28A55;}
	.st2{fill-rule:evenodd;clip-rule:evenodd;fill:#F0AA72;}
	.st3{fill-rule:evenodd;clip-rule:evenodd;fill:#A3B9FC;}
	.st4{filter:url(#Adobe_OpacityMaskFilter);}
	.st5{mask:url(#mask-2_1_);fill-rule:evenodd;clip-rule:evenodd;fill:#98B0F7;}
	.st6{filter:url(#Adobe_OpacityMaskFilter_1_);}
	.st7{mask:url(#mask-2_2_);fill-rule:evenodd;clip-rule:evenodd;fill:#98B0F7;}
	.st8{filter:url(#Adobe_OpacityMaskFilter_2_);}
	.st9{mask:url(#mask-2_3_);fill-rule:evenodd;clip-rule:evenodd;fill:#98B0F7;}
	.st10{filter:url(#Adobe_OpacityMaskFilter_3_);}
	.st11{mask:url(#mask-2_4_);fill-rule:evenodd;clip-rule:evenodd;fill:#98B0F7;}
	.st12{filter:url(#Adobe_OpacityMaskFilter_4_);}
	.st13{mask:url(#mask-2_5_);fill-rule:evenodd;clip-rule:evenodd;fill:#98B0F7;}
	.st14{filter:url(#Adobe_OpacityMaskFilter_5_);}
	.st15{mask:url(#mask-2_6_);fill-rule:evenodd;clip-rule:evenodd;fill:#98B0F7;}
	.st16{filter:url(#Adobe_OpacityMaskFilter_6_);}
	.st17{mask:url(#mask-2_7_);fill-rule:evenodd;clip-rule:evenodd;fill:#98B0F7;}
	.st18{filter:url(#Adobe_OpacityMaskFilter_7_);}
	.st19{mask:url(#mask-2_8_);fill-rule:evenodd;clip-rule:evenodd;fill:#98B0F7;}
	.st20{filter:url(#Adobe_OpacityMaskFilter_8_);}
	.st21{mask:url(#mask-2_9_);fill-rule:evenodd;clip-rule:evenodd;fill:#98B0F7;}
	.st22{filter:url(#Adobe_OpacityMaskFilter_9_);}
	.st23{mask:url(#mask-2_10_);fill-rule:evenodd;clip-rule:evenodd;fill:#98B0F7;}
	.st24{filter:url(#Adobe_OpacityMaskFilter_10_);}
	.st25{mask:url(#mask-2_11_);fill-rule:evenodd;clip-rule:evenodd;fill:#98B0F7;}
	.st26{filter:url(#Adobe_OpacityMaskFilter_11_);}
	.st27{mask:url(#mask-2_12_);fill-rule:evenodd;clip-rule:evenodd;fill:#98B0F7;}
	.st28{filter:url(#Adobe_OpacityMaskFilter_12_);}
	.st29{mask:url(#mask-2_13_);fill-rule:evenodd;clip-rule:evenodd;fill:#98B0F7;}
	.st30{filter:url(#Adobe_OpacityMaskFilter_13_);}
	.st31{mask:url(#mask-2_14_);fill-rule:evenodd;clip-rule:evenodd;fill:#98B0F7;}
	.st32{filter:url(#Adobe_OpacityMaskFilter_14_);}
	.st33{mask:url(#mask-2_15_);fill-rule:evenodd;clip-rule:evenodd;fill:#98B0F7;}
	.st34{filter:url(#Adobe_OpacityMaskFilter_15_);}
	.st35{mask:url(#mask-2_16_);fill-rule:evenodd;clip-rule:evenodd;fill:#98B0F7;}
	.st36{filter:url(#Adobe_OpacityMaskFilter_16_);}
	.st37{mask:url(#mask-2_17_);fill-rule:evenodd;clip-rule:evenodd;fill:#98B0F7;}
	.st38{filter:url(#Adobe_OpacityMaskFilter_17_);}
	.st39{mask:url(#mask-2_18_);fill-rule:evenodd;clip-rule:evenodd;fill:#98B0F7;}
	.st40{filter:url(#Adobe_OpacityMaskFilter_18_);}
	.st41{mask:url(#mask-2_19_);fill-rule:evenodd;clip-rule:evenodd;fill:#98B0F7;}
	.st42{fill:none;stroke:#AE36EB;stroke-width:1.5;stroke-dasharray:8,6;}
	.st43{fill-rule:evenodd;clip-rule:evenodd;fill:#5477DE;}
	.st44{fill-rule:evenodd;clip-rule:evenodd;fill:#E3EAFE;}
	.st45{filter:url(#Adobe_OpacityMaskFilter_19_);}
	.st46{mask:url(#mask-4_1_);}
	.st47{fill:#0A193B;}
	.st48{fill:#FEEDEA;}
	.st49{fill:#1F3C60;}
	.st50{fill:#ED5F4A;}
	.st51{fill:#C2D8EC;}
	.st52{fill:#C7DFF0;}
	.st53{fill:#33597D;}
	.st54{fill-rule:evenodd;clip-rule:evenodd;fill:#3768FA;}
	.st55{fill:none;stroke:#306D93;stroke-width:1.4526;}
	.st56{fill:none;stroke:#306D93;stroke-width:0.9626;}
	.st57{fill-rule:evenodd;clip-rule:evenodd;fill:#FFA54E;}
	.st58{fill-rule:evenodd;clip-rule:evenodd;fill:#F99533;}
	.st59{fill:#FFFEFE;}
	.st60{fill:#7FA1C0;}
	.st61{fill:#C1D1DE;}
	.st62{filter:url(#Adobe_OpacityMaskFilter_20_);}
	.st63{mask:url(#mask-6_1_);}
	.st64{opacity:0.4536;fill-rule:evenodd;clip-rule:evenodd;fill:#A3B9FC;enable-background:new    ;}
	.st65{fill-rule:evenodd;clip-rule:evenodd;fill:#323232;}
	.st66{fill-rule:evenodd;clip-rule:evenodd;fill:#B411CA;}
	.st67{fill-rule:evenodd;clip-rule:evenodd;fill:#DA17F5;}
	.st68{fill-rule:evenodd;clip-rule:evenodd;fill:#2E2B2B;}
	.st69{fill-rule:evenodd;clip-rule:evenodd;fill:#3A3A3A;}
	.st70{fill-rule:evenodd;clip-rule:evenodd;fill:#FF9E3F;}
	.st71{filter:url(#Adobe_OpacityMaskFilter_21_);}
	.st72{mask:url(#mask-8_1_);}
	.st73{fill:#F15B24;}
	.st74{fill:#F9AC92;}
	.st75{filter:url(#Adobe_OpacityMaskFilter_22_);}
	.st76{mask:url(#mask-10_1_);fill:#ED785E;}
	.st77{fill:#2E2E2E;}
	.st78{fill:none;stroke:#FFFFFF;stroke-width:0.4;}
	.st79{fill:#ED785E;}
	.st80{fill:#DD553C;}
	.st81{fill:#0D1427;}
	.st82{fill-rule:evenodd;clip-rule:evenodd;fill:#C0FA37;}
	.st83{fill:#FFF9D1;}
	.st84{filter:url(#Adobe_OpacityMaskFilter_23_);}
	.st85{mask:url(#mask-12_1_);}
	.st86{fill:#0A1532;}
	.st87{fill:#ADC3D2;}
	.st88{fill:none;stroke:#1D4BD3;stroke-width:1.75;}
	.st89{fill:none;stroke:#65A3C5;stroke-width:1.75;}
	.st90{fill:none;stroke:#306D93;stroke-width:1.75;}
	.st91{fill:#FFFFFF;}
	.st92{fill-rule:evenodd;clip-rule:evenodd;fill:#CA8038;}
	.st93{fill-rule:evenodd;clip-rule:evenodd;fill:#3DE3A3;}
	.st94{fill:#A94624;}
	.st95{fill-rule:evenodd;clip-rule:evenodd;fill:#34CA90;}
	.st96{fill-rule:evenodd;clip-rule:evenodd;fill:#AD6723;}
	.st97{fill:#65A3C5;}
</style>
<title>4@2x</title>
<g id="Page-1">
	<g id="Home" transform="translate(-173.000000, -2132.000000)">
		<rect x="-9" y="-9" class="st0" width="1440" height="3579"/>
		<g id="Group-32" transform="translate(182.000000, 120.000000)">
			<g id="Group-31" transform="translate(0.000000, 2021.000000)">
				<g id="Group" transform="translate(52.000000, 62.000000)">
					<path id="Fill-32" class="st1" d="M361.5-6.5L357.8-9l0,0L361.5-6.5C361.5-6.5,361.5-6.5,361.5-6.5"/>
					<polyline id="Fill-35" class="st2" points="290.1,74.7 297,85.3 309.5,80 299.4,68.7 290.1,74.7 					"/>
					<g id="Group-106" transform="translate(0.000000, 3.395120)">
						<g id="Clip-87">
							<path id="path-1_1_" class="st3" d="M338.6,165c0,95.9-77.8,173.7-173.7,173.7C68.9,338.7-8.8,260.9-8.8,165
								C-8.8,69,68.9-8.7,164.9-8.7C260.8-8.7,338.6,69,338.6,165"/>
						</g>
						<defs>
							<filter id="Adobe_OpacityMaskFilter" filterUnits="userSpaceOnUse" x="126.5" y="29.9" width="209.6" height="227.5">
								<feColorMatrix  type="matrix" values="1 0 0 0 0  0 1 0 0 0  0 0 1 0 0  0 0 0 1 0"/>
							</filter>
						</defs>
						<mask maskUnits="userSpaceOnUse" x="126.5" y="29.9" width="209.6" height="227.5" id="mask-2_1_">
							<g class="st4">
								<path id="path-1_2_" class="st0" d="M338.6,165c0,95.9-77.8,173.7-173.7,173.7C68.9,338.7-8.8,260.9-8.8,165
									C-8.8,69,68.9-8.7,164.9-8.7C260.8-8.7,338.6,69,338.6,165"/>
							</g>
						</mask>
						<path id="Fill-86" class="st5" d="M198.9,257.4c-3.2,0-4.1-1.8-6.1-7c-3-7.9-5.9-15.9-8.9-23.8c-2.2-5.9-1.3-8.3,0.5-14.6
							c1.7-6,2.4-7.7-0.2-13.4c-1.7-3.6-4-7.3-5.1-11.1c-1-3.2,0-5.6-0.4-9c-0.4-2.6-0.3-4.1-2.7-6.3c-0.1-0.1-0.3-0.2-0.6-0.2
							c-0.4,0-0.9,0.1-1.4,0.2c-0.5,0.1-1,0.2-1.4,0.2c-0.2,0-0.4,0-0.5-0.1c-1-0.5-1.6-3.1-2.6-3.3c-0.5-0.1-1.1-0.1-1.7-0.1
							c-4.1,0-9.3,2.3-13.6,2.4c-1.4,0.1-2.8,0.1-4,0.1c-5.5,0-9.6-0.8-13.8-4.6c-5.2-4.8-9.4-10-9.8-17.1
							c-0.9-15.4,10.6-21.1,17-33.5c2.1-4.1,0.1-5.6,5.4-8.8c2.7-1.6,3.5-1.5,6.9-2.1c8.1-1.5,16.6-1.9,24.8-2.8
							c-0.7,6.1-1.2,5.2,3.8,8.3c4,2.4,8.6,4.2,12.8,6.2c0.6-3.5,2.8-4.6,5.6-4.6c4.3,0,10.1,2.4,14,2.8c0.8,0.1,1.5,0.1,2.1,0.1
							c7.5,0,6.1-4.6,7.6-12.2c-2.6,0.1-5.6,0.7-8.5,0.7c-1.5,0-2.9-0.1-4.1-0.6c-5.4-1.8-4.6-4.1-5.5-9.2c-2,0.4-4,0.7-6.1,1.1
							c1.3,2.5,1.4,5.4,0.4,8c-1.8-2-4.3-3.9-5.7-6.2c-0.8-1.3-0.9-3.9-1.6-4.8c-2.6-3.5-7.6-6.3-11-9.2c-4.1,5.8,5.5,10.3,9.6,12.6
							c-2.7,3.2-4.1,6.5-6.6,6.5c-1.1,0-2.4-0.6-4.1-2.2c0.6,0,1.2,0.1,1.7,0.1c4.8,0,5.1-1.7,2.3-5.7c-3.2-4.5-7.4-7-11.9-7
							c-0.2,0-0.4,0-0.6,0c-0.7,0-1.3,2-2,2.1c0,0,0,0-0.1,0c-0.4,0-1-0.3-1.6-0.6c-0.6-0.3-1.3-0.6-1.7-0.6c-0.1,0-0.2,0-0.2,0.1
							c-0.1,0-0.2,0-0.3,0c-0.2,0-0.6-0.1-0.9-0.1c-0.3-0.1-0.7-0.1-1-0.1c-0.2,0-0.3,0-0.4,0.1c-0.4,0.2,0.3,2.5,0,2.8
							c-2.8,2.5-4.8,6.3-7.2,8.8c-2.3,2.5-4.8,4.7-7.9,4.7c-1.2,0-2.5-0.3-3.9-1.2c-3.7-2.1-5-9.4-2.6-13.2c0.9-1.5,2.2-1.9,3.6-1.9
							c1,0,2.1,0.2,3.3,0.4c1.1,0.2,2.3,0.4,3.4,0.4c1.2,0,2.3-0.2,3.3-1c4.1-3-1.4-7.9-3.6-10.4c3.2-1.2,7.1-2.1,10.1-3.8
							c3.6-2.1,2.6-3.7,5.6-5.9c2.3-1.7,3.8-0.6,5.3-2.6c2.2-2.9-2.6-5.9,3.8-6.2c-2,5.2,2.4,7.1,7.4,7.1c3.7,0,7.6-1,9.6-2.4
							c1-0.7,0.1-3,0.8-4c0.6-0.9,2.2-1.8,2.8-2.4c0-0.8,0-1.6,0-2.4c1,0,2.1,0,3.1,0c0.5-0.4,1.1-0.5,1.5-0.5c0.2,0,0.5,0,0.7,0
							c0.2,0,0.4,0.1,0.6,0.1c0.7,0,1.2-0.3,1.7-2.1c-2.5,0.4-4.5,1.2-6.2,1.2c-1.3,0-2.5-0.4-3.7-1.7c-4-4.1-0.6-5.1,3-8
							c-1-0.7-2-1-3.1-1c-6,0-12,9.8-5.1,10.8c-1.5,1.9-5.6,9.2-7.8,9.7c-0.3,0.1-0.6,0.1-0.9,0.1c-3.5,0-2.9-5.6-3.4-8.4
							c-2.2,0.9-3.8,1.9-5.3,1.9c-0.6,0-1.1-0.1-1.7-0.5c-2.3-1.5-2.3-5.4-1.6-6.6c1.4-2.5,7.7-3.3,10.1-5.2c2.5-2,3.7-5.9,6.4-7.6
							c3.7-2.4,9-3.5,14.4-3.5c8,0,16.5,2.3,21.5,6.2c-1.6,0.9-3.3,1.3-5,1.3c-2.6,0-5.3-0.7-7.8-1c2.1,2.8,5,6.2,8.6,6.2
							c0.6,0,1.2-0.1,1.9-0.3c0.6-0.2,1.6-3.1,2.7-3.7c2.4-1.6,6.6-2.3,9.4-3.3c5.4-1.9,10.1-2.7,15-2.7c3.5,0,7.1,0.4,11.1,1.2
							c-2.4-6.3-1.7-7.7,0.7-7.7c1,0,2.2,0.2,3.6,0.5c1.4,0.2,3,0.5,4.7,0.5c0.9,0,1.8-0.1,2.8-0.2c0.7-0.1,1.3-0.3,2-0.5
							C306.4,56.1,329,93.4,336.2,136c-1.2-1.2-2.6-1.8-4.2-1.8c-1.6,0-3.4,0.6-5.6,1.9c-3,1.7-11,9.4-12.2,12.5
							c-2.7,7.2,2.2,10.1-3.6,16.4c-4.4-3.1-5.4-9.9-7.1-14.5c-1.9-5.1-5.1-10.7-4.6-16.2c-0.9,1.9-1.9,2.6-2.9,2.6
							c-2.7,0-5.7-5-7.9-6.8c-2.6-2.2-4.7-2.5-7.2-2.5c-0.5,0-1,0-1.5,0c-0.5,0-1.1,0-1.6,0c-0.9,0-1.8,0-2.9-0.1
							c-2.5-0.2-5-1.5-6.7-1.9c0.1,0,0.1,0,0.2,0c0.3,0-0.3-0.5-1-1c-0.7-0.5-1.4-1-1.3-1c0,0,0,0,0,0c-0.1,0-0.2,0-0.2,0
							c-0.3,0-0.7,0.2-1.1,0.4s-0.9,0.4-1.3,0.4c-0.1,0-0.3,0-0.4-0.1c-3.1-1.2-8.5-6.8-11.8-6.8c-0.4,0-0.8,0.1-1.1,0.3
							c1.3,2.6,3.9,10,6.6,11.4c0.8,0.5,1.6,0.6,2.4,0.6c1.4,0,2.7-0.6,3.9-1.2c1.2-0.6,2.4-1.2,3.6-1.2c0.2,0,0.4,0,0.6,0.1
							c0.8,0.2,6.1,5.1,6.4,6.1c0.5,2.4,0,1.5-1.8,4.7c-2.6,4.8-5.1,6.7-9.6,9.2c-3.2,1.8-10.7,6.6-14.5,6.6c-0.1,0-0.2,0-0.4,0
							c-4.7,0-4.6-2.1-6.7-6.1c-2.1-3.9-11-25.9-16.1-25.9c-0.3,0-0.6,0.1-0.8,0.2c3.8,8.2,7,17,11.7,24.8
							c1.7,2.8,6.4,11.8,9.5,13.1c0.6,0.3,1.4,0.4,2.2,0.4c3.8,0,8.9-2.3,11.6-3.2c-1.6,14.5-13.5,20.1-20.5,31.2
							c-6.3,10.1,5.2,21.8-2.4,30.7c-2,2.4-7.7,3.5-9.1,6.2c-1.2,2.3,1.1,5.7,0.4,8.2c-0.9,3.3-2.9,2.1-4.9,4.9
							c-1.6,2.3-1.1,5.7-3,8.3c-3.8,5.4-7.4,8.1-13.8,9.5C202.4,257,200.4,257.4,198.9,257.4"/>
						<defs>
							<filter id="Adobe_OpacityMaskFilter_1_" filterUnits="userSpaceOnUse" x="152.3" y="54.9" width="12.5" height="19.6">
								<feColorMatrix  type="matrix" values="1 0 0 0 0  0 1 0 0 0  0 0 1 0 0  0 0 0 1 0"/>
							</filter>
						</defs>
						<mask maskUnits="userSpaceOnUse" x="152.3" y="54.9" width="12.5" height="19.6" id="mask-2_2_">
							<g class="st6">
								<path id="path-1_3_" class="st0" d="M338.6,165c0,95.9-77.8,173.7-173.7,173.7C68.9,338.7-8.8,260.9-8.8,165
									C-8.8,69,68.9-8.7,164.9-8.7C260.8-8.7,338.6,69,338.6,165"/>
							</g>
						</mask>
						<path id="Fill-88" class="st7" d="M152.3,74.6c1.2-1.7,4.3-4.8,4.5-6.6c0.4-4-1.8-1.9-2.5-3.4c-3-6.2-1.4-6.4,4.3-9.6
							c0.8,3.1,1,7.4,2.5,10.3c1.5,2.8,6.2,4.1,1.8,7C159.4,73,155.8,73.8,152.3,74.6"/>
						<defs>
							<filter id="Adobe_OpacityMaskFilter_2_" filterUnits="userSpaceOnUse" x="145.5" y="64" width="7.8" height="7.2">
								<feColorMatrix  type="matrix" values="1 0 0 0 0  0 1 0 0 0  0 0 1 0 0  0 0 0 1 0"/>
							</filter>
						</defs>
						<mask maskUnits="userSpaceOnUse" x="145.5" y="64" width="7.8" height="7.2" id="mask-2_3_">
							<g class="st8">
								<path id="path-1_4_" class="st0" d="M338.6,165c0,95.9-77.8,173.7-173.7,173.7C68.9,338.7-8.8,260.9-8.8,165
									C-8.8,69,68.9-8.7,164.9-8.7C260.8-8.7,338.6,69,338.6,165"/>
							</g>
						</mask>
						<path id="Fill-89" class="st9" d="M145.5,71.2c1.5-3.4,1.1-7.2,4.5-7.2c0.8,0,1.9,0.2,3.3,0.8C150.2,70.1,152.7,70,145.5,71.2
							"/>
						<defs>
							<filter id="Adobe_OpacityMaskFilter_3_" filterUnits="userSpaceOnUse" x="236.8" y="23.4" width="18" height="10.8">
								<feColorMatrix  type="matrix" values="1 0 0 0 0  0 1 0 0 0  0 0 1 0 0  0 0 0 1 0"/>
							</filter>
						</defs>
						<mask maskUnits="userSpaceOnUse" x="236.8" y="23.4" width="18" height="10.8" id="mask-2_4_">
							<g class="st10">
								<path id="path-1_5_" class="st0" d="M338.6,165c0,95.9-77.8,173.7-173.7,173.7C68.9,338.7-8.8,260.9-8.8,165
									C-8.8,69,68.9-8.7,164.9-8.7C260.8-8.7,338.6,69,338.6,165"/>
							</g>
						</mask>
						<path id="Fill-90" class="st11" d="M242.1,34.2c-4.4,0-7.3-4-3.6-7.6c2.7-2.7,6.7-3.1,10.6-3.1c2,0,4,0.1,5.7,0.1
							c-2.5,0.6-22.2,6.2-9.6,10C244.1,34,243.1,34.2,242.1,34.2"/>
						<defs>
							<filter id="Adobe_OpacityMaskFilter_4_" filterUnits="userSpaceOnUse" x="179.1" y="18.3" width="12.8" height="5.3">
								<feColorMatrix  type="matrix" values="1 0 0 0 0  0 1 0 0 0  0 0 1 0 0  0 0 0 1 0"/>
							</filter>
						</defs>
						<mask maskUnits="userSpaceOnUse" x="179.1" y="18.3" width="12.8" height="5.3" id="mask-2_5_">
							<g class="st12">
								<path id="path-1_6_" class="st0" d="M338.6,165c0,95.9-77.8,173.7-173.7,173.7C68.9,338.7-8.8,260.9-8.8,165
									C-8.8,69,68.9-8.7,164.9-8.7C260.8-8.7,338.6,69,338.6,165"/>
							</g>
						</mask>
						<path id="Fill-91" class="st13" d="M187.3,23.6c-2.7-1.7-5.5-3.3-8.2-5c1.8-0.2,3.2-0.3,4.6-0.3c2.7,0,4.9,0.4,8.2,1.7
							C190.3,21.2,188.8,22.4,187.3,23.6"/>
						<defs>
							<filter id="Adobe_OpacityMaskFilter_5_" filterUnits="userSpaceOnUse" x="189.8" y="17.2" width="12.4" height="2.3">
								<feColorMatrix  type="matrix" values="1 0 0 0 0  0 1 0 0 0  0 0 1 0 0  0 0 0 1 0"/>
							</filter>
						</defs>
						<mask maskUnits="userSpaceOnUse" x="189.8" y="17.2" width="12.4" height="2.3" id="mask-2_6_">
							<g class="st14">
								<path id="path-1_7_" class="st0" d="M338.6,165c0,95.9-77.8,173.7-173.7,173.7C68.9,338.7-8.8,260.9-8.8,165
									C-8.8,69,68.9-8.7,164.9-8.7C260.8-8.7,338.6,69,338.6,165"/>
							</g>
						</mask>
						<path id="Fill-92" class="st15" d="M195.2,19.4c-2,0-3.8-0.5-5.4-2.3c4.2,0.3,8.2,0.7,12.4,1.2
							C199.8,18.8,197.4,19.4,195.2,19.4"/>
						<defs>
							<filter id="Adobe_OpacityMaskFilter_6_" filterUnits="userSpaceOnUse" x="243.1" y="209.4" width="12.7" height="29.1">
								<feColorMatrix  type="matrix" values="1 0 0 0 0  0 1 0 0 0  0 0 1 0 0  0 0 0 1 0"/>
							</filter>
						</defs>
						<mask maskUnits="userSpaceOnUse" x="243.1" y="209.4" width="12.7" height="29.1" id="mask-2_7_">
							<g class="st16">
								<path id="path-1_8_" class="st0" d="M338.6,165c0,95.9-77.8,173.7-173.7,173.7C68.9,338.7-8.8,260.9-8.8,165
									C-8.8,69,68.9-8.7,164.9-8.7C260.8-8.7,338.6,69,338.6,165"/>
							</g>
						</mask>
						<path id="Fill-93" class="st17" d="M246.4,238.6c-0.6,0-1.3-0.2-2.1-0.8c-2.4-1.8-0.4-13.4,0.2-16.1
							c1.2-5.3,6.5-8.4,10.6-12.2c1.5,7,0.3,9.7-2.2,16.6C252,228.6,250.5,238.6,246.4,238.6"/>
						<defs>
							<filter id="Adobe_OpacityMaskFilter_7_" filterUnits="userSpaceOnUse" x="140" y="37.9" width="11.3" height="3.7">
								<feColorMatrix  type="matrix" values="1 0 0 0 0  0 1 0 0 0  0 0 1 0 0  0 0 0 1 0"/>
							</filter>
						</defs>
						<mask maskUnits="userSpaceOnUse" x="140" y="37.9" width="11.3" height="3.7" id="mask-2_8_">
							<g class="st18">
								<path id="path-1_9_" class="st0" d="M338.6,165c0,95.9-77.8,173.7-173.7,173.7C68.9,338.7-8.8,260.9-8.8,165
									C-8.8,69,68.9-8.7,164.9-8.7C260.8-8.7,338.6,69,338.6,165"/>
							</g>
						</mask>
						<path id="Fill-94" class="st19" d="M144.1,41.6c-0.9,0-1.8-0.1-2.9-0.4c-2.9-2.4-0.3-3.3,3-3.3c2.8,0,6.1,0.6,7,1.4
							C148.4,40.5,146.6,41.6,144.1,41.6"/>
						<defs>
							<filter id="Adobe_OpacityMaskFilter_8_" filterUnits="userSpaceOnUse" x="-7.9" y="35.5" width="121" height="265.8">
								<feColorMatrix  type="matrix" values="1 0 0 0 0  0 1 0 0 0  0 0 1 0 0  0 0 0 1 0"/>
							</filter>
						</defs>
						<mask maskUnits="userSpaceOnUse" x="-7.9" y="35.5" width="121" height="265.8" id="mask-2_9_">
							<g class="st20">
								<path id="path-1_10_" class="st0" d="M338.6,165c0,95.9-77.8,173.7-173.7,173.7C68.9,338.7-8.8,260.9-8.8,165
									C-8.8,69,68.9-8.7,164.9-8.7C260.8-8.7,338.6,69,338.6,165"/>
							</g>
						</mask>
						<path id="Fill-95" class="st21" d="M79.8,301.3c-9.8,0-12.2-0.2-18.7-7.7c-4.5-5.2-5.8-10.7-8.1-17.3
							c-4.5-13.1-4-26.9-4.8-40.6c-0.4-6.5,0.6-10.4-3.7-14.6c-2.7-2.7-7.4-3.7-10.1-6.5c-2-2-3.2-5.2-4.7-7.6
							c-4.6-7.9-6.9-10.1-5.3-18.8c1.2-6.6,4.5-11.3,8-17.1c-0.6-1.6-3-7.4-5-7.4c-0.7,0-1.4,0.8-1.9,2.8c-3.1-1.7-7-3.3-9.3-5.7
							c-1.4-1.4-1.6-4-3.1-5.3c-1.3-1.2-3.2-0.9-4.7-2c-2-1.4-5.3-5.1-7.3-6c-2.6-1.1-6.2-0.1-9-1.2c4.6-43.5,25.4-82.3,56.1-110.1
							c1.6,0,3.2,0,4.8,0.1c0.1,0,0.1,0,0.2,0c0.1,0,0.2,0,0.3,0c0.3,0.5,0.9,1,1.6,1.4c0.9,0.3,1.7,0.4,2.2,0.4
							c1.4,0,1.6-0.8,1.6-2c1.7,0.2,2.8,1,2.3,3.5c2.3-1.4,4.4-3,6.8-3.7c0.4,0.2,0.7,0.4,1,0.6c0.1,0,0.2,0,0.3,0
							c0.5,0,1.2-0.4,1.9-0.8c0.1-0.1,0.2-0.1,0.3-0.2c0.2,0,0.5,0.1,0.7,0.1c-3.4,5.8-4.6,5.3-11.5,6.1c1.8,1.6,3.7,3.2,5.5,4.8
							c-2.9,0-5.8,0.1-8.8,0.1c0.7-1.6,0.9-3.4,1.8-4.9c-4.6,2.6-22.8,9.8-23.9,14.1c-1.5,6.3,8.9,5.6,12.1,7.3
							c4.8,2.7,3,3.4,1.5,9.4c0,0,0,0,0,0c4.8,0,12.7-15.6,15.8-19.2c2.1-2.4,3.2-4.1,5.6-4.1c0.9,0,2.1,0.3,3.6,0.8
							c6.5,2.4,1.3,3.5,4.1,7.5c2.5-1.5,4.9-2.9,7.4-4.4c2.3,4.9,9.9,14.6,3.8,18.5c-5.8,3.7-16.2,2.4-23.1,6
							c2.7-0.4,5.4-0.8,8.1-1.2c-1.3,1.7-2,3.7-2.3,5.8c2.6,0,5.1,0,7.7,0c-3.6,1.4-7.2,2.8-10.8,4.3c0-0.9,0-1.8,0-2.7
							c-12.6,4.4-16,11.6-24.9,20.6c-3.2,3.2-11,5.6-13,9.4c-2.4,4.6,2,9.8-1.9,14.8c-2.6-7.3-2.5-11.8-10.2-11.8
							c-0.8,0-1.7,0-2.6,0.1c-5.2,0.5-15.4,3.1-18.1,6.7c-3.2,4.3-4.2,16,1.3,18.8c0.5,0.3,1.1,0.4,1.7,0.4c2.4,0,5.4-1.7,7-2.5
							c3.1-1.6,4.1-3.3,8.4-4.5c-1.8,4.3-3.6,8.5-5.4,12.8c3.4,0.4,6.8,0.8,10.1,1.2c-0.7,4.2-3.1,9.6,2,12.3
							c1.2,0.6,6.4,1.3,8.6,1.3c0.3,0,0.5,0,0.6,0c3.6-0.5,8.2-2.7,12.4-3.3c2.2-0.3,3.8-0.5,5.2-0.5c1.6,0,3,0.3,5.2,0.9
							c5.8,1.7,20.5,6.8,24.2,11.1c2.7,3.3,1.7,9.5,4.7,12.6c1.6,1.7,6.2,2.5,8.3,3.3c5.1,1.9,19.5,5.1,20.6,9.4
							c0.8,3-3.9,10.9-5,13.8c-1.8,5-3.6,10-5.4,15c-5.5,15.3-19.7,28-30,40.7c-5.5,6.7-4.7,9.3-4.5,18.1
							C68.5,294.1,71.8,295,79.8,301.3"/>
						<defs>
							<filter id="Adobe_OpacityMaskFilter_9_" filterUnits="userSpaceOnUse" x="21.1" y="133.3" width="19.2" height="5.8">
								<feColorMatrix  type="matrix" values="1 0 0 0 0  0 1 0 0 0  0 0 1 0 0  0 0 0 1 0"/>
							</filter>
						</defs>
						<mask maskUnits="userSpaceOnUse" x="21.1" y="133.3" width="19.2" height="5.8" id="mask-2_10_">
							<g class="st22">
								<path id="path-1_11_" class="st0" d="M338.6,165c0,95.9-77.8,173.7-173.7,173.7C68.9,338.7-8.8,260.9-8.8,165
									C-8.8,69,68.9-8.7,164.9-8.7C260.8-8.7,338.6,69,338.6,165"/>
							</g>
						</mask>
						<path id="Fill-96" class="st23" d="M38.6,139.2c-2.7,0-5-1.3-7.3-2.6c-2.3-1.3-4.6-2.6-7.2-2.6c-1,0-2,0.2-3,0.6
							c2.3-0.9,4.2-1.3,5.9-1.3c4.4,0,7.5,2.6,13.3,5.7C39.7,139.1,39.2,139.2,38.6,139.2"/>
						<defs>
							<filter id="Adobe_OpacityMaskFilter_10_" filterUnits="userSpaceOnUse" x="39.6" y="139.9" width="12.2" height="4.4">
								<feColorMatrix  type="matrix" values="1 0 0 0 0  0 1 0 0 0  0 0 1 0 0  0 0 0 1 0"/>
							</filter>
						</defs>
						<mask maskUnits="userSpaceOnUse" x="39.6" y="139.9" width="12.2" height="4.4" id="mask-2_11_">
							<g class="st24">
								<path id="path-1_12_" class="st0" d="M338.6,165c0,95.9-77.8,173.7-173.7,173.7C68.9,338.7-8.8,260.9-8.8,165
									C-8.8,69,68.9-8.7,164.9-8.7C260.8-8.7,338.6,69,338.6,165"/>
							</g>
						</mask>
						<path id="Fill-97" class="st25" d="M44.8,144.3c-1.7,0-3.4-0.4-5.2-1.4c0.1,0,0.1,0,0.2,0c1.3,0,2.7-0.5,4-0.6
							c-0.6-0.8-1.2-1.6-1.8-2.3c3.6,0.4,8.7-0.6,9.7,3.3C49.3,143.7,47,144.3,44.8,144.3"/>
						<defs>
							<filter id="Adobe_OpacityMaskFilter_11_" filterUnits="userSpaceOnUse" x="32.2" y="142.3" width="3.9" height="2.3">
								<feColorMatrix  type="matrix" values="1 0 0 0 0  0 1 0 0 0  0 0 1 0 0  0 0 0 1 0"/>
							</filter>
						</defs>
						<mask maskUnits="userSpaceOnUse" x="32.2" y="142.3" width="3.9" height="2.3" id="mask-2_12_">
							<g class="st26">
								<path id="path-1_13_" class="st0" d="M338.6,165c0,95.9-77.8,173.7-173.7,173.7C68.9,338.7-8.8,260.9-8.8,165
									C-8.8,69,68.9-8.7,164.9-8.7C260.8-8.7,338.6,69,338.6,165"/>
							</g>
						</mask>
						<path id="Fill-98" class="st27" d="M32.2,144.6c0-0.8,0-1.6,0-2.3c1.3,0.1,2.6,0.6,3.9,0.9C35.1,143.7,33.3,144.3,32.2,144.6"
							/>
						<defs>
							<filter id="Adobe_OpacityMaskFilter_12_" filterUnits="userSpaceOnUse" x="53.6" y="142.3" width="4.2" height="1.4">
								<feColorMatrix  type="matrix" values="1 0 0 0 0  0 1 0 0 0  0 0 1 0 0  0 0 0 1 0"/>
							</filter>
						</defs>
						<mask maskUnits="userSpaceOnUse" x="53.6" y="142.3" width="4.2" height="1.4" id="mask-2_13_">
							<g class="st28">
								<path id="path-1_14_" class="st0" d="M338.6,165c0,95.9-77.8,173.7-173.7,173.7C68.9,338.7-8.8,260.9-8.8,165
									C-8.8,69,68.9-8.7,164.9-8.7C260.8-8.7,338.6,69,338.6,165"/>
							</g>
						</mask>
						<path id="Fill-99" class="st29" d="M56.2,143.6c-1.4,0-1.9-0.7-2.6-1.4c1.4,0.3,2.8,0.8,4.2,1.2
							C57.2,143.6,56.6,143.6,56.2,143.6"/>
						<defs>
							<filter id="Adobe_OpacityMaskFilter_13_" filterUnits="userSpaceOnUse" x="82.1" y="72.4" width="11.7" height="9.4">
								<feColorMatrix  type="matrix" values="1 0 0 0 0  0 1 0 0 0  0 0 1 0 0  0 0 0 1 0"/>
							</filter>
						</defs>
						<mask maskUnits="userSpaceOnUse" x="82.1" y="72.4" width="11.7" height="9.4" id="mask-2_14_">
							<g class="st30">
								<path id="path-1_15_" class="st0" d="M338.6,165c0,95.9-77.8,173.7-173.7,173.7C68.9,338.7-8.8,260.9-8.8,165
									C-8.8,69,68.9-8.7,164.9-8.7C260.8-8.7,338.6,69,338.6,165"/>
							</g>
						</mask>
						<path id="Fill-100" class="st31" d="M93.8,81.8c-3.9-1-7.8-1.9-11.7-2.9c2.3-2.2,4.5-4.3,6.8-6.5c-0.2,2,0.5,2.4,1.3,2.4
							c0.3,0,0.6-0.1,1-0.1c0.3-0.1,0.7-0.1,1-0.1c0.5,0,0.9,0.1,1.1,0.6C94,76.7,93.7,80.1,93.8,81.8"/>
						<defs>
							<filter id="Adobe_OpacityMaskFilter_14_" filterUnits="userSpaceOnUse" x="64.3" y="27.9" width="32.3" height="21.7">
								<feColorMatrix  type="matrix" values="1 0 0 0 0  0 1 0 0 0  0 0 1 0 0  0 0 0 1 0"/>
							</filter>
						</defs>
						<mask maskUnits="userSpaceOnUse" x="64.3" y="27.9" width="32.3" height="21.7" id="mask-2_15_">
							<g class="st32">
								<path id="path-1_16_" class="st0" d="M338.6,165c0,95.9-77.8,173.7-173.7,173.7C68.9,338.7-8.8,260.9-8.8,165
									C-8.8,69,68.9-8.7,164.9-8.7C260.8-8.7,338.6,69,338.6,165"/>
							</g>
						</mask>
						<path id="Fill-101" class="st33" d="M84.2,49.6c-3.6,0-10.5-4-13.7-5.1c3.9-1.7,7.7-3.5,11.6-5.2c-1.1-3.4-5.5-3.8-8.8-4.4
							c-0.1,0-0.1,0-0.2,0c-0.4,0-1,0.3-1.5,0.6c-0.1,0.1-0.2,0.1-0.3,0.2c-0.7,0.4-1.3,0.8-1.9,0.8c-0.1,0-0.2,0-0.3,0
							c-0.3-0.1-0.7-0.3-1-0.6c-1.3-0.9-2.7-2.6-3.7-3.4c3.1-2.8,8.2-4.5,13-4.5c2,0,4,0.3,5.8,0.9c4.7,1.7,9.7,8.6,13.4,12
							c-2.8,2.1-8.3,8.2-11.7,8.8C84.6,49.6,84.4,49.6,84.2,49.6"/>
						<defs>
							<filter id="Adobe_OpacityMaskFilter_15_" filterUnits="userSpaceOnUse" x="75.5" y="37.7" width="4.2" height="2">
								<feColorMatrix  type="matrix" values="1 0 0 0 0  0 1 0 0 0  0 0 1 0 0  0 0 0 1 0"/>
							</filter>
						</defs>
						<mask maskUnits="userSpaceOnUse" x="75.5" y="37.7" width="4.2" height="2" id="mask-2_16_">
							<g class="st34">
								<path id="path-1_17_" class="st0" d="M338.6,165c0,95.9-77.8,173.7-173.7,173.7C68.9,338.7-8.8,260.9-8.8,165
									C-8.8,69,68.9-8.7,164.9-8.7C260.8-8.7,338.6,69,338.6,165"/>
							</g>
						</mask>
						<path id="Fill-102" class="st35" d="M76.6,39.8c-1.6,0-1.8-1,1.6-2c0.5,0.4,1,0.8,1.5,1.1C78.5,39.5,77.4,39.8,76.6,39.8"/>
						<defs>
							<filter id="Adobe_OpacityMaskFilter_16_" filterUnits="userSpaceOnUse" x="53" y="26.3" width="15.1" height="11.8">
								<feColorMatrix  type="matrix" values="1 0 0 0 0  0 1 0 0 0  0 0 1 0 0  0 0 0 1 0"/>
							</filter>
						</defs>
						<mask maskUnits="userSpaceOnUse" x="53" y="26.3" width="15.1" height="11.8" id="mask-2_17_">
							<g class="st36">
								<path id="path-1_18_" class="st0" d="M338.6,165c0,95.9-77.8,173.7-173.7,173.7C68.9,338.7-8.8,260.9-8.8,165
									C-8.8,69,68.9-8.7,164.9-8.7C260.8-8.7,338.6,69,338.6,165"/>
							</g>
						</mask>
						<path id="Fill-103" class="st37" d="M57.3,38.1c-0.5,0-1.3-0.1-2.2-0.4c-0.7-0.5-1.2-1-1.6-1.4c-3.6-5,10.3-10,14.5-10
							c-2.4,1.4-7.7,3.3-8.9,5.5c-0.7,1.3-0.3,3-0.3,4.3C59,37.3,58.8,38.1,57.3,38.1"/>
						<defs>
							<filter id="Adobe_OpacityMaskFilter_17_" filterUnits="userSpaceOnUse" x="61.2" y="13.9" width="56" height="12.1">
								<feColorMatrix  type="matrix" values="1 0 0 0 0  0 1 0 0 0  0 0 1 0 0  0 0 0 1 0"/>
							</filter>
						</defs>
						<mask maskUnits="userSpaceOnUse" x="61.2" y="13.9" width="56" height="12.1" id="mask-2_18_">
							<g class="st38">
								<path id="path-1_19_" class="st0" d="M338.6,165c0,95.9-77.8,173.7-173.7,173.7C68.9,338.7-8.8,260.9-8.8,165
									C-8.8,69,68.9-8.7,164.9-8.7C260.8-8.7,338.6,69,338.6,165"/>
							</g>
						</mask>
						<path id="Fill-104" class="st39" d="M78.2,26c-0.9,0-2-0.1-3.3-0.2c-0.6,0-1.4-0.1-2.3-0.1c-0.8,0-1.7,0-2.6,0
							c-0.9,0-1.9,0-2.9,0c-2,0-4.1-0.1-5.9-0.3c4.9-3.7,10-7.1,15.3-10.2c2.8-0.4,5.3-0.7,6.8-0.9c3.6-0.4,7.4-0.6,11.2-0.6
							c7.6,0,15.4,0.6,22.7,0.6c-10.6,2.3-20.4,3.9-30,8.8C83.1,25.3,81.5,26,78.2,26"/>
						<defs>
							<filter id="Adobe_OpacityMaskFilter_18_" filterUnits="userSpaceOnUse" x="99.8" y="17.1" width="56.3" height="29.3">
								<feColorMatrix  type="matrix" values="1 0 0 0 0  0 1 0 0 0  0 0 1 0 0  0 0 0 1 0"/>
							</filter>
						</defs>
						<mask maskUnits="userSpaceOnUse" x="99.8" y="17.1" width="56.3" height="29.3" id="mask-2_19_">
							<g class="st40">
								<path id="path-1_20_" class="st0" d="M338.6,165c0,95.9-77.8,173.7-173.7,173.7C68.9,338.7-8.8,260.9-8.8,165
									C-8.8,69,68.9-8.7,164.9-8.7C260.8-8.7,338.6,69,338.6,165"/>
							</g>
						</mask>
						<path id="Fill-105" class="st41" d="M113,46.4c-3.5,0-5-4.9-4.2-10.1c0.5-2.9,4.1-8,0.9-10.9c-2.2-2-7.3,0-9.9-2.2
							c9.5-2.9,17.3-5.2,27.2-5.9c3.3-0.2,6.3-0.3,9.3-0.3c6.5,0,12.7,0.5,19.8,1.5c-4.5,4.6-9.5,12.1-15.3,14.8
							c-4.2,2-9.9,1.1-14.1,3.1c-3.2,1.6-6.2,5.2-8.9,7.6C115.9,45.7,114.3,46.4,113,46.4"/>
					</g>
				</g>
				<path id="Path-55" class="st42" d="M21,197c20,49,93,13,143,51s88,42,143-8s93-16,109-49s-34-55-58-83s-18-53-64-69
					s-85,36-138,61S1,148,21,197z"/>
				<g id="Group-19" transform="translate(367.000000, 145.000000)">
					<path id="Fill-82" class="st43" d="M31,71c-7.3,0-14.7-2-21.1-6l0,0l-14.7,1.8L-3,52.1C-7,45.7-9,38.3-9,31
						C-9,20.8-5.1,10.5,2.7,2.7C10.5-5.1,20.8-9,31-9S51.5-5.1,59.3,2.7C67.1,10.5,71,20.8,71,31c0,2.1-0.2,4.3-0.5,6.4
						c-0.4,2.6-1.1,5.1-2,7.5c-0.2,0.4-0.3,0.8-0.5,1.2c-2,4.8-4.9,9.3-8.8,13.1c-3.6,3.6-7.8,6.4-12.2,8.3C42,69.9,36.5,71,31,71"
						/>
					<g id="Group-18" transform="translate(12.799029, 12.000000)">
						<g id="Path">
							<path id="path-3_1_" class="st44" d="M-9,18.9c0,7,2.7,13.9,8,19.2c5.3,5.3,12.3,8,19.2,8s13.9-2.7,19.2-8
								c5.3-5.3,8-12.3,8-19.2c0-7-2.7-13.9-8-19.2c-0.7-0.7-1.4-1.3-2.1-1.9c-5-4.1-11.1-6.1-17.1-6.1c-3,0-6.1,0.5-8.9,1.5
								C5.5-5.5,2-3.4-1-0.4C-6.3,5-9,11.9-9,18.9"/>
						</g>
						<defs>
							<filter id="Adobe_OpacityMaskFilter_19_" filterUnits="userSpaceOnUse" x="-6" y="-12.7" width="63" height="98.7">
								<feColorMatrix  type="matrix" values="1 0 0 0 0  0 1 0 0 0  0 0 1 0 0  0 0 0 1 0"/>
							</filter>
						</defs>
						<mask maskUnits="userSpaceOnUse" x="-6" y="-12.7" width="63" height="98.7" id="mask-4_1_">
							<g class="st45">
								<path id="path-3_2_" class="st0" d="M-9,18.9c0,7,2.7,13.9,8,19.2c5.3,5.3,12.3,8,19.2,8s13.9-2.7,19.2-8
									c5.3-5.3,8-12.3,8-19.2c0-7-2.7-13.9-8-19.2c-0.7-0.7-1.4-1.3-2.1-1.9c-5-4.1-11.1-6.1-17.1-6.1c-3,0-6.1,0.5-8.9,1.5
									C5.5-5.5,2-3.4-1-0.4C-6.3,5-9,11.9-9,18.9"/>
							</g>
						</mask>
						<g id="Group-15" class="st46">
							<g transform="translate(3.000000, -4.000000)">
								<path id="Path_1_" class="st47" d="M2.2,82.2c0,0.1,0,0.1,0,0.2c-0.3,2.5-1.6,5.9-1.6,5.9S-4,89.7-6.3,90
									c-2.3,0.2-3.9-0.9-1.5-2.4c1.7-1,4-3.7,5.3-5.2c0.6-0.7,0.9-1.1,0.9-1.1C-0.3,79.8,2.3,79.9,2.2,82.2z"/>
								<path id="Shape" class="st48" d="M-6.3,90C-6.3,90-6.3,90-6.3,90c2.3-0.2,6.9-1.7,6.9-1.7s0.3-0.8,0.7-2
									c-0.4,1.1-0.7,2-0.7,2S-4,89.7-6.3,90C-6.3,90-6.3,90-6.3,90z"/>
								<path id="Path_2_" class="st49" d="M-6.9,90c-1,0-1.7-0.3-2-0.7c0.2,0,0.4,0,0.6,0c0.2,0,0.4,0,0.6,0
									c0.5-0.1,1.1-0.2,1.8-0.3c3.2-0.7,5.7-3.1,6.5-6.2c0.2,0,0.3,0,0.5,0c0.3,0,0.7,0,1.1-0.2c-0.2,1.2-0.6,2.5-0.9,3.6
									c-0.4,1.1-0.7,2-0.7,2S-4,89.7-6.3,90c0,0,0,0,0,0l0,0c0,0,0,0,0,0c0,0,0,0,0,0c0,0,0,0,0,0C-6.5,90-6.7,90-6.9,90z"/>
								<path id="Path_3_" class="st50" d="M2.2,82.2c-0.8,1-2.3,1.9-3.9,1.4c-0.7-0.3-0.9-0.7-0.9-1.2c0.6-0.7,0.9-1.1,0.9-1.1
									C-0.3,79.8,2.3,79.9,2.2,82.2z"/>
								<path id="Path_4_" class="st49" d="M51.9,90c-0.2,0-0.4,0-0.6,0c-2.3-0.2-6.8-1.7-6.8-1.7s-1.2-3.1-1.6-5.5
									c0.2,0,0.5,0,0.8,0c0.5,0,1.1-0.1,1.7-0.3c0,0.1,0,0.1,0,0.2c0.6,2.8,2.8,5.1,5.6,5.8c1,0.2,2.1,0.5,2.8,0.5
									c0.1,0,0.1-0.1,0.1-0.1c0-0.4-0.3-0.9-1.2-1.4c-0.1,0-0.1-0.1-0.2-0.1c0.1,0,0.1,0.1,0.2,0.1C55,88.9,53.9,90,51.9,90z"/>
								<path id="Path_5_" class="st51" d="M47.6,82.4L47.6,82.4C47.6,82.4,47.6,82.4,47.6,82.4c-0.3-0.4-0.5-0.6-0.7-0.8
									C47.1,81.8,47.3,82.1,47.6,82.4C47.6,82.4,47.6,82.4,47.6,82.4z"/>
								<path id="Path_6_" class="st49" d="M52.6,87.4c-1.6-1.1-3.8-3.5-5-5h0C48.8,83.9,51,86.3,52.6,87.4z"/>
								<path id="Path_7_" class="st52" d="M47.6,82.4h-1.8c0.4-0.2,0.8-0.4,1.2-0.8C47.1,81.8,47.3,82.1,47.6,82.4
									C47.6,82.4,47.6,82.4,47.6,82.4z"/>
								<path id="Path_8_" class="st53" d="M53.9,89.1c-0.7-0.1-1.8-0.3-2.8-0.5c-2.8-0.7-5-2.9-5.6-5.8c0-0.1,0-0.1,0-0.2
									c0.1,0,0.3-0.1,0.4-0.1h1.8c1.2,1.5,3.4,3.9,5,5c0.1,0,0.1,0.1,0.2,0.1c0.9,0.5,1.2,1,1.2,1.4C53.9,89,53.9,89.1,53.9,89.1z
									"/>
								<path id="Path_9_" class="st50" d="M42.8,82.2c0.8,1,2.3,1.9,3.9,1.4c0.7-0.3,0.9-0.7,0.9-1.2c-0.6-0.7-0.9-1.1-0.9-1.1
									C45.3,79.8,42.7,79.9,42.8,82.2z"/>
								<path id="Path_10_" class="st54" d="M47.1,81.5c-1.5,1.9-4.6,1.3-4.6,1.3s-6.9-10-8.1-12c-1.2-2-1.3-6.1-1.3-6.1l-7.4-12.1
									l-2.4,0.1L14.7,65c0,0,0,2.7-1.4,4.8C11.8,71.9,2.5,82.6,2.5,82.6c-2.9,1-4.7-1.3-4.7-1.3c5.1-10,13.7-28.7,17.2-36.3
									c0.9-2.1,1.5-3.3,1.5-3.3l3-0.3l9-1l3.5-0.4c0.3,0.8,0.7,1.8,1.1,2.8C37.7,55.1,47.1,81.5,47.1,81.5z"/>
								<path id="Path_11_" class="st55" d="M-1.3,80.4c0,0,1.3,1.8,4.1,1.2"/>
								<path id="Path_12_" class="st55" d="M42.1,81.6c0,0,2.5,0.5,4.4-0.9"/>
								<path id="Path_13_" class="st56" d="M32.6,42.9c-2.9,0.5-3.8-1.5-4.1-2.5"/>
								<path id="Path_14_" class="st57" d="M24.6,8.6l3.3-3.5c0,0,2.2-2.9,4.1-4.4c1.9-1.5,4.5-4.2,4.5-4.2s4.1-5.2,5.4-5.2
									c1.3,0,1.8,1.3,0.9,2.4C41.9-5.2,41.1-4,41.1-4s1.3-1.5,1.8-1.5c0.4,0-0.2,1.2-1.1,2.6c-0.9,1.4-3.3,2.7-3.3,2.7
									s-3.4,5.7-4.7,7.1C32.4,8.2,31.3,9,31.3,9l-1.5,3C29.8,12.1,25.5,11.5,24.6,8.6z"/>
								<path id="Path_15_" class="st58" d="M26.5,6.6L26,7.1l1.7,4.4c1.2,0.5,2.2,0.6,2.2,0.6l1.5-3C29.5,7.1,27.5,6.7,26.5,6.6z"
									/>
								<path id="Path_16_" class="st57" d="M2.7,35.2l-2,4.3c0,0-1.9,3-2.7,5.4c-0.8,2.3-2.3,5.7-2.3,5.7s-3.4,5.7-3,6.9
									c0.5,1.2,1.8,1.2,2.5,0c0.7-1.2,1.5-2.4,1.5-2.4s-1,1.8-0.8,2.2c0.2,0.4,1-0.6,2-2c1-1.4,1.3-4.1,1.3-4.1s4.1-5.2,5-6.9
									c0.9-1.7,1.2-3,1.2-3l2.3-2.5C7.8,38.9,5.8,35.1,2.7,35.2z"/>
								<path id="Path_17_" class="st58" d="M2.7,35.2l-0.3,0.7c0.2,1,1,4.1,3.1,5.5l2.3-2.5C7.8,38.9,5.8,35.1,2.7,35.2z"/>
								<path id="Path_18_" class="st59" d="M2.3,35.6c0,0,4.6-9,4.8-9.6C7.5,25.4,25.8,6.6,25.8,6.6s4.4,1.1,4.9,5.5l-4.4,6.8
									c0,0,4.6,11.9,5.9,20.9c0,0-6.4,3.6-16.3,2.3c0,0-1.2-4.4-4.2-7l-4.1,4.5C7.8,39.6,4.2,38.5,2.3,35.6z"/>
								<path id="Shape_1_" class="st60" d="M16,42.1c0,0-1.2-4.4-4.2-7l0,0C14.8,37.8,16,42.1,16,42.1z"/>
								<path id="Path_19_" class="st61" d="M12.4,32.8c-0.1,0-0.1,0-0.1-0.1c-1.9-4.9-4.2-6-4.5-6.1l0,0c-0.1,0-0.1-0.1-0.1-0.2
									c0-0.1,0.1-0.1,0.1-0.1c0,0,0,0,0,0c0,0,2.5,1,4.6,6.3C12.5,32.7,12.5,32.8,12.4,32.8C12.4,32.8,12.4,32.8,12.4,32.8z"/>
								<path id="Path_20_" class="st61" d="M26,18.7c0,0-0.1,0-0.1-0.1c-2.1-4.9-5.2-5.5-5.6-5.6l0,0c-0.1,0-0.1-0.1-0.1-0.1
									c0-0.1,0.1-0.1,0.1-0.1c0,0,0,0,0,0c0,0,3.5,0.4,5.8,5.7C26.2,18.5,26.1,18.6,26,18.7C26.1,18.7,26,18.7,26,18.7z"/>
								<path id="Path_21_" class="st47" d="M7.8,16.7c0,0-2.5-0.8-3.2-1.1c-0.7-0.3-1.1-2.4-1.1-2.4s-1.9-0.8-1.7-3
									c0.2-2.3,2.8-3.2,5.2-3c2.4,0.2,3.4-0.9,5.3-0.2c1.9,0.7,2.9,4.6,2.2,9.4C13.8,21.1,7.8,16.7,7.8,16.7z"/>
								<path id="Path_22_" class="st58" d="M11.2,18.9l1.2,2.4c0,0,4.1,0.7,3.9-3.3l-2.5-3.2L11.2,18.9z"/>
								<path id="Path_23_" class="st57" d="M4.7,13.4c0,0,3.3,3.9,5,5.3c1.8,1.4,3.6,0.2,4.1-1.8c0.4-1.9,0.8-3-2.4-6.6
									C8.2,6.7,3.2,11,4.7,13.4z"/>
								<path id="Path_24_" class="st57" d="M12.4,12.3c0,0-0.2-1.7,0.5-2.2c0.7-0.4,1.6,1.7,0.7,3.2C12.6,14.8,12.4,12.3,12.4,12.3
									z"/>
								<path id="Path_25_" class="st47" d="M3.7,12.9c2,0.8,4.3-0.1,5.3-3.1c0,0,1,1.4,1.3,1.4l0,0c0.7,0.1,1.4,0.4,1.9,1l0.3,0.3
									c0,0,0.4-3.9-3.7-4.2C4.7,8.1,3.7,12.9,3.7,12.9z"/>
							</g>
						</g>
					</g>
				</g>
				<g id="Group-19_1_" transform="translate(118.000000, 208.000000)">
					<path id="Fill-82_1_" class="st43" d="M41,91c-9.2,0-18.3-2.5-26.4-7.5l0,0l-18.3,2.2l2.2-18.4C-6.5,59.3-9,50.2-9,41
						C-9,28.2-4.1,15.4,5.6,5.6C15.4-4.1,28.2-9,41-9S66.6-4.1,76.4,5.6C86.1,15.4,91,28.2,91,41c0,2.7-0.2,5.3-0.6,8
						c-0.5,3.2-1.3,6.4-2.5,9.4c-0.2,0.5-0.4,1-0.6,1.5c-2.4,6-6.1,11.6-10.9,16.4c-4.5,4.5-9.7,8-15.2,10.4
						C54.7,89.6,47.9,91,41,91"/>
					<g id="Group-18_1_" transform="translate(15.998786, 15.000000)">
						<g id="Path_26_">
							<path id="path-5_1_" class="st44" d="M-9,25.8c0,8.7,3.3,17.4,10,24c6.6,6.6,15.3,10,24,10s17.4-3.3,24-10
								c6.6-6.6,10-15.3,10-24c0-8.7-3.3-17.4-10-24c-0.8-0.8-1.7-1.6-2.6-2.3C40.2-5.6,32.6-8.2,25-8.2c-3.8,0-7.6,0.6-11.2,1.9
								C9.1-4.6,4.7-2,1,1.8C-5.7,8.4-9,17.1-9,25.8"/>
						</g>
						<defs>
							<filter id="Adobe_OpacityMaskFilter_20_" filterUnits="userSpaceOnUse" x="5" y="1" width="50.9" height="170">
								<feColorMatrix  type="matrix" values="1 0 0 0 0  0 1 0 0 0  0 0 1 0 0  0 0 0 1 0"/>
							</filter>
						</defs>
						<mask maskUnits="userSpaceOnUse" x="5" y="1" width="50.9" height="170" id="mask-6_1_">
							<g class="st62">
								<path id="path-5_2_" class="st0" d="M-9,25.8c0,8.7,3.3,17.4,10,24c6.6,6.6,15.3,10,24,10s17.4-3.3,24-10
									c6.6-6.6,10-15.3,10-24c0-8.7-3.3-17.4-10-24c-0.8-0.8-1.7-1.6-2.6-2.3C40.2-5.6,32.6-8.2,25-8.2c-3.8,0-7.6,0.6-11.2,1.9
									C9.1-4.6,4.7-2,1,1.8C-5.7,8.4-9,17.1-9,25.8"/>
							</g>
						</mask>
						<g id="Group-11" class="st63">
							<g transform="translate(14.000000, 10.000000)">
								<path id="Oval" class="st64" d="M13.9,161c12.7,0,22.9-2,22.9-4.5c0-2.5-10.3-4.5-22.9-4.5s-22.9,2-22.9,4.5
									C-9,158.9,1.3,161,13.9,161z"/>
								<path id="Path-45" class="st57" d="M11.7,142.8c0.3,1.7,0.2,3.2-0.5,4.5c-1,2-13.6,8.1-12.6,9.1c1,1,4.5,0.5,5,1
									c0.5,0.5,2.5,0,3,0c0.5,0,7.6-3,9.1-3c1.5,0,3.5-0.5,3.5-1.5c0-1-1.5-10.1-1.5-13.1C17.7,137.8,15.7,138.8,11.7,142.8z"/>
								<path id="Path-44" class="st65" d="M3.6,57.7c-4.4,7.7-6,15.6-5,23.7c1.5,12.1,7.1,26.7,7.6,31.8s1.5,7.1,1.5,7.6
									c0,0.5,2.5,15.6,2.5,17.1c0,1,0.2,3.2,0.5,6.6c3,0,4.9,0,5.5,0c0.7,0,1.5-0.8,2.5-2.5c-0.7-14.4-1-22.8-1-25.2
									c0-3.5-2-5-2-8.6s1-11.1,0.5-15.6c-0.5-4.5-0.5-8.1-0.5-9.6c0-1,0.2-2.9,0.5-5.5c5.7,6.7,9.2,11.6,10.6,14.6
									c1.3,3,3,6,5,9.1c-3,1.3-4.9,2.9-5.5,4.5c-0.7,1.7-2.4,4.9-5,9.6c1,2.4,1.7,3.5,2,3.5c0.3,0,1,0.2,2,0.5
									c3.4-4,5.7-6.4,7.1-7.1c2-1,9.6-5.5,9.6-7.6s-1.5-5.5-2.5-9.1s-3-19.2-6.6-27.2c-2.4-5.4-5.7-9.4-10.1-12.1L3.6,57.7z"/>
								<path id="Path-46" class="st57" d="M21.7,115.1c-1.3,1.3-2.4,2-3,2c-1,0-4,0-4.5,1c-0.5,1-1,1.5-0.5,4.5s1,3.5,1,5.5
									c0,2,0,7.1,1,8.1c1,1,2.5,2,3,1.5c0.5-0.5-0.5-2.5,0.5-7.1c0.7-3,2.5-7.1,5.5-12.1c-0.7-0.6-1.2-1.1-1.5-1.5
									C22.9,116.7,22.4,116.1,21.7,115.1z"/>
								<path id="Path-43" class="st66" d="M-7,44C0.1,27.9,4.8,19.9,7.1,19.9S8,26.9,2.6,41l-5,3.5L-7,44z"/>
								<path id="Path-40" class="st67" d="M2.1,38c-1.7-2.7-2.2-4.7-1.5-6c0.7-1.3,1.5-2.9,2.5-4.5c2-5.7,3.7-8.9,5-9.6
									c1.3-0.7,4.4-0.8,9.1-0.5c6.4,2,10.4,4,12.1,6s3.7,10.4,6,25.2c-1-1-2-1.7-3-2c-1-0.3-2.2-0.5-3.5-0.5l-2.5-8.6
									c-2.4,3.7-3.5,6-3.5,7.1c0,1.5,0,8.6,1,10.1c0.7,1,1.5,2.4,2.5,4c-1.7,0.3-2.9,0.5-3.5,0.5c-1,0-5.5,4.5-12.6,3
									c-4.7-1-7.7-2.7-9.1-5c2-2,3-3.7,3-5c0-1.3,0-4.5,0-9.6L2.1,38z"/>
								<path id="Path-38" class="st68" d="M22.2,9.3c0,3.7,1.3,5.5,4,5.5c4,0,2.5-1,6-2.5c3.5-1.5,5-4.5,3-8.6c-2-4-8.6-5-10.6-1.5
									C23.4,4.6,22.6,6.9,22.2,9.3z"/>
								<path id="Path-37" class="st69" d="M7.6,7.8C7.5,7.7,7.5,7.7,7.4,7.6c-3.8-2.4-4.6-6-2.3-11c2.4-5,6.9-6.7,13.6-5
									c4.4,1,6.7,3,7.1,6c0.5,4.5,0.5,8.6-2,11.1c-1.7,1.7-4,1.8-7.1,0.5l-6.6-8.6l1,7.1L7.6,8.3"/>
								<path id="Path-42" class="st70" d="M-8,45.6c0.3-2.4,1.2-3.5,2.5-3.5s3.2-0.3,5.5-1C2.4,36.3,3.9,34,4.6,34S5.4,37.3,5.1,44
									c-0.3,1.3-1.5,2.4-3.5,3c-3,1-7.6,1.5-8.6,1C-7.7,47.7-8,46.9-8,45.6z"/>
								<path id="Path-39" class="st58" d="M11.7,12.3c0.3,2,0.2,4.4-0.5,7.1c-1,4-2,4,0,4s9.1-3.5,9.1-5c0-1,0-3.7,0-8.1L11.7,12.3
									z"/>
								<path id="Path-36" class="st57" d="M8.6,6.8c-0.7-3-0.3-5.5,1-7.6s3.9-3.2,7.6-3.5c-0.3,2-0.2,3.5,0.5,4.5c1,1.5,4,4,4,4.5
									c0,0.3-0.2,1.5-0.5,3.5c1.7-2.4,3.2-2.9,4.5-1.5c2,2-1.5,4.5-3.5,4.5c-1.3,0-1.8,0-1.5,0c-2,1.3-3.7,2.4-5,3
									c-1.3,0.7-2.5,1-3.5,1c-2.7-1.7-4.2-3.4-4.5-5S7,7.1,6.6,5.7L8.6,6.8z"/>
								<path id="Path-41" class="st57" d="M31,44.4c-5.7,1-10.2,1.3-13.6,1c-5-0.5-8.1-2-8.1-2.5c0-0.5-0.5-6-0.5-7.1
									c0-0.7-0.7-2.4-2-5c-0.7,0.3-1,0.7-1,1c0,0.5-1,1.5-1,2c0,0.5-1,1.5-1.5,3.5s0.5,6,0.5,6.6c0,0.3,1,1.3,3,3c3,2,5.2,3,6.6,3
									c2,0,16.1,1.5,18.1,1.5c2,0,4.5-1,4-4C35.2,45.4,33.7,44.4,31,44.4z"/>
							</g>
						</g>
					</g>
				</g>
				<g id="Group-19_2_" transform="translate(243.000000, 0.000000)">
					<path id="Fill-82_2_" class="st43" d="M41,91c-9.2,0-18.3-2.5-26.4-7.5l0,0l-18.3,2.2l2.2-18.4C-6.5,59.3-9,50.2-9,41
						C-9,28.2-4.1,15.4,5.6,5.6C15.4-4.1,28.2-9,41-9S66.6-4.1,76.4,5.6C86.1,15.4,91,28.2,91,41c0,2.7-0.2,5.3-0.6,8
						c-0.5,3.2-1.3,6.4-2.5,9.4c-0.2,0.5-0.4,1-0.6,1.5c-2.4,6-6.1,11.6-10.9,16.4c-4.5,4.5-9.7,8-15.2,10.4
						C54.7,89.6,47.9,91,41,91"/>
					<g id="Group-18_2_" transform="translate(15.998786, 15.000000)">
						<g id="Path_27_">
							<path id="path-7_1_" class="st44" d="M-9,25.8c0,8.7,3.3,17.4,10,24c6.6,6.6,15.3,10,24,10s17.4-3.3,24-10
								c6.6-6.6,10-15.3,10-24c0-8.7-3.3-17.4-10-24c-0.8-0.8-1.7-1.6-2.6-2.3C40.2-5.6,32.6-8.2,25-8.2c-3.8,0-7.6,0.6-11.2,1.9
								C9.1-4.6,4.7-2,1,1.8C-5.7,8.4-9,17.1-9,25.8"/>
						</g>
						<defs>
							<filter id="Adobe_OpacityMaskFilter_21_" filterUnits="userSpaceOnUse" x="7" y="1" width="55.2" height="110.7">
								<feColorMatrix  type="matrix" values="1 0 0 0 0  0 1 0 0 0  0 0 1 0 0  0 0 0 1 0"/>
							</filter>
						</defs>
						<mask maskUnits="userSpaceOnUse" x="7" y="1" width="55.2" height="110.7" id="mask-8_1_">
							<g class="st71">
								<path id="path-7_2_" class="st0" d="M-9,25.8c0,8.7,3.3,17.4,10,24c6.6,6.6,15.3,10,24,10s17.4-3.3,24-10
									c6.6-6.6,10-15.3,10-24c0-8.7-3.3-17.4-10-24c-0.8-0.8-1.7-1.6-2.6-2.3C40.2-5.6,32.6-8.2,25-8.2c-3.8,0-7.6,0.6-11.2,1.9
									C9.1-4.6,4.7-2,1,1.8C-5.7,8.4-9,17.1-9,25.8"/>
							</g>
						</mask>
						<g id="Group-22" class="st72">
							<g transform="translate(16.000000, 10.000000)">
								<path id="Path_28_" class="st73" d="M-7.7,35.8c0,0-1.3,8.7-1.3,19.8c0,9.4,0.9,20.4,4.3,29c3.4,8.7,9.3,15,19.3,15
									c11.8,0,19.7-5.9,24.7-14.7c4.9-8.8,6.9-20.5,6.9-32.1c0-7.9-0.9-15.7-2.5-22.6c0-0.1-0.1-0.1-0.1-0.1
									c-0.1,0-0.1,0.1-0.1,0.1c1.5,6.9,2.5,14.7,2.5,22.6c0,11.6-2,23.3-6.9,32c-4.9,8.7-12.7,14.6-24.4,14.6
									c-9.8,0-15.6-6.3-19-14.9c-3.4-8.6-4.3-19.6-4.3-29c0-5.5,0.3-10.4,0.6-14c0.2-1.8,0.3-3.2,0.4-4.2c0.1-1,0.2-1.5,0.2-1.5
									c0-0.1,0-0.1-0.1-0.1C-7.7,35.7-7.7,35.7-7.7,35.8z"/>
								<path id="Path_29_" class="st74" d="M17.4,48.9c-0.3,1.7-0.8,3.5-1.3,5.4c-1.7,6.2-4,12.6-4,12.6s0.7,0.9,1.2,3.3
									c0.5,2.4,1.2,15.9,1.2,15.9s0.2,0.2,0.5,0.5c0.4,0.4,0.8,0.9,0.8,1.2c0.1,0.6-0.4,2.6-1,5.9c-0.6,3.3-1.4,7.7-3.1,6.8
									c-0.9-0.5-1-3.6-0.9-6.6c0.1-2.6,0.3-5.2,0.2-6C10.8,86,5.2,67.3,5.2,67.3c-0.5-4.6-0.2-10,0.3-15
									c0.9-8.7,2.7-16.3,2.7-16.3l9.4-0.5C17.5,35.4,18.8,41.7,17.4,48.9z"/>
								<g id="Clipped" transform="translate(17.888530, 44.587541)">
									<g id="Path_30_">
									</g>
									<defs>
										<filter id="Adobe_OpacityMaskFilter_22_" filterUnits="userSpaceOnUse" x="-8.7" y="-9" width="5" height="58.6">
											<feColorMatrix  type="matrix" values="1 0 0 0 0  0 1 0 0 0  0 0 1 0 0  0 0 0 1 0"/>
										</filter>
									</defs>
									<mask maskUnits="userSpaceOnUse" x="-8.7" y="-9" width="5" height="58.6" id="mask-10_1_">
										<g class="st75">
											<path id="path-9_1_" class="st0" d="M-6.1,49.7c0.1-2,0.2-4.3,0.1-6.4c-0.1-3.1-2.7-20.1-2.7-20.1
												c-0.1-2.3,0.4-8,0.9-13.2l0-0.1c0.4-4.9,0.9-9.3,0.9-9.6l0,0c-0.4-4.1,0.3-8.7,0.3-8.7s0.3-0.2,0.7-0.4L-3.7-9
												c-0.5,0.3-0.9,0.5-0.9,0.5s-0.6,4.6-0.3,8.7l0,0c0,0.3-0.5,4.6-0.9,9.6l0,0.1c-0.5,5.2-0.9,10.9-0.9,13.2
												c0,0,2.6,17.1,2.7,20.1c0,1,0,2,0,3c-0.5,1.6-1,3-1.6,3.2C-5.8,49.6-5.9,49.6-6.1,49.7z"/>
										</g>
									</mask>
									<rect id="Rectangle" x="-8.7" y="-9" class="st76" width="5" height="58.6"/>
								</g>
								<path id="Path_31_" class="st77" d="M17.4,48.9c-0.3,1.7-0.5,3.6-1.1,5.5c-4.4,0.8-9.2-1-11.2-2.1C6,43.5,8.2,35.9,8.2,35.9
									l9.4-0.5C17.5,35.4,18.8,41.7,17.4,48.9z"/>
								<path id="Path_32_" class="st78" d="M10.3,40.9c0,0,1.3,3.1,2.6,4"/>
								<path id="Path_33_" class="st79" d="M12,100.7c-0.1,0-0.3,0-0.4-0.1c-0.7-0.4-0.9-2.4-0.9-4.7c0-0.6,0-1.3,0-2
									c0.2,0.2,0.5,0.3,0.9,0.3c0.1,0,0.2,0,0.3,0c0,0.1,0,0.2,0,0.3C11.7,97.1,11.6,99.4,12,100.7
									C11.9,100.7,11.9,100.7,12,100.7c0.7,0,1.2-1,1.6-2.3v0c-0.1,0.4-0.2,0.7-0.4,1c0,0.1-0.1,0.2-0.1,0.2
									C12.8,100.3,12.4,100.7,12,100.7z"/>
								<path id="Path_34_" class="st80" d="M12,100.7C11.9,100.7,11.9,100.7,12,100.7c-0.4-1.2-0.3-3.5-0.2-6.1c0-0.1,0-0.2,0-0.3
									c0.1,0,0.3-0.1,0.5-0.1c0.6-0.2,1.1-1.6,1.6-3.2c0,1.2-0.1,2.4-0.1,3.6c-0.1,1.3-0.1,2.6-0.1,3.6c0,0.1,0,0.1,0,0.2
									C13.2,99.7,12.7,100.7,12,100.7z"/>
								<path id="Path_35_" class="st74" d="M24.4,49.4c-0.2,1.5-0.5,3-0.8,4.4l0,0.1c-1.8,8.3-5,14.6-5,14.6s1,2.4,1,6.2
									c0,3.8-1.9,14.6-1.9,14.6s0.1,0,0.2,0.1c0.3,0.2,0.9,0.6,0.8,1.6c-0.1,1.3-2.1,10.8-4,10.7c-1.2-0.1-1.1-3.2-0.9-7.1
									c0.1-2.1,0.2-4.4,0.1-6.6c-0.1-3.1-2.7-20.1-2.7-20.1c-0.1-2.3,0.4-8,0.9-13.2l0-0.1c0.4-4.9,0.9-9.3,0.9-9.6l0,0
									c-0.4-4.1,0.3-8.7,0.3-8.7s3-1.6,3.2-1.6c0.1,0,1.4-0.2,2.9-0.4c2.1-0.3,4.7-0.6,4.7-0.6l0,0c0,0.2,0.5,1.7,0.8,4.5
									C25,40.7,25.1,44.5,24.4,49.4z"/>
								<path id="Path_36_" class="st79" d="M14.6,101.7C14.6,101.7,14.6,101.7,14.6,101.7c-0.8,0-1-1.3-1.1-3.3c0-0.1,0-0.1,0-0.2
									c0-1.1,0.1-2.3,0.1-3.6c0.2,0.2,0.5,0.4,0.8,0.4c0.9,0,2-1.4,3.4-5.6c0.3,0.2,0.8,0.5,0.8,1.4c0,0.1,0,0.1,0,0.2
									c-0.1,0.7-0.6,3.5-1.4,6.1C16.5,99.5,15.6,101.7,14.6,101.7z"/>
								<path id="Path_37_" class="st77" d="M24.7,49.2c-0.2,1.5-0.4,3.1-0.7,4.5c-0.1,0-0.2,0.1-0.4,0.1c-0.3,0.1-0.6,0.1-0.9,0.2
									l-0.5-2.4l-0.8,2.6c-2.4,0.4-5.7,0.6-9.4,0.2c-0.2,0-0.3,0-0.5-0.1c0.4-4.9,1.4-9.3,1.4-9.6l0,0c-1.7-6.2,0.3-8.7,0.3-8.7
									s3-1.6,3.2-1.6c0.1,0,1.4-0.2,2.9-0.4c2.1-0.3,4.7-0.6,4.7-0.6l0,0c0.1,0.2,0.6,1.7,0.9,4.5C25.2,40.6,25.3,44.4,24.7,49.2z
									"/>
								<path id="Path_38_" class="st78" d="M24.3,38.1c-3.1,0.2-4.4-2.1-4.8-3.5"/>
								<path id="Path_39_" class="st78" d="M22.7,37.9c0,0,0.2,4.2-0.3,12.4"/>
								<path id="Path_40_" class="st57" d="M-0.3,35.2c0,0-0.1,0.9-0.6,1.4c-0.6,0.5-2.3,1.1-2.3,1.1l-3.2-2.4c0,0,2.2-1.8,2.8-1.9
									c0.6,0,3.7,0.6,3.7,0.6l0,0.2C0,34.6-0.1,34.9-0.3,35.2z"/>
								<path id="Path_41_" class="st47" d="M-0.6,36.6h-6.7c-0.4,0-0.8-0.4-0.8-0.8c0-0.4,0.4-0.8,0.8-0.8h6.7
									c0.4,0,0.8,0.4,0.8,0.8C0.2,36.3-0.1,36.6-0.6,36.6z"/>
								<path id="Path_42_" class="st57" d="M5.7,11.7c0,0-1.6,0.6-2.1,2.3c-0.5,1.8-0.4,13.1-0.4,13.1l-6.4,5.6l2.6,1.8
									c0,0,7.8-4.2,8.6-5c0.7-0.8,0.1-15.2-0.1-16C7.8,12.6,6.4,11.8,5.7,11.7z"/>
								<path id="Path_43_" class="st57" d="M-5.9,35.2c-0.8,0.2-1.9,2.6-0.4,2.5c0,0,0.9,1,2.2,0.9c1.3-0.1,2.1-1.2,2-1.7
									C-2,36.4-4.5,34.8-5.9,35.2z"/>
								<path id="Shape_2_" class="st81" d="M-3.7,35.6c-0.5-0.2-1.1-0.4-1.6-0.4c-0.2,0-0.3,0-0.5,0.1c0.2,0,0.3-0.1,0.5-0.1
									C-4.9,35.2-4.3,35.4-3.7,35.6z"/>
								<path id="Path_44_" class="st79" d="M-3.8,37.6c-1.2,0-2.1-0.9-2.1-0.9c0,0-0.1,0-0.1,0c-0.5,0-0.6-0.3-0.6-0.7c0,0,0,0,0,0
									c0.2-0.3,0.5-0.6,0.7-0.7h0c0,0,0,0,0,0c0,0,0,0,0,0c0,0,0,0,0,0c0,0,0,0,0,0c0,0,0,0,0,0c0,0,0,0,0,0h0c0,0,0,0,0,0
									c0.2,0,0.3-0.1,0.5-0.1c0.5,0,1.1,0.2,1.6,0.4c0.8,0.4,1.5,0.9,1.7,1.2c-0.3,0.4-0.9,0.7-1.6,0.8
									C-3.7,37.6-3.7,37.6-3.8,37.6z"/>
								<path id="Path_45_" class="st57" d="M-2.3,32.8c-0.1,0-0.8-0.1-0.8-0.1s-1.5,0.5-2.1,0.9C-5.8,34-7.1,36-7.3,36.5
									c-0.2,0.4,1.3,0.2,1.9-0.6c0.6-0.7,1.1-1.2,1.1-1.2s2.1,0.2,3.1-0.9C-0.1,32.7-2.3,32.8-2.3,32.8z"/>
								<path id="Path_46_" class="st57" d="M7.9,8.1l0.2,1.5l-2.5,2.1c0,0-1.4,8.6,3.3,8.3c4.7-0.3,9.5-10.8,9.5-10.8l-6-0.8
									l-1.3-4.4L7.9,8.1z"/>
								<path id="Path_47_" class="st82" d="M6.7,10.7c-0.6,0.4-1.2,0.7-1.6,1.3c0,0-0.7,3.8-1.4,6.5c-0.7,2.6-1.2,5.7,1.4,7.9
									c0,0,3,5,2.9,9.6c0,0,8.5,2.5,15.8-2.4c0,0-0.7-2.8-1.1-10.4c-0.2-6.2-1.3-11.5-1.7-13.3c-0.1-0.4-0.4-0.7-0.8-0.8l-2.6-0.3
									c-0.5-0.1-1,0.2-1.2,0.6c-0.4,0.6-1.1,1.8-2.2,3.9c-2.2,3.9-3.6,4.7-5.9,4.9C6.2,18.2,5.2,14.2,6.7,10.7z"/>
								<path id="Path_48_" class="st57" d="M36.1,32.4c0,0,0.4,0.8,1.1,1.1c0.7,0.3,2.5,0.2,2.5,0.2l2.2-3.3c0,0-2.7-0.9-3.3-0.8
									c-0.5,0.2-3.3,1.8-3.3,1.8l0.1,0.2C35.6,31.9,35.8,32.1,36.1,32.4z"/>
								<path id="Path_49_" class="st47" d="M36.8,33.6l6.3-2.3c0.4-0.2,0.6-0.6,0.5-1c-0.2-0.4-0.6-0.6-1-0.5l-6.3,2.3
									c-0.4,0.2-0.6,0.6-0.5,1C35.9,33.5,36.4,33.7,36.8,33.6z"/>
								<path id="Path_50_" class="st57" d="M20.3,9.2c0,0,1.2-0.3,2.3,1.2c1.1,1.5,6.1,12.3,6.1,12.3l9.1,6.4L36,31.6
									c0,0-10.4-4.1-11.4-4.5c-1-0.5-5.7-8.4-6.5-12.4C17.5,11.5,19.7,9.4,20.3,9.2z"/>
								<path id="Path_51_" class="st74" d="M41.3,30.4c0.8-0.1,2.7,1.8,1.2,2.2c0,0-0.5,1.2-1.8,1.6c-1.3,0.4-2.4-0.4-2.5-0.9
									S39.8,30.5,41.3,30.4z"/>
								<path id="Shape_3_" class="st81" d="M38.7,32.3c0.5-0.7,1.4-1.5,2.2-1.8C40.1,30.8,39.2,31.6,38.7,32.3z"/>
								<path id="Path_52_" class="st79" d="M39.1,33.4c-0.3,0-0.6-0.1-0.9-0.2c0-0.2,0.2-0.6,0.5-0.9c0.5-0.7,1.4-1.5,2.2-1.8
									c0,0,0,0,0,0c0,0,0,0,0,0c0,0,0,0,0,0l0,0c0,0,0,0,0,0l0,0c0,0,0,0,0,0c0,0,0,0,0,0c0,0,0,0,0,0c0,0,0,0,0,0c0,0,0,0,0,0
									c0,0,0,0,0,0c0,0,0,0,0,0c0,0,0,0,0,0c0,0,0,0,0,0c0,0,0,0,0,0c0,0,0,0,0,0c0,0,0,0,0,0c0,0,0,0,0,0c0,0,0,0,0,0
									c0,0,0,0,0,0c0,0,0,0,0,0h0c0,0,0,0,0,0c0.1,0,0.1,0,0.2,0h0c0,0,0,0,0,0h0c0,0,0,0,0,0h0c0,0,0,0,0,0h0c0,0,0,0,0,0h0
									c0,0,0,0,0,0h0c0,0,0,0,0,0h0c0,0,0,0,0,0h0c0,0,0,0,0,0c0,0,0,0,0,0c0,0,0,0,0,0c0,0,0,0,0,0c0.2,0,0.4,0.1,0.6,0.2
									c0.3,0.4,0.2,0.9-0.4,1c0,0-0.5,1.2-1.8,1.6C39.6,33.4,39.3,33.4,39.1,33.4z"/>
								<path id="Path_53_" class="st57" d="M37.1,29.4c0.1,0,0.7-0.4,0.7-0.4s1.6,0,2.3,0.1c0.6,0.1,2.6,1.6,3,1.9
									c0.4,0.3-1.2,0.6-2,0.2c-0.8-0.5-1.5-0.7-1.5-0.7s-1.8,0.9-3.2,0.3C35,30.1,37.1,29.4,37.1,29.4z"/>
								<path id="Path_54_" class="st77" d="M3.6-3.2c0,0-1.9-1-1.5-2.8c0.4-1.9,2.2-1.8,3.1-1.7c0,0,0.8-1.5,2.6-1.3
									c1.9,0.2,2,1.8,2,1.8s1.4-0.1,2,1.3c0.6,1.5,0,3.1-3.4,3.1C5.1-2.8,3.6-3.2,3.6-3.2z"/>
								<path id="Path_55_" class="st83" d="M3-3.3c0,0,0.3-2.2,2.9-2.5s3.4,1.9,3.4,2C9.4-3.8,6.7-6.3,3-3.3z"/>
								<path id="Path_56_" class="st57" d="M3.7,3.7c0,0-1.7,0-0.5,1.9c1.1,1.7,2.1,0.8,2.1,0.8L3.7,3.7z"/>
								<path id="Path_57_" class="st57" d="M4.7-1.4c-2,1.2-2.5,3.7-0.9,6.6s4.2,3.9,5.9,3.1c1.6-0.8,2.1-6.3,0-8.6
									C7.6-2.6,4.7-1.4,4.7-1.4z"/>
								<path id="Path_58_" class="st77" d="M3.6,4.7c0,0-1-0.9-1.6-1.7c0,0-1.9-0.2-2.5-2.4c-0.6-2.2,0.3-4,2.8-3.7
									c0,0,1.8-2.1,5-1.9c3.2,0.1,3.5,1.5,3.5,1.5s2.1,0.4,2.4,2.1c0.3,1.7,1.3,2.9,0.4,3.8c-0.8,0.9-2.4,1.2-2.4,1.2l-0.7,0.2
									L9.8,1.4c0,0-1.4,0.7-2.7-1.8c0,0-1.4,0.1-2.3,1.1c0,0-1.2,0-1.6,0.4C3.3,1.2,2.8,2.9,3.6,4.7z"/>
								<path id="Path_59_" class="st57" d="M10.4,2.2c0,0-0.4-1.4,0.9-1.5c1.3-0.1,1.3,3.6-0.5,3.9L10.4,2.2z"/>
							</g>
						</g>
					</g>
				</g>
				
					<g id="Group-19_3_" transform="translate(50.000000, 141.000000) scale(-1, 1) translate(-50.000000, -141.000000) translate(0.000000, 91.000000)">
					<path id="Fill-82_3_" class="st43" d="M59,91c-9.2,0-18.3-2.5-26.4-7.5l0,0l-18.3,2.2l2.2-18.4C11.5,59.3,9,50.2,9,41
						c0-12.8,4.9-25.6,14.6-35.4C33.4-4.1,46.2-9,59-9S84.6-4.1,94.4,5.6C104.1,15.4,109,28.2,109,41c0,2.7-0.2,5.3-0.6,8
						c-0.5,3.2-1.3,6.4-2.5,9.4c-0.2,0.5-0.4,1-0.6,1.5c-2.4,6-6.1,11.6-10.9,16.4c-4.5,4.5-9.7,8-15.2,10.4
						C72.7,89.6,65.9,91,59,91"/>
					<g id="Group-18_3_" transform="translate(15.998786, 15.000000)">
						<g id="Path_60_">
							<path id="path-11_1_" class="st44" d="M9,25.8c0,8.7,3.3,17.4,10,24c6.6,6.6,15.3,10,24,10s17.4-3.3,24-10
								c6.6-6.6,10-15.3,10-24c0-8.7-3.3-17.4-10-24c-0.8-0.8-1.7-1.6-2.6-2.3C58.2-5.6,50.6-8.2,43-8.2c-3.8,0-7.6,0.6-11.2,1.9
								C27.1-4.6,22.7-2,19,1.8C12.3,8.4,9,17.1,9,25.8"/>
						</g>
						<defs>
							<filter id="Adobe_OpacityMaskFilter_23_" filterUnits="userSpaceOnUse">
								<feColorMatrix  type="matrix" values="1 0 0 0 0  0 1 0 0 0  0 0 1 0 0  0 0 0 1 0"/>
							</filter>
						</defs>
						<mask maskUnits="userSpaceOnUse" id="mask-12_1_">
							<g class="st84">
								<path id="path-11_2_" class="st0" d="M9,25.8c0,8.7,3.3,17.4,10,24c6.6,6.6,15.3,10,24,10s17.4-3.3,24-10
									c6.6-6.6,10-15.3,10-24c0-8.7-3.3-17.4-10-24c-0.8-0.8-1.7-1.6-2.6-2.3C58.2-5.6,50.6-8.2,43-8.2c-3.8,0-7.6,0.6-11.2,1.9
									C27.1-4.6,22.7-2,19,1.8C12.3,8.4,9,17.1,9,25.8"/>
							</g>
						</mask>
						<g id="Group-21" class="st85">
							<g id="Path_61_" transform="translate(-3.000000, 10.000000)">
								<path class="st59" d="M17.6,77.8c0,0-1.1,2.2-3.4,3.8c-2.3,1.5-3.9,1.9-4.6,2.4c-0.2,0.2-0.4,0.5-0.5,0.8
									c-0.3,0.9,0.3,1.8,1.3,1.8l13.6-0.4c0.6,0,1.1-0.5,1.1-1.1c0-1.6,0.1-4.7-0.2-7C24.4,74.9,19.5,76.6,17.6,77.8z"/>
								<path class="st86" d="M17.1,78.6c0.1-0.1,0.2-0.3,0.2-0.4h0C17.3,78.3,17.2,78.5,17.1,78.6z"/>
								<path class="st87" d="M25.1,83.8c-4.3-0.6-6.9-3.7-8-5.2c0.1-0.1,0.2-0.3,0.2-0.4c0.9,0.4,2.4,1,4.2,1c1,0,2.2-0.2,3.3-0.8
									C25.1,80.2,25.1,82.2,25.1,83.8z"/>
								<path class="st54" d="M38.1,39.3c0,0-15.1,7.6-17.7,11c-2.6,3.3-3.8,27.6-3.8,27.6s4.7,3.1,9,0.2l4.1-19.3
									c0,0,14.7-5.4,19.2-7.9c4.5-2.5,4.2-12.5,4.2-12.5L38.1,39.3z"/>
								<path class="st88" d="M47.1,40.2c0,0-4,4.5-4.9,4.8c-0.6,0.3-7.3,3.4-13.8,8.7c-1.5,1.2-2.9,2.6-3.2,4.5l-2.2,19.3"/>
								<path class="st89" d="M19.9,75.3c1.5,0.2,3.5,0.3,5.5-0.4"/>
								<path class="st90" d="M17.5,74.7c0,0,0.9,0.4,2.4,0.6"/>
								<path class="st59" d="M41.4,78.9c0,0-0.2,2.5-1.6,5c-1.4,2.5-2.8,4.1-2.9,5c-0.2,0.9,3.1,1.7,4.8,0.9
									c1.7-0.8,3.8-3.2,5.4-4.7c1.7-1.4,2.7-2.5,3.1-3.7c0,0-0.9-2.9-2.9-5.3C45.3,73.8,42.6,75.7,41.4,78.9z"/>
								<path class="st86" d="M41.2,80.2L41.2,80.2c0-0.2,0.1-0.4,0.1-0.6h0C41.3,79.8,41.3,80,41.2,80.2z"/>
								<path class="st87" d="M45.9,82.2c-2.9,0-4.1-1.2-4.6-2c0-0.2,0.1-0.4,0.1-0.6c1.2-0.2,4.6-1,6.3-3c1.8,2.3,2.6,4.8,2.6,4.8
									C48.5,82,47.1,82.2,45.9,82.2z"/>
								<path class="st54" d="M46.5,41.3c0,0-14.7,9.2-16.7,13.4c-2.5,5.2,11.2,25,11.2,25s5.5-0.8,7.2-3.8c0,0-2.2-10.8-4.2-17.1
									c0,0,14.4-7.1,17.1-10c2.7-2.9,1.7-9.7,0.8-12.1C61,34.2,46.5,41.3,46.5,41.3z"/>
								<path class="st91" d="M57.2,37.8l0,0.2c0,0.2,0,0.4,0,0.6c0,2-1,3.8-2.6,4.9c-3.8,2.5-10.2,6.7-13.9,8.9
									c-1.4,0.9-2.2,2.3-2.2,3.9c0,0.5,0.1,1,0.2,1.4c0.9,2.8,2.3,6.9,3.4,10.6c0.6,1.8,1.1,3.6,1.5,4.9c0.4,1.4,0.7,2.4,0.8,2.9
									c0,0.2,0.2,0.3,0.4,0.2c0.2,0,0.3-0.2,0.2-0.4c-0.1-0.5-0.4-1.5-0.8-2.9c-1.3-4.1-3.6-11.4-5-15.5c-0.1-0.4-0.2-0.8-0.2-1.2
									c0-1.3,0.7-2.6,1.9-3.4c3.7-2.3,10.1-6.4,13.9-8.9c1.8-1.2,2.9-3.2,2.9-5.4c0-0.2,0-0.4,0-0.6l0-0.2c0-0.2-0.2-0.3-0.3-0.3
									C57.3,37.4,57.1,37.6,57.2,37.8z"/>
								<path class="st90" d="M40,75.2c0,0,4.3-0.3,6.2-2.8"/>
								<path class="st92" d="M10.2,44.8c0,0,5.1-5.2,6.2-6c1.1-0.7,12.3-4.4,12.3-4.4l2.1-7l8.4,2c0,0-3.9,9.9-4.5,10.6
									c-0.6,0.7-15.9,3-15.9,3s-1.1,2.8-2.8,3c-0.8,0.1-1.9-0.3-2.7-0.6c-0.8-0.3-1.8-0.2-2.5,0.3c-0.4,0.3-0.7,0.4-0.8,0.4
									C9.6,46.1,9.1,45.8,10.2,44.8z"/>
								<path class="st73" d="M15.9,46c0.1,0,0.2,0,0.3-0.1l0.1,0l0.2-0.1l0.1-0.1l0.1-0.1l0.1-0.1l0.1-0.1l0.1-0.1l0.1-0.1
									c0.2-0.2,0.4-0.4,0.5-0.6c0,0-4.8-1.2-5.7,0.4l0,0c0.4,0,0.8,0,1.2,0.2c0.4,0.2,0.9,0.3,1.4,0.4c0.2,0.1,0.5,0.1,0.7,0.1
									C15.5,46,15.7,46,15.9,46L15.9,46z"/>
								<path class="st93" d="M29.6,28.6l9.7,2.4l2.3-15.2L38.6,11c-3.6,1.4-4.8,4.4-5.8,7.5L29.6,28.6z"/>
								<polygon class="st94" points="37.2,30.5 35,29.9 37.2,30.5 								"/>
								<path class="st95" d="M37.2,30.5L35,29.9c-0.4-6.7,1.8-15.8,1.8-15.9C36.7,17.7,36.9,25.8,37.2,30.5z"/>
								<path class="st93" d="M41.9,8.7c-0.2,0.1-4.6,3-4.9,3.4c-0.3,0.3-0.2,12.4,0.2,18.5c0.4,6.1,0.9,8.8,0.9,8.8
									s12.7,1.8,24.7-2.2c0,0-2.8-19.7-3.4-23.4C58.6,10,57.5,8,57.5,8s-8.3-1.8-8.8-2C48.2,5.8,44.1,6.6,41.9,8.7z"/>
								<path class="st95" d="M54.6,39c-0.2-4.6-0.6-14.9-0.9-21.6l3-2.9l4.5,11.8c0.8,5.4,1.5,10.4,1.5,10.7c0,0,0,0,0,0
									c0,0,0,0,0,0v0c0,0,0,0,0,0v0c0,0,0,0,0,0c0,0,0,0,0,0c0,0,0,0,0,0C60,38,57.3,38.6,54.6,39z"/>
								<path class="st96" d="M42,6.7c0,0,0.5,3.5,0.4,3.7c-0.1,0.2,1,2.8,2.8,2.6c1.8-0.2,4.3-5.1,4.3-5.1S47.4,2,47.1,0.2
									C46.8-1.6,41.6,3.4,42,6.7z"/>
								<path class="st92" d="M37.7-7.1c-3.1,1-3,4.2-2,9.2c1,5,3.3,7.7,6.7,6.6c3.3-1.1,3.9-4.6,3.6-8.8
									C45.7-4.3,44.2-9.3,37.7-7.1z"/>
								<path class="st69" d="M35-2.9c0,0,0.7-0.7,2-0.1c1.3,0.6,1.7-1.1,2.9-1.6c1.2-0.5,2.9-0.3,3.1,1.5c0.2,1.7,1.7,1.6,1.7,1.6
									l0.4,2.9L45.7,1l1.6-1.6c0,0,0.9-3.3-1.4-6.4C43.5-10,35.2-10.3,35-2.9z"/>
								<path class="st92" d="M45.3-0.5c0,0-0.2-1.7,1.3-1.8c1.5-0.1,1.4,3.9-0.8,4.6C45.2,2.5,45.3-0.5,45.3-0.5z"/>
								<path class="st47" d="M46.7,40.5c0,2.5-2,4.6-4.6,4.6s-4.6-2-4.6-4.6c0-2.5,2-4.6,4.6-4.6S46.7,37.9,46.7,40.5z"/>
								<path class="st92" d="M57.5,8c-3-0.6-4.2,7-3.9,8.7c0.3,1.7,5.3,11,5.3,11s-3.4,1.7-5.4,4c-2.1,2.3-4.3,3.5-4.3,3.5
									s-2.9-2.9-3.7-2.8c-0.8,0.1-2.8,1.4-3.3,2.2c-0.5,0.7-1.3,3.4-0.9,4.2c0.3,0.8,3.6,2.5,4.4,2.6c0.8,0.1,4.8-1,4.8-1
									s9.1-2.8,12.3-4.9c3.2-2,5.6-6.4,5.5-7.4C68.2,27,63.3,9.1,57.5,8z"/>
								<path class="st93" d="M57,26.9c0,0,5.6-0.7,10.6-5.3c0,0-4.9-12.9-10.1-13.7c-5.2-0.8-4.3,9.3-4.3,9.3L57,26.9z"/>
								<path class="st47" d="M51.4,32.4c0,2.7-2.2,4.8-4.8,4.8c-2.7,0-4.8-2.2-4.8-4.8c0-2.7,2.2-4.8,4.8-4.8
									C49.2,27.5,51.4,29.7,51.4,32.4z"/>
								<path class="st97" d="M47.9,29.5c0,0.5-0.4,0.9-0.9,0.9s-0.9-0.4-0.9-0.9s0.4-0.9,0.9-0.9S47.9,29,47.9,29.5z"/>
							</g>
						</g>
					</g>
				</g>
			</g>
		</g>
		<g id="Group-33" transform="translate(182.000000, 1006.000000)">
		</g>
	</g>
</g>
</svg>
