<?xml version="1.0" encoding="utf-8"?>
<!-- Generator: Adobe Illustrator 24.3.0, SVG Export Plug-In . SVG Version: 6.00 Build 0)  -->
<svg version="1.1" id="Layer_1" xmlns="http://www.w3.org/2000/svg" xmlns:xlink="http://www.w3.org/1999/xlink" x="0px" y="0px"
	 viewBox="0 0 1000 1000" style="enable-background:new 0 0 1000 1000;" xml:space="preserve">
<style type="text/css">
	.st0{fill:#AE36EB;}
	.st1{fill:#8F30C6;}
	.st2{fill:#333333;}
	.st3{fill:#9B9B9B;}
</style>
<g>
	<g>
		<g>
			<path class="st0" d="M405.56,456.94L405.56,456.94l-0.19-0.16c-1.97-1.65-4-3.23-6.11-4.71l-41.07-31.67v-10.02
				c0-6.84-5.54-12.38-12.38-12.38h0c-6.84,0-12.38,5.54-12.38,12.38v10.02l-41.07,31.67c-2.11,1.49-4.15,3.06-6.11,4.71l-0.19,0.15
				l0,0.01c-18.67,15.76-30.45,38.71-30.45,64.28c0,37.07,24.72,68.66,59.39,80.77h61.63c34.66-12.11,59.39-43.7,59.39-80.77
				C436.01,495.65,424.23,472.71,405.56,456.94z M345.8,577.61c-28.04,0-50.77-22.73-50.77-50.77c0-28.04,22.73-50.77,50.77-50.77
				s50.77,22.73,50.77,50.77C396.57,554.88,373.84,577.61,345.8,577.61z"/>
			<g>
				<path class="st1" d="M380.7,563.98c-9.03,8.27-21.06,13.32-34.28,13.32h30.64c30.04,0,54.86-22.25,58.95-51.16
					C427.35,548.25,405.87,563.92,380.7,563.98z"/>
			</g>
			<g>
				<path class="st1" d="M256.19,531.35c3.88-24.19,24.83-42.68,50.11-42.68h5.98c8.93-7.84,20.64-12.6,33.46-12.6H306.3
					c-27.19,0-49.38,21.37-50.7,48.23c0.03,0.86,0.09,1.72,0.15,2.58C255.85,528.39,256.01,529.87,256.19,531.35z"/>
			</g>
			<g>
				<path class="st2" d="M349.96,486.04l-3.53,6.79l-3.53-6.79c-1.38-2.65,0.54-5.82,3.53-5.82l0,0
					C349.41,480.22,351.34,483.39,349.96,486.04z"/>
				<path class="st2" d="M318.39,496.98l2.3,7.3l-7.3-2.3c-2.85-0.9-3.73-4.5-1.62-6.61l0,0
					C313.89,493.26,317.49,494.14,318.39,496.98z"/>
				<path class="st2" d="M305.68,522.61l6.79,3.53l-6.79,3.53c-2.65,1.38-5.82-0.54-5.82-3.53l0,0
					C299.86,523.16,303.03,521.24,305.68,522.61z"/>
				<path class="st2" d="M374.46,496.98l-2.3,7.3l7.3-2.3c2.85-0.9,3.73-4.5,1.62-6.61h0C378.96,493.26,375.36,494.14,374.46,496.98
					z"/>
				<path class="st2" d="M387.18,522.61l-6.79,3.53l6.79,3.53c2.65,1.38,5.82-0.54,5.82-3.53l0,0
					C392.99,523.16,389.83,521.24,387.18,522.61z"/>
			</g>
			<g>
				<path class="st2" d="M349.96,566.25l-3.53-6.79l-3.53,6.79c-1.38,2.65,0.54,5.82,3.53,5.82l0,0
					C349.41,572.07,351.34,568.9,349.96,566.25z"/>
				<path class="st2" d="M318.39,555.31l2.3-7.3l-7.3,2.3c-2.85,0.9-3.73,4.5-1.62,6.61v0
					C313.89,559.03,317.49,558.15,318.39,555.31z"/>
				<path class="st2" d="M305.68,529.68l6.79-3.53l-6.79-3.53c-2.65-1.38-5.82,0.54-5.82,3.53l0,0
					C299.86,529.13,303.03,531.05,305.68,529.68z"/>
				<path class="st2" d="M374.46,555.31l-2.3-7.3l7.3,2.3c2.85,0.9,3.73,4.5,1.62,6.61l0,0
					C378.96,559.03,375.36,558.15,374.46,555.31z"/>
				<path class="st2" d="M387.18,529.68l-6.79-3.53l6.79-3.53c2.65-1.38,5.82,0.54,5.82,3.53l0,0
					C392.99,529.13,389.83,531.05,387.18,529.68z"/>
			</g>
		</g>
		<path class="st2" d="M604.91,543.23c-2.42,7.13-11.38,14.34-23.85,14.34c-18.37,0-28.28-15.05-28.28-29.21
			c0-16.74,12.16-29.36,28.28-29.36c12.17,0,21.37,7.64,23.85,14.82l1.14,3.31l13.93-4.24l-1.07-3.48
			c-3.79-12.31-18.01-24.77-37.86-24.77c-24.57,0-43.11,18.66-43.11,43.41c0,25.01,18.53,43.88,43.11,43.88
			c20.03,0,34.21-12.4,37.87-24.64l1.08-3.61L606,540.03L604.91,543.23z"/>
		<path class="st2" d="M672.5,484.64c-10.56,0-19.8,3.64-26.59,10.26v-44.64h-14.83v119.83h14.83v-42.34
			c0-17.1,10.37-28.59,25.81-28.59c13.27,0,20.57,8.18,20.57,23.04v47.89h14.83v-48.66C707.12,498.74,693.86,484.64,672.5,484.64z"
			/>
		<path class="st2" d="M732.01,477.57c5.59,0,9.8-4.21,9.8-9.8c0-5.32-4.31-9.49-9.8-9.49s-9.8,4.17-9.8,9.49
			C722.21,473.36,726.43,477.57,732.01,477.57z"/>
		<rect x="724.68" y="486.49" class="st2" width="14.83" height="83.59"/>
		<circle class="st0" cx="732.01" cy="467.92" r="12.39"/>
		<g>
			<polygon class="st2" points="512.36,486.49 512.36,500.85 512.36,528.29 512.36,570.08 527.19,570.08 527.19,486.49 			"/>
			<path class="st2" d="M496.86,486.49h-15.78v-7.62c0-11.24,4.54-16.25,14.71-16.25c6.84,0,12.59,2.26,18.64,7.32l4.25,3.56
				l4.25-14.37l-1.81-1.53c-7.42-6.27-15.51-9.18-25.47-9.18c-18.95,0-29.38,10.65-29.38,30v8.08h-16.65v14.36h16.65v69.23h14.83
				v-69.23h15.78V486.49z"/>
		</g>
	</g>
	<path class="st3" d="M480.25,587.56v5.38c-1.48,1.13-3.67,1.9-5.68,1.9c-4.32,0-7.68-3.23-7.68-7.41s3.4-7.37,7.83-7.37
		c2.09,0,4.17,0.79,5.61,2.04l-1.4,1.82c-1.13-1.04-2.69-1.67-4.22-1.67c-2.98,0-5.32,2.27-5.32,5.18c0,2.92,2.36,5.2,5.34,5.2
		c1.09,0,2.32-0.38,3.36-1v-4.07H480.25z"/>
	<path class="st3" d="M500.8,590.14h-8.39c0.38,1.71,1.69,2.78,3.44,2.78c1.21,0,2.32-0.46,3.13-1.29l1.27,1.36
		c-1.09,1.19-2.67,1.88-4.59,1.88c-3.42,0-5.68-2.27-5.68-5.61c0-3.36,2.32-5.63,5.61-5.66C499.5,583.58,501.09,586.13,500.8,590.14
		z M498.71,588.38c-0.08-1.79-1.27-2.88-3.09-2.88c-1.75,0-2.98,1.11-3.26,2.88H498.71z"/>
	<path class="st3" d="M516.76,594.03c-0.88,0.52-1.79,0.81-2.73,0.81c-1.67,0-3.11-0.96-3.11-3.23v-5.76h-1.57v-1.79h1.57v-3.05
		h2.38v3.05h3.28v1.79h-3.28v5.32c0,1.15,0.44,1.5,1.19,1.5c0.5,0,1.02-0.17,1.67-0.48L516.76,594.03z"/>
	<path class="st3" d="M541.57,582.34v4.22h6.64v2.19h-6.64v5.99h-2.46v-14.61h9.81l-0.02,2.21H541.57z"/>
	<path class="st3" d="M560.86,580.46c0,0.83-0.61,1.44-1.4,1.44c-0.79,0-1.4-0.61-1.4-1.44c0-0.86,0.61-1.46,1.4-1.46
		C560.25,579,560.86,579.61,560.86,580.46z M558.27,594.74v-11.1h2.38v11.1H558.27z"/>
	<path class="st3" d="M577.79,594.03c-0.88,0.52-1.79,0.81-2.73,0.81c-1.67,0-3.11-0.96-3.11-3.23v-5.76h-1.57v-1.79h1.57v-3.05
		h2.38v3.05h3.28v1.79h-3.28v5.32c0,1.15,0.44,1.5,1.19,1.5c0.5,0,1.02-0.17,1.67-0.48L577.79,594.03z"/>
	<path class="st3" d="M605.48,582.34v12.4h-2.46v-12.4h-4.61v-2.21h11.71v2.21H605.48z"/>
	<path class="st3" d="M628.46,589.19c0,3.34-2.36,5.63-5.78,5.63c-3.44,0-5.8-2.3-5.8-5.63c0-3.36,2.36-5.63,5.8-5.63
		C626.1,583.55,628.46,585.83,628.46,589.19z M619.28,589.21c0,2.15,1.4,3.61,3.4,3.61c1.98,0,3.38-1.46,3.38-3.61
		c0-2.13-1.4-3.59-3.38-3.59C620.68,585.62,619.28,587.08,619.28,589.21z"/>
	<path class="st3" d="M648.29,593.65c0,3.19-2.27,5.2-5.76,5.2c-1.73,0-3.26-0.54-4.61-1.46l1.02-1.73
		c1.04,0.77,2.13,1.21,3.48,1.21c2.11,0,3.49-1.23,3.49-3.15v-1.4c-0.75,1.21-2,1.88-3.67,1.88c-3,0-5.01-2.17-5.01-5.36
		c0-3.13,1.98-5.26,4.92-5.28c1.71-0.02,2.98,0.67,3.76,1.88v-1.79h2.38V593.65z M645.91,588.89c0-2-1.32-3.4-3.19-3.4
		c-1.9,0-3.21,1.42-3.23,3.4c0.02,2,1.31,3.42,3.23,3.42C644.59,592.32,645.91,590.9,645.91,588.89z"/>
	<path class="st3" d="M668.7,590.1h-8.39c0.38,1.71,1.69,2.78,3.44,2.78c1.21,0,2.32-0.46,3.13-1.29l1.27,1.36
		c-1.09,1.19-2.67,1.88-4.59,1.88c-3.42,0-5.68-2.27-5.68-5.61c0-3.36,2.32-5.63,5.61-5.66C667.41,583.55,668.99,586.1,668.7,590.1z
		 M666.61,588.35c-0.08-1.79-1.27-2.88-3.09-2.88c-1.75,0-2.98,1.11-3.26,2.88H666.61z"/>
	<path class="st3" d="M684.79,594.03c-0.88,0.52-1.79,0.81-2.73,0.81c-1.67,0-3.11-0.96-3.11-3.23v-5.76h-1.57v-1.79h1.57v-3.05
		h2.38v3.05h3.28v1.79h-3.28v5.32c0,1.15,0.44,1.5,1.19,1.5c0.5,0,1.02-0.17,1.67-0.48L684.79,594.03z"/>
	<path class="st3" d="M705.06,587.83v6.91h-2.4v-6.24c0-1.67-1-2.69-2.67-2.69c-1.98,0.02-3.17,1.5-3.17,3.46v5.47h-2.4v-15.48h2.4
		v6.55c0.79-1.57,2.21-2.25,4.11-2.25C703.51,583.55,705.06,585.18,705.06,587.83z"/>
	<path class="st3" d="M725.34,590.1h-8.39c0.38,1.71,1.69,2.78,3.44,2.78c1.21,0,2.32-0.46,3.13-1.29l1.27,1.36
		c-1.09,1.19-2.67,1.88-4.59,1.88c-3.42,0-5.68-2.27-5.68-5.61c0-3.36,2.32-5.63,5.61-5.66C724.05,583.55,725.64,586.1,725.34,590.1
		z M723.26,588.35c-0.08-1.79-1.27-2.88-3.09-2.88c-1.75,0-2.98,1.11-3.26,2.88H723.26z"/>
	<path class="st3" d="M737.55,585.85c0.75-1.5,2.09-2.3,3.84-2.3v2.3c-2.23-0.13-3.65,1.19-3.84,3.09v5.8h-2.4v-11.1h2.4V585.85z"/>
</g>
</svg>
