<svg id="Layer_1" data-name="Layer 1" xmlns="http://www.w3.org/2000/svg" viewBox="0 0 180.41 203.99"><defs><style>.cls-1{fill:#ae36eb;}.cls-2{fill:#8f30c6;}.cls-3{fill:#333;}</style></defs><title>logo_no_text</title><path class="cls-1" d="M150.39,59.35h0l-.19-.15c-2-1.65-4-3.23-6.11-4.71L103,22.81v-10A12.39,12.39,0,0,0,90.63.41h0A12.38,12.38,0,0,0,78.25,12.79v10L37.18,54.48C35.07,56,33,57.54,31.07,59.19l-.19.15h0C12.21,75.11.43,98.06.43,123.63c0,37.07,24.72,68.66,59.39,80.77h61.63c34.67-12.11,59.39-43.7,59.39-80.77C180.84,98.06,169.06,75.11,150.39,59.35ZM90.63,180a50.77,50.77,0,1,1,50.77-50.77A50.77,50.77,0,0,1,90.63,180Z" transform="translate(-0.43 -0.41)"/><path class="cls-2" d="M125.53,166.39a50.57,50.57,0,0,1-34.27,13.32h30.63a59.56,59.56,0,0,0,59-51.16A59.56,59.56,0,0,1,125.53,166.39Z" transform="translate(-0.43 -0.41)"/><path class="cls-2" d="M1,133.76A50.78,50.78,0,0,1,51.13,91.08h6a50.57,50.57,0,0,1,33.46-12.6H51.13A50.77,50.77,0,0,0,.43,126.71c0,.86.09,1.72.15,2.58C.68,130.79.84,132.28,1,133.76Z" transform="translate(-0.43 -0.41)"/><path class="cls-3" d="M94.79,88.44l-3.53,6.79-3.53-6.79a4,4,0,0,1,3.53-5.81h0A4,4,0,0,1,94.79,88.44Z" transform="translate(-0.43 -0.41)"/><path class="cls-3" d="M63.22,99.39l2.3,7.29-7.29-2.3a4,4,0,0,1-1.62-6.61h0A4,4,0,0,1,63.22,99.39Z" transform="translate(-0.43 -0.41)"/><path class="cls-3" d="M50.51,125l6.78,3.53-6.78,3.53a4,4,0,0,1-5.82-3.53h0A4,4,0,0,1,50.51,125Z" transform="translate(-0.43 -0.41)"/><path class="cls-3" d="M119.29,99.39l-2.3,7.29,7.3-2.3a4,4,0,0,0,1.61-6.61h0A4,4,0,0,0,119.29,99.39Z" transform="translate(-0.43 -0.41)"/><path class="cls-3" d="M132,125l-6.79,3.53,6.79,3.53a4,4,0,0,0,5.81-3.53h0A4,4,0,0,0,132,125Z" transform="translate(-0.43 -0.41)"/><path class="cls-3" d="M94.79,168.66l-3.53-6.79-3.53,6.79a4,4,0,0,0,3.53,5.81h0A4,4,0,0,0,94.79,168.66Z" transform="translate(-0.43 -0.41)"/><path class="cls-3" d="M63.22,157.71l2.3-7.3-7.29,2.31a4,4,0,0,0-1.62,6.61h0A4,4,0,0,0,63.22,157.71Z" transform="translate(-0.43 -0.41)"/><path class="cls-3" d="M50.51,132.08l6.78-3.53L50.51,125a4,4,0,0,0-5.82,3.53h0A4,4,0,0,0,50.51,132.08Z" transform="translate(-0.43 -0.41)"/><path class="cls-3" d="M119.29,157.71l-2.3-7.3,7.3,2.31a4,4,0,0,1,1.61,6.61h0A4,4,0,0,1,119.29,157.71Z" transform="translate(-0.43 -0.41)"/><path class="cls-3" d="M132,132.08l-6.79-3.53L132,125a4,4,0,0,1,5.81,3.53h0A4,4,0,0,1,132,132.08Z" transform="translate(-0.43 -0.41)"/></svg>