<?xml version="1.0" encoding="utf-8"?>
<!-- Generator: Adobe Illustrator 24.0.1, SVG Export Plug-In . SVG Version: 6.00 Build 0)  -->
<svg version="1.1" id="Layer_1" xmlns="http://www.w3.org/2000/svg" xmlns:xlink="http://www.w3.org/1999/xlink" x="0px" y="0px"
	 viewBox="0 0 510 421" style="enable-background:new 0 0 510 421;" xml:space="preserve">
<style type="text/css">
	.st0{fill-rule:evenodd;clip-rule:evenodd;fill:#FFFFFF;}
	.st1{opacity:0.3003;fill-rule:evenodd;clip-rule:evenodd;fill:#A3B9FC;enable-background:new    ;}
	.st2{fill-rule:evenodd;clip-rule:evenodd;fill:#98B0F7;}
	.st3{fill-rule:evenodd;clip-rule:evenodd;fill:#13375B;}
	.st4{fill-rule:evenodd;clip-rule:evenodd;fill:#3DE3A3;}
	.st5{fill-rule:evenodd;clip-rule:evenodd;fill:#DA17F5;}
	.st6{fill-rule:evenodd;clip-rule:evenodd;fill:#C6E3FD;}
	.st7{fill-rule:evenodd;clip-rule:evenodd;fill:#E3F5FC;}
	.st8{fill-rule:evenodd;clip-rule:evenodd;fill:#B9DBFC;}
	.st9{fill-rule:evenodd;clip-rule:evenodd;fill:#5477DE;}
	.st10{fill-rule:evenodd;clip-rule:evenodd;fill:#1C1C1C;}
	.st11{fill-rule:evenodd;clip-rule:evenodd;fill:#EAFCFC;}
	.st12{fill-rule:evenodd;clip-rule:evenodd;fill:#F7CC7F;}
	.st13{fill-rule:evenodd;clip-rule:evenodd;fill:#96D9C9;}
	.st14{fill-rule:evenodd;clip-rule:evenodd;fill:#11345A;}
	.st15{fill-rule:evenodd;clip-rule:evenodd;fill:#F47458;}
	.st16{fill-rule:evenodd;clip-rule:evenodd;fill:#86B1F2;}
	.st17{opacity:0.4536;fill-rule:evenodd;clip-rule:evenodd;fill:#A3B9FC;enable-background:new    ;}
	.st18{fill-rule:evenodd;clip-rule:evenodd;fill:#FFA54E;}
	.st19{fill-rule:evenodd;clip-rule:evenodd;fill:#323232;}
	.st20{fill-rule:evenodd;clip-rule:evenodd;fill:#B411CA;}
	.st21{fill-rule:evenodd;clip-rule:evenodd;fill:#2E2B2B;}
	.st22{fill-rule:evenodd;clip-rule:evenodd;fill:#3A3A3A;}
	.st23{fill-rule:evenodd;clip-rule:evenodd;fill:#FF9E3F;}
	.st24{fill-rule:evenodd;clip-rule:evenodd;fill:#F99533;}
	.st25{fill:none;stroke:#FFFFFF;stroke-width:2;}
	.st26{fill:#FFFEFE;}
	.st27{fill-rule:evenodd;clip-rule:evenodd;fill:#DDDEDB;}
	.st28{fill-rule:evenodd;clip-rule:evenodd;fill:#CE9423;}
	.st29{fill-rule:evenodd;clip-rule:evenodd;fill:#E9A92B;}
	.st30{fill-rule:evenodd;clip-rule:evenodd;fill:#F0B135;}
	.st31{fill-rule:evenodd;clip-rule:evenodd;fill:#E5A527;}
	.st32{fill-rule:evenodd;clip-rule:evenodd;fill:#DFC9BF;}
	.st33{fill-rule:evenodd;clip-rule:evenodd;fill:#C918E1;}
	.st34{opacity:0.2748;fill-rule:evenodd;clip-rule:evenodd;fill:#5477DE;enable-background:new    ;}
	.st35{fill-rule:evenodd;clip-rule:evenodd;fill:#30C58C;}
	.st36{opacity:0.1989;fill-rule:evenodd;clip-rule:evenodd;fill:#404040;enable-background:new    ;}
	.st37{fill-rule:evenodd;clip-rule:evenodd;fill:#7593EC;}
	.st38{fill-rule:evenodd;clip-rule:evenodd;fill:#E99775;}
	.st39{fill-rule:evenodd;clip-rule:evenodd;fill:#FFFFFE;}
	.st40{fill-rule:evenodd;clip-rule:evenodd;fill:#3768FA;}
	.st41{fill-rule:evenodd;clip-rule:evenodd;fill:#2F5EEC;}
	.st42{fill-rule:evenodd;clip-rule:evenodd;fill:#E39143;}
	.st43{fill:#0A193B;}
	.st44{fill:#FFFFFF;}
	.st45{fill:none;stroke:#FFFFFF;stroke-linecap:round;}
	.st46{fill:none;}
	.st47{fill-rule:evenodd;clip-rule:evenodd;fill:#C0FA37;}
	.st48{fill:none;stroke:#306D93;stroke-width:1.9645;}
	.st49{fill:#7FA1C0;}
	.st50{fill:#C1D1DE;}
</style>
<title>3@2x</title>
<g id="Page-1">
	<g id="Home" transform="translate(-734.000000, -1541.000000)">
		<rect x="-14" y="-13" class="st0" width="1440" height="3579"/>
		<g id="Group-32" transform="translate(182.000000, 120.000000)">
			<g id="Group-30" transform="translate(565.000000, 1433.000000)">
				<g id="yoga">
					<g id="Group-25" transform="translate(0.000000, 0.301080)">
						<path id="Rectangle" class="st1" d="M-3-12.3h191c5.5,0,10,4.5,10,10v401c0,5.5-4.5,10-10,10H-3c-5.5,0-10-4.5-10-10v-401
							C-13-7.8-8.5-12.3-3-12.3z"/>
						<g id="Group-35" transform="translate(0.950200, 2.000000)">
							<path id="Fill-5" class="st2" d="M24,71l44.7-8h30l45.1,8v12.9H23.6V71H24"/>
							<path id="Fill-6" class="st2" d="M98.7,63h-30v-76h30V63z"/>
							<polygon id="Fill-8" class="st3" points="144.9,87.1 22.5,87.1 22.5,83.9 144.9,83.9 							"/>
							<polygon id="Fill-9" class="st3" points="97.1,81.3 70.4,81.3 70.4,79.4 97.1,79.4 							"/>
							<path id="Fill-22" class="st4" d="M130.2,198.9h16.4v4.5c0,5.3-2.4,9.6-5.4,9.6h-19.9c-3,0-5.4-4.3-5.4-9.6v-4.5H130.2"/>
							<path id="Fill-63" class="st5" d="M184.7,119.7h-74.9v-2.3h74.9V119.7z"/>
							<path id="Fill-64" class="st2" d="M161.8,157.7c0.9,0,1.7-0.8,1.7-1.7c0-0.9-0.8-1.7-1.7-1.7c-0.9,0-1.7,0.8-1.7,1.7
								C160.1,157,160.8,157.7,161.8,157.7z M159.6,134L159.6,134c0.9-0.9,2.1-1.4,3.3-1.6l7.6-0.7V160h-8.2c-2.4,0-4.3-1.9-4.3-4.3
								v-18C158.1,136.4,158.6,135,159.6,134L159.6,134z"/>
							<polygon id="Fill-65" class="st3" points="170.5,132.1 166.8,132.1 166.8,115.1 170.5,115.1 							"/>
							<path id="Fill-66" class="st2" d="M153.8,148.5v-20.3l-3,0v14.2C150.9,142.4,151.4,148.5,153.8,148.5"/>
							<polygon id="Fill-67" class="st3" points="153.8,128.2 152.2,128.2 152.2,115 153.8,115 							"/>
							<path id="Fill-68" class="st2" d="M181,127.9v29.8c0,0-4.9-10-4.7-29.8H181"/>
							<polygon id="Fill-69" class="st3" points="181,127.9 178.7,127.9 178.7,114.7 181,114.7 							"/>
							<path id="Fill-70" class="st2" d="M144.3,127.9v29.8c0,0-4.9-10-4.7-29.8H144.3"/>
							<polygon id="Fill-71" class="st3" points="144.3,127.9 142.1,127.9 142.1,114.7 144.3,114.7 							"/>
							<path id="Fill-72" class="st2" d="M132.8,143.5h-1v-27.7h1V143.5z"/>
							<polygon id="Fill-73" class="st3" points="133.3,127 131.3,127 131.3,113.8 133.3,113.8 							"/>
							<path id="Fill-74" class="st2" d="M129.6,150.9c0,0.2,0.2,0.4,0.4,0.4c0.2,0,0.4-0.2,0.4-0.4v-6.3c0-0.2-0.2-0.4-0.4-0.4
								c-0.2,0-0.4,0.2-0.4,0.4V150.9z M131.1,150.9c0,0.2,0.2,0.4,0.4,0.4s0.4-0.2,0.4-0.4v-6.3c0-0.2-0.2-0.4-0.4-0.4
								s-0.4,0.2-0.4,0.4V150.9z M132.7,150.9c0,0.2,0.2,0.4,0.4,0.4c0.2,0,0.4-0.2,0.4-0.4v-6.3c0-0.2-0.2-0.4-0.4-0.4
								c-0.2,0-0.4,0.2-0.4,0.4V150.9z M134.3,150.9c0,0.2,0.2,0.4,0.4,0.4c0.2,0,0.4-0.2,0.4-0.4v-6.3c0-0.2-0.2-0.4-0.4-0.4
								c-0.2,0-0.4,0.2-0.4,0.4V150.9z M129.6,142.9h5.4c0.6,0,1.2,0.5,1.2,1.2v7.5c0,0.6-0.5,1.2-1.2,1.2h-5.4
								c-0.6,0-1.2-0.5-1.2-1.2v-7.5C128.4,143.4,128.9,142.9,129.6,142.9L129.6,142.9z"/>
							<path id="Fill-75" class="st2" d="M115.2,143.5h-1v-27.7h1V143.5z"/>
							<polygon id="Fill-76" class="st3" points="115.6,127 113.7,127 113.7,113.8 115.6,113.8 							"/>
							<polygon id="Fill-77" class="st6" points="123.8,143.5 123.2,143.5 123.2,115.8 123.8,115.8 							"/>
							<polygon id="Fill-78" class="st3" points="124.2,127 122.7,127 122.7,113.8 124.2,113.8 							"/>
							<path id="Fill-79" class="st2" d="M123.5,142.7c3.4,0.5,1.4,8.6,1.4,8.6c0.1-7-1.4-7-1.4-7s-1.5,0-1.4,7
								C122.1,151.3,120.1,143.2,123.5,142.7"/>
							<path id="Fill-80" class="st2" d="M114.7,147.3c-2.4,0-4.4-2-4.4-4.4h8.8C119.1,145.3,117.1,147.3,114.7,147.3"/>
							<path id="Fill-81" class="st7" d="M114.7,147.3c2.4,0,4.4-2,4.4-4.4C119.1,145.3,117.1,147.3,114.7,147.3
								C114.7,147.3,114.7,147.3,114.7,147.3C114.7,147.3,114.7,147.3,114.7,147.3"/>
							<path id="Fill-82" class="st8" d="M114.7,147.3c2.4,0,4.4-2,4.4-4.4h-1.8c0,2.1-1.5,3.9-3.5,4.3
								C114.1,147.3,114.4,147.3,114.7,147.3C114.7,147.3,114.7,147.3,114.7,147.3"/>
							<path id="Path" class="st2" d="M197,217.6v117.8H6.1V217.6H197z"/>
							<polygon id="Path_1_" class="st9" points="74.5,214.2 74.5,296.7 158.6,296.7 158.6,214.2 159.4,214.2 159.4,255.4 
								197,255.4 197,256.2 159.4,256.2 159.4,296.7 197,296.7 197,297.5 159.4,297.5 159.4,335.3 158.6,335.3 158.6,297.5 
								74.5,297.5 74.5,335.3 73.7,335.3 73.7,214.2 							"/>
							<polyline id="Fill-119" class="st10" points="62.7,228.9 15.8,228.9 15.8,234 16.5,234 16.5,230.6 62.7,230.6 62.7,234 
								63.4,234 63.4,228.9 62.7,228.9 							"/>
							<polygon id="Path_2_" class="st10" points="197.1,228.9 197.1,230.6 174,230.6 174,234 173.4,234 173.4,228.9 							"/>
							<polygon id="Path_3_" class="st10" points="197.1,264.4 197.1,266.2 174,266.2 174,269.5 173.4,269.5 173.4,264.4 							"/>
							<polygon id="Path_4_" class="st10" points="197.1,306 197.1,307.7 174,307.7 174,311 173.4,311 173.4,306 							"/>
							<polyline id="Fill-124" class="st10" points="139.2,306 92.3,306 92.3,311 92.9,311 92.9,307.7 139.2,307.7 139.2,311 
								139.8,311 139.8,306 139.2,306 							"/>
							<polygon id="Fill-125" class="st9" points="152.2,253.7 79.9,253.7 79.9,225.6 152.2,225.6 							"/>
							<path id="Fill-126" class="st11" d="M96,236.8h-5.6c-3.3,0-5.9-2.6-5.9-5.9h17.4C101.8,234.1,99.2,236.8,96,236.8"/>
							<path id="Fill-128" class="st11" d="M116.5,236.8h-5.6c-3.3,0-5.9-2.6-5.9-5.9h17.4C122.4,234.1,119.8,236.8,116.5,236.8"/>
							<path id="Fill-130" class="st5" d="M116.4,239.7h-5.6c-3.3,0-5.9-2.6-5.9-5.9h17.4C122.3,237.1,119.6,239.7,116.4,239.7"/>
							<path id="Fill-132" class="st11" d="M116.5,243.4h-5.6c-3.3,0-5.9-2.6-5.9-5.9h17.4C122.4,240.8,119.8,243.4,116.5,243.4"/>
							<path id="Fill-134" class="st5" d="M116.4,247h-5.6c-3.3,0-5.9-2.6-5.9-5.9h17.4C122.3,244.4,119.6,247,116.4,247"/>
							<path id="Fill-136" class="st11" d="M116.5,250.8h-5.6c-3.3,0-5.9-2.6-5.9-5.9h17.4C122.4,248.1,119.8,250.8,116.5,250.8"/>
							<path id="Fill-138" class="st5" d="M116.4,253.7h-5.6c-3.3,0-5.9-2.6-5.9-5.9h17.4C122.3,251.1,119.6,253.7,116.4,253.7"/>
							<path id="Fill-140" class="st12" d="M95.8,239.7h-5.6c-3.3,0-5.9-2.6-5.9-5.9h17.4C101.7,237.1,99,239.7,95.8,239.7"/>
							<polygon id="Fill-142" class="st9" points="152.2,287.9 79.8,287.9 79.8,259.8 152.2,259.8 							"/>
							<path id="Fill-143" class="st11" d="M96,243.4h-5.6c-3.3,0-5.9-2.6-5.9-5.9h17.4C101.8,240.8,99.2,243.4,96,243.4"/>
							<path id="Fill-146" class="st12" d="M95.8,247h-5.6c-3.3,0-5.9-2.6-5.9-5.9h17.4C101.7,244.4,99,247,95.8,247"/>
							<path id="Fill-149" class="st11" d="M96,250.8h-5.6c-3.3,0-5.9-2.6-5.9-5.9h17.4C101.8,248.1,99.2,250.8,96,250.8"/>
							<path id="Fill-151" class="st12" d="M95.8,253.7h-5.6c-3.3,0-5.9-2.6-5.9-5.9h17.4C101.7,251.1,99,253.7,95.8,253.7"/>
							<path id="Fill-153" class="st13" d="M98,286.4h14.3c0,0.9-0.2,1.6-0.5,1.6H98.5C98.2,287.9,98,287.2,98,286.4"/>
							<path id="Fill-154" class="st4" d="M98,284.8h14.3v1.4c0,0.1-0.1,0.2-0.2,0.2H98c0,0,0,0,0,0V284.8"/>
							<path id="Fill-155" class="st13" d="M98,283.2h14.3c0,0.9-0.2,1.6-0.5,1.6H98.5C98.2,284.8,98,284.1,98,283.2"/>
							<path id="Fill-156" class="st4" d="M98,281.6h14.3c0,0.9-0.2,1.6-0.5,1.6H98.5C98.2,283.2,98,282.5,98,281.6"/>
							<path id="Fill-157" class="st13" d="M98,280h14.3c0,0.9-0.2,1.6-0.5,1.6H98.5C98.2,281.6,98,280.9,98,280"/>
							<path id="Fill-158" class="st4" d="M98,278.4h14.3c0,0.9-0.2,1.6-0.5,1.6H98.5C98.2,280,98,279.3,98,278.4"/>
							<path id="Fill-159" class="st14" d="M90.6,287.9h13.2h-5.3c-0.3,0-0.5-0.7-0.5-1.6h0c0,0,0,0,0,0v-1.5h0.5
								c-0.3,0-0.5-0.7-0.5-1.6h0.5c-0.3,0-0.5-0.7-0.5-1.6h0.5c-0.3,0-0.5-0.7-0.5-1.6h0.5c-0.3,0-0.5-0.7-0.5-1.6h-7.9
								c0,0.9,0.2,1.6,0.5,1.6h-0.5c0,0.9,0.2,1.6,0.5,1.6h-0.5c0,0.9,0.2,1.6,0.5,1.6h-0.5c0,0.9,0.2,1.6,0.5,1.6h-0.5v1
								c0,0.3,0.3,0.6,0.6,0.6h-0.6C90.1,287.2,90.4,287.9,90.6,287.9"/>
							<path id="Fill-166" class="st15" d="M87.4,286.4h14.3c0,0.9-0.2,1.6-0.5,1.6H87.9C87.7,287.9,87.4,287.2,87.4,286.4"/>
							<path id="Fill-167" class="st11" d="M87.4,284.8h14.3v1.4c0,0.1-0.1,0.2-0.2,0.2h-14c0,0-0.1,0-0.1-0.1V284.8"/>
							<path id="Fill-168" class="st15" d="M87.4,283.2h14.3c0,0.9-0.2,1.6-0.5,1.6H87.9C87.7,284.8,87.4,284.1,87.4,283.2"/>
							<path id="Fill-169" class="st11" d="M87.4,281.6h14.3c0,0.9-0.2,1.6-0.5,1.6H87.9C87.7,283.2,87.4,282.5,87.4,281.6"/>
							<path id="Fill-170" class="st15" d="M87.4,280h14.3c0,0.9-0.2,1.6-0.5,1.6H87.9C87.7,281.6,87.4,280.9,87.4,280"/>
							<path id="Fill-171" class="st11" d="M87.4,278.4h14.3c0,0.9-0.2,1.6-0.5,1.6H87.9C87.7,280,87.4,279.3,87.4,278.4"/>
							<path id="Fill-172" class="st4" d="M138.4,275.4h-15.5c-0.5,0-1-0.4-1-1v-11.9h17.5v11.9C139.3,275,138.9,275.4,138.4,275.4"
								/>
							<path id="Fill-174" class="st12" d="M140.9,263.8l-2.8,1.8c0,0,0,0-0.1,0l-0.3-0.5c0,0,0,0,0-0.1l2.8-1.8c0,0,0,0,0.1,0
								L140.9,263.8C140.9,263.8,140.9,263.8,140.9,263.8"/>
							<path id="Fill-175" class="st12" d="M120.3,263.8l2.8,1.8c0,0,0,0,0.1,0l0.3-0.5c0,0,0,0,0-0.1l-2.8-1.8c0,0,0,0-0.1,0
								L120.3,263.8C120.3,263.8,120.3,263.8,120.3,263.8"/>
							<path id="Fill-177" class="st5" d="M140.6,287.2h-20c-0.7,0-1.2-0.6-1.2-1.2v-15.2h22.4v15.2
								C141.8,286.6,141.3,287.2,140.6,287.2"/>
							<path id="Fill-179" class="st12" d="M143.9,272.3l-3.6,2.3c0,0-0.1,0-0.1,0l-0.4-0.6c0,0,0-0.1,0-0.1l3.6-2.3
								c0,0,0.1,0,0.1,0L143.9,272.3C143.9,272.2,143.9,272.3,143.9,272.3"/>
							<path id="Fill-180" class="st12" d="M117.4,272.3l3.6,2.3c0,0,0.1,0,0.1,0l0.4-0.6c0,0,0-0.1,0-0.1l-3.6-2.3c0,0-0.1,0-0.1,0
								L117.4,272.3C117.4,272.2,117.4,272.3,117.4,272.3"/>
							<path id="Fill-181" class="st6" d="M139.9,261.7h-18.5c0,0-0.1,0-0.1,0.1v0.8c0,0,0,0.1,0.1,0.1h18.5c0,0,0.1,0,0.1-0.1
								L139.9,261.7C139.9,261.7,139.9,261.7,139.9,261.7"/>
							<path id="Fill-182" class="st11" d="M128.4,236.7v-8.9h2.2v8.9c0.9,0,1.6,0.7,1.6,1.6v15.3h-5.5v-15.3
								C126.8,237.5,127.5,236.7,128.4,236.7"/>
							<path id="Fill-185" class="st4" d="M132.2,251.5h-5.5v-7.8h5.5V251.5z"/>
							<path id="Fill-186" class="st11" d="M136.1,236.7v-8.9h2.2v8.9c0.9,0,1.6,0.7,1.6,1.6v15.3h-5.5v-15.3
								C134.5,237.5,135.2,236.7,136.1,236.7"/>
							<polygon id="Fill-189" class="st12" points="140,251.5 134.5,251.5 134.5,243.7 140,243.7 							"/>
							<path id="Fill-190" class="st11" d="M143.9,236.7v-8.9h2.2v8.9c0.9,0,1.6,0.7,1.6,1.6v15.3h-5.5v-15.3
								C142.3,237.5,143,236.7,143.9,236.7"/>
							<polygon id="Fill-193" class="st16" points="147.7,251.5 142.3,251.5 142.3,243.7 147.7,243.7 							"/>
							<polygon id="Path_5_" class="st9" points="197.1,213 197.1,217.6 2.4,217.6 2.4,213 							"/>
							<polygon id="Path_6_" class="st0" points="197,335.2 197,337.2 -14,337.2 -14,335.2 							"/>
						</g>
					</g>
					<g id="Group-11" transform="translate(18.000000, 163.000000)">
						<path id="Oval" class="st17" d="M18.8,229.8c18.1,0,32.8-2.9,32.8-6.5c0-3.6-14.7-6.5-32.8-6.5s-32.8,2.9-32.8,6.5
							C-14,226.9,0.7,229.8,18.8,229.8z"/>
						<path id="Path-45" class="st18" d="M15.5,203.9c0.5,2.4,0.2,4.6-0.7,6.5c-1.4,2.9-19.4,11.5-18,13s6.5,0.7,7.2,1.4
							s3.6,0,4.3,0c0.7,0,10.8-4.3,13-4.3s5-0.7,5-2.2s-2.2-14.4-2.2-18.7C24.2,196.7,21.3,198.1,15.5,203.9z"/>
						<path id="Path-44" class="st19" d="M4,82.2c-6.2,11-8.6,22.3-7.2,33.8c2.2,17.3,10.1,38.2,10.8,45.4
							c0.7,7.2,2.2,10.1,2.2,10.8s3.6,22.3,3.6,24.5c0,1.4,0.2,4.6,0.7,9.4c4.3,0,7,0,7.9,0s2.2-1.2,3.6-3.6
							c-1-20.6-1.4-32.6-1.4-36c0-5-2.9-7.2-2.9-12.2c0-5,1.4-15.8,0.7-22.3c-0.7-6.5-0.7-11.5-0.7-13.7c0-1.4,0.2-4.1,0.7-7.9
							c8.2,9.6,13.2,16.6,15.1,20.9c1.9,4.3,4.3,8.6,7.2,13c-4.3,1.9-7,4.1-7.9,6.5c-1,2.4-3.4,7-7.2,13.7c1.4,3.4,2.4,5,2.9,5
							c0.5,0,1.4,0.2,2.9,0.7c4.8-5.8,8.2-9.1,10.1-10.1c2.9-1.4,13.7-7.9,13.7-10.8c0-2.9-2.2-7.9-3.6-13c-1.4-5-4.3-27.4-9.4-38.9
							c-3.4-7.7-8.2-13.4-14.4-17.3L4,82.2z"/>
						<path id="Path-46" class="st18" d="M29.9,164.3c-1.9,1.9-3.4,2.9-4.3,2.9c-1.4,0-5.8,0-6.5,1.4c-0.7,1.4-1.4,2.2-0.7,6.5
							c0.7,4.3,1.4,5,1.4,7.9c0,2.9,0,10.1,1.4,11.5c1.4,1.4,3.6,2.9,4.3,2.2c0.7-0.7-0.7-3.6,0.7-10.1c1-4.3,3.6-10.1,7.9-17.3
							c-0.9-0.9-1.7-1.6-2.2-2.2C31.6,166.6,30.9,165.6,29.9,164.3z"/>
						<path id="Path-43" class="st20" d="M-11.1,62.8C-1,39.7,5.7,28.2,9,28.2s1.2,10.1-6.5,30.2l-7.2,5L-11.1,62.8z"/>
						<path id="Path-40" class="st5" d="M1.8,54.1c-2.4-3.8-3.1-6.7-2.2-8.6s2.2-4.1,3.6-6.5c2.9-8.2,5.3-12.7,7.2-13.7
							s6.2-1.2,13-0.7c9.1,2.9,14.9,5.8,17.3,8.6c2.4,2.9,5.3,14.9,8.6,36c-1.4-1.4-2.9-2.4-4.3-2.9c-1.4-0.5-3.1-0.7-5-0.7
							l-3.6-12.2c-3.4,5.3-5,8.6-5,10.1c0,2.2,0,12.2,1.4,14.4c1,1.4,2.2,3.4,3.6,5.8c-2.4,0.5-4.1,0.7-5,0.7c-1.4,0-7.9,6.5-18,4.3
							c-6.7-1.4-11-3.8-13-7.2c2.9-2.9,4.3-5.3,4.3-7.2c0-1.9,0-6.5,0-13.7L1.8,54.1z"/>
						<path id="Path-38" class="st21" d="M30.6,13.1c0,5.3,1.9,7.9,5.8,7.9c5.8,0,3.6-1.4,8.6-3.6s7.2-6.5,4.3-12.2
							C46.5-0.6,37.1-2,34.2,3C32.3,6.4,31.1,9.7,30.6,13.1z"/>
						<path id="Path-37" class="st22" d="M9.8,10.9c-0.1-0.1-0.3-0.1-0.3-0.2C4,7.4,2.9,2.2,6.2-4.9c3.4-7.2,9.8-9.6,19.4-7.2
							c6.2,1.4,9.6,4.3,10.1,8.6c0.7,6.5,0.7,12.2-2.9,15.8c-2.4,2.4-5.8,2.6-10.1,0.7L13.4,0.9l1.4,10.1l-5,0.7"/>
						<path id="Path-42" class="st23" d="M-12.6,64.9c0.5-3.4,1.7-5,3.6-5s4.6-0.5,7.9-1.4c3.4-6.7,5.5-10.1,6.5-10.1
							c1,0,1.2,4.8,0.7,14.4c-0.5,1.9-2.2,3.4-5,4.3c-4.3,1.4-10.8,2.2-12.2,1.4C-12.1,68.1-12.6,66.9-12.6,64.9z"/>
						<path id="Path-39" class="st24" d="M15.5,17.4c0.5,2.9,0.2,6.2-0.7,10.1c-1.4,5.8-2.9,5.8,0,5.8s13-5,13-7.2
							c0-1.4,0-5.3,0-11.5L15.5,17.4z"/>
						<path id="Path-36" class="st18" d="M11.2,9.5c-1-4.3-0.5-7.9,1.4-10.8s5.5-4.6,10.8-5c-0.5,2.9-0.2,5,0.7,6.5
							c1.4,2.2,5.8,5.8,5.8,6.5c0,0.5-0.2,2.2-0.7,5c2.4-3.4,4.6-4.1,6.5-2.2c2.9,2.9-2.2,6.5-5,6.5c-1.9,0-2.6,0-2.2,0
							c-2.9,1.9-5.3,3.4-7.2,4.3c-1.9,1-3.6,1.4-5,1.4c-3.8-2.4-6-4.8-6.5-7.2s-1-4.6-1.4-6.5L11.2,9.5z"/>
						<path id="Path-41" class="st18" d="M43.2,63.2c-8.2,1.4-14.6,1.9-19.4,1.4c-7.2-0.7-11.5-2.9-11.5-3.6s-0.7-8.6-0.7-10.1
							c0-1-1-3.4-2.9-7.2c-1,0.5-1.4,1-1.4,1.4c0,0.7-1.4,2.2-1.4,2.9c0,0.7-1.4,2.2-2.2,5c-0.7,2.9,0.7,8.6,0.7,9.4
							c0,0.5,1.4,1.9,4.3,4.3c4.3,2.9,7.4,4.3,9.4,4.3c2.9,0,23,2.2,25.9,2.2c2.9,0,6.5-1.4,5.8-5.8C49.2,64.7,47,63.2,43.2,63.2z"
							/>
					</g>
				</g>
				<g id="Group-13" transform="translate(224.000000, 208.000000)">
					<path id="Rectangle_1_" class="st1" d="M-4-13h267c5.5,0,10,4.5,10,10v194c0,5.5-4.5,10-10,10H-4c-5.5,0-10-4.5-10-10V-3
						C-14-8.5-9.5-13-4-13z"/>
					<path id="Rectangle_2_" class="st1" d="M-14,111h287v80c0,5.5-4.5,10-10,10H-4c-5.5,0-10-4.5-10-10V111L-14,111z"/>
					<line id="Path-54" class="st25" x1="-14" y1="122" x2="199" y2="122"/>
					<polygon id="Fill-32" class="st26" points="104.9,113.8 155.4,113.8 155.4,1.5 104.9,1.5 					"/>
					<path id="Fill-37" class="st2" d="M108.8,73.4h43.5V59.2h-43.5V73.4z"/>
					<path id="Fill-39" class="st2" d="M108.8,100.2h43.5V86h-43.5V100.2z"/>
					<path id="Fill-33" class="st2" d="M108.8,20.9h43.5V6.7h-43.5V20.9z"/>
					<path id="Fill-34" class="st0" d="M132.4,13.8c0,1-0.8,1.7-1.7,1.7c-0.9,0-1.7-0.8-1.7-1.7c0-0.9,0.8-1.7,1.7-1.7
						C131.6,12.1,132.4,12.8,132.4,13.8"/>
					<path id="Fill-35" class="st2" d="M108.8,47.2h43.5V32.9h-43.5V47.2z"/>
					<path id="Fill-36" class="st0" d="M132.4,40c0,0.9-0.8,1.7-1.7,1.7c-0.9,0-1.7-0.8-1.7-1.7c0-1,0.8-1.7,1.7-1.7
						C131.6,38.3,132.4,39.1,132.4,40"/>
					<path id="Fill-38" class="st0" d="M132.4,66.3c0,0.9-0.8,1.7-1.7,1.7c-0.9,0-1.7-0.8-1.7-1.7c0-1,0.8-1.7,1.7-1.7
						C131.6,64.6,132.4,65.3,132.4,66.3"/>
					<path id="Fill-40" class="st0" d="M132.4,93.1c0,1-0.8,1.7-1.7,1.7c-0.9,0-1.7-0.8-1.7-1.7c0-0.9,0.8-1.7,1.7-1.7
						C131.6,91.4,132.4,92.1,132.4,93.1"/>
					<path id="Fill-57" class="st1" d="M155.4,5.8l12.1,107.4h-12.1V5.8"/>
					<path id="Fill-59" class="st27" d="M127.5,47.2h-18.7v-4c3.2-0.3,6.4-0.7,9.2-0.8c0.5,0,1,0,1.5,0c2.6,0,5.2,0.4,6.8,2.3
						C126.9,45.3,127.3,46.2,127.5,47.2"/>
					<path id="Path_7_" class="st19" d="M126.8,84.3v25.2c0,1.7-1.4,3-3,3l-137.7,0V84.3H126.8z"/>
					<path id="Fill-66_1_" class="st19" d="M109.6,112.5l2.4,8.4h4.6l2.1-8.4H109.6"/>
					<path id="Fill-70_1_" class="st28" d="M91.2,84.3h36.2c0,0,1.6-39.3-0.7-41.4c-0.7-0.7-4-0.8-8.3-0.6c-0.4,0-0.8,0-1.2,0.1h0
						c-0.1,0-0.1,0-0.2,0c-9.8,0.5-23.5,2.1-23.5,2.1L91.2,84.3"/>
					<path id="Fill-71_1_" class="st29" d="M113.1,84.3h14.5c0,0,1.1-39.3-0.5-41.4c-0.5-0.7-2.8-0.8-5.8-0.6
						C120.8,43.6,111.2,71.3,113.1,84.3"/>
					<path id="Path_8_" class="st30" d="M5.9,17.6c1.7,0,3.2,0.8,4.2,2c0.8,0.9,1.2,2.1,1.2,3.5v42.5H-14v-48H5.9z"/>
					<path id="Fill-73_1_" class="st31" d="M93.7,23.1v42.5H11.3V23.1c0-1.3,0.5-2.5,1.2-3.5c1-1.2,2.5-2,4.2-2h71.6
						c1.7,0,3.2,0.8,4.2,2C93.3,20.6,93.7,21.8,93.7,23.1"/>
					<path id="Path_9_" class="st30" d="M11.3,69.2v15.1l-25.3,0V69.2L11.3,69.2z"/>
					<path id="Fill-75_1_" class="st29" d="M11.3,84.3h96.3V72c0-1.6-1.3-2.8-2.8-2.8H11.3V84.3"/>
					<path id="Path_10_" class="st28" d="M11.3,65.6v3.7l-25.3,0v-3.7L11.3,65.6z"/>
					<path id="Fill-77_1_" class="st28" d="M93.7,65.6l10.4,3.7H11.3v-3.7H93.7"/>
					<path id="Fill-85" class="st5" d="M59.4,67.6h35.1l2.1-26.2c0,0,1.4-10.9-3.2-10.6c-0.4,0-0.7,0.1-1.1,0.1
						c-1.1,0.1-2.3,0.3-3.7,0.5c-4.9,0.7-11.2,1.7-14.3,1.5c-2.7-0.2-6.9-0.7-9.8-1.1c-1.5-0.2-2.8,1-2.7,2.6
						c0.4,5.1,1,15.2-0.3,18.8c-0.1,0.2-0.1,0.3-0.2,0.5c-1.2,3.8-1.7,10.1-1.9,12.7C59.4,67.2,59.4,67.6,59.4,67.6"/>
					<path id="Fill-122" class="st32" d="M22.2,112.8h-9c0-0.1,0-0.2,0-0.2h9.1C22.2,112.6,22.2,112.7,22.2,112.8"/>
					<path id="Fill-124_1_" class="st32" d="M25.5,65.6H11.6v0L25.5,65.6C25.5,65.6,25.5,65.6,25.5,65.6 M11,65.6H6c0,0,0,0,0,0
						L11,65.6L11,65.6"/>
					<path id="Path_11_" class="st33" d="M93.3,30.8c2.4-0.2,3.2,2.6,3.4,5.3l0,0.5l0,0l0,0.5l0,0l0,0.5l0,0l0,0.7l0,0l0,0.4l0,0
						l0,0.4l0,0l0,0.6l0,0l0,0.5l0,0l0,0.6l0,0l-0.1,0.6l-2.1,26.2l-9.7,0c4.2-7.2,6.1-18.6,5.6-34.1l-0.1-1.6c0-0.3,0-0.5,0-0.8
						l1-0.1l0,0l0.9-0.1l0,0C92.6,30.9,92.9,30.8,93.3,30.8z"/>
					<g id="Group" transform="translate(11.000000, 144.000000)">
						<path id="Combined-Shape" class="st2" d="M-3.4,30L-3.4,30l7-9.3L24.2-6.6L24.5-7H24l4.9-6h228.5l5.6,6h-0.5l8.7,10h0L287,21
							h-0.1l7.9,9h0L307,44H-14L-3.4,30z"/>
						<ellipse id="Oval_1_" class="st34" cx="154.5" cy="26.5" rx="105.5" ry="9.5"/>
					</g>
					<g id="Group-14" transform="translate(191.000000, 53.000000)">
						<path id="Fill-50" class="st35" d="M-6.6,10.8c-1.7-1.3-4.1-2.5-5.8-1.2c-0.7,0.5-1.1,1.4-1.3,2.2c-0.6,2.3-0.1,4.8,1,6.9
							c1.1,2.1,2.7,3.9,4.3,5.6c3.5,3.6,7.4,6.9,11.7,9.5c1.6,1,7.1,3.8,7.1,1c0-0.9-1.4-3.1-1.8-4c-0.6-1.6-1.4-3.1-2.2-4.6
							C3.2,20.2-1.2,14.9-6.6,10.8"/>
						<path id="Fill-51" class="st35" d="M22.4,6.8C24,5.4,26.3,4,28.1,5.1c0.8,0.5,1.2,1.3,1.5,2.1c0.8,2.2,0.5,4.7-0.4,6.9
							s-2.3,4.1-3.8,5.9c-3.2,3.9-6.8,7.5-10.9,10.5c-1.5,1.1-6.7,4.4-7,1.5C7.5,31.2,8.7,28.9,9,28c0.5-1.6,1.1-3.2,1.8-4.8
							C13.4,17,17.4,11.4,22.4,6.8"/>
						<path id="Fill-52" class="st4" d="M14.9-6.4c-0.6-2.9-2.2-6.4-5.1-6.6c-1.2-0.1-2.4,0.5-3.5,1.2c-2.7,1.9-4.4,5-5.1,8.3
							C0.4-0.3,0.5,3.1,0.8,6.4c0.5,7.1,1.7,14.1,3.9,20.8c0.8,2.4,4.1,10.5,6.7,7.4c0.8-0.9,1.2-4.6,1.7-5.9
							c0.8-2.3,1.4-4.6,1.9-6.9C17,12.5,17,2.8,14.9-6.4"/>
						<path id="Fill-53" class="st36" d="M10.7,34.7C9.8,21.6,9,8.6,8.1-4.5L6.7-4.4C7.6,8.7,8.4,21.7,9.3,34.8L10.7,34.7"/>
						<path id="Fill-54" class="st2" d="M24.1,34.4l-2.8,27.1H-3.1l-3.1-27.1H24.1"/>
						<path id="Fill-55" class="st37" d="M-8.9,34.4h35.8v-5H-8.9V34.4z"/>
					</g>
					<g id="Group_1_" transform="translate(68.000000, 94.000000)">
						<path id="Fill-20" class="st18" d="M168.1,7.8c-0.9-3.7-0.5-7.6,1.1-11c3.9-0.5,7.3-1.4,10.2-2.8c3.1-1.8,4.7-2.8,4.7-2.8
							c3.7-2.8,8.8-3.1,12.8-0.8c4.1,2.3,6.4,6.8,5.9,11.4c-0.5,4.6-3.7,8.5-8.1,9.9c-4.9,2.1-9.8,3.5-14.8,4.2
							c-1.9,0-3.4-1.4-3.8-3.2c-0.3-1.8-0.4-2.8-0.4-2.8C170.5,8.5,168.1,7.8,168.1,7.8"/>
						<path id="Fill-23" class="st18" d="M-1.6,47.5c-1.6,2-1.9,4.7-0.9,7c1.1,2.3,3.4,3.8,5.9,3.8C14,51.4,27.5,47.2,44,45.6
							c5.6,0.1,10.4-0.7,14.6-2.2c0,0-1.4-5.5-4.2-16.5c-2.9,1.8-7.5,3.3-13.9,4.6C26.4,32.4,12.4,37.8-1.6,47.5"/>
						<path id="Fill-25" class="st38" d="M54.9,44.5c1.3-0.3,2.5-0.7,3.7-1.1c0,0-1.4-5.5-4.2-16.5c-0.7,0.4-1.4,0.8-2.2,1.2
							C52.7,34.7,53.6,40.2,54.9,44.5"/>
						<path id="Fill-26" class="st38" d="M40.6,31.4l-0.2,0l-0.4,0c0.4,0.8,1,3.2,1.1,3.8c0,0.2,0.2,0.3,0.4,0.2
							c0.2,0,0.3-0.2,0.2-0.4C41.6,34.6,41,32.2,40.6,31.4"/>
						<path id="Fill-27" class="st19" d="M101.6,5.4c0.2,9.6,1.8,19.3,4.6,29.1c-3.9,4.8-18.1,10.7-42.7,17.8
							c-1.5,0.6-2.6,0.2-3.3-1.2c-3.4-8.3-5.8-16.5-7.3-24.6C74.6,18.9,84.6,2.9,101.6,5.4"/>
						<path id="Fill-30" class="st39" d="M63,52.5c-0.2,0.1-0.4,0.1-0.6,0.1l-2-5.4c-0.1-0.2,0-0.3,0.2-0.4c0.2-0.1,0.3,0,0.4,0.2
							L63,52.5"/>
						<path id="Fill-32_1_" class="st39" d="M103.4,22.4c0.1,0.3,0.1,0.6,0.2,0.9c-5.3,1.3-10.3,4.2-16.4,7.7
							c-7.3,4.2-16.2,9.3-29.3,13.9l-0.3-0.8c13-4.5,21.9-9.6,29.2-13.8C92.9,26.6,97.9,23.7,103.4,22.4"/>
						<path id="Fill-34_1_" class="st40" d="M161.9,28.9c-6.4,0.9-11.2,1.8-14.5,2.6c-14.7,6.5-28,10.3-39.8,11.6
							c-3.7-10.4-6.1-23.2-7.3-38.3c19.3-4.7,33.5-13.3,53.9-13.4c7.3-0.1,12.5,1.5,15.7,5c1.5,5.1,1.3,10.1-0.4,15
							C167.6,18.3,164.2,20.4,161.9,28.9"/>
						<path id="Fill-37_1_" class="st0" d="M167.9-5.4c0.7,0.5,1.4,1.1,2,1.8c1.5,5.1,1.3,10.1-0.4,15c-0.4,1.5-0.9,2.9-1.4,4
							C169.4,9.4,169.4,2.4,167.9-5.4"/>
						<path id="Fill-38_1_" class="st41" d="M146.9,31.7c-9.6,4.2-18.6,7.3-26.9,9.2c5.6-13.9,13.9-27.5,24.9-40.8
							c1.5-0.6,3.1-0.2,4.2,1c-2.4,10.5-3.8,18.7-4.4,24.7c1.7,0.6,2.5,0.9,2.5,0.9L146.9,31.7"/>
						<path id="Fill-39_1_" class="st42" d="M158.6,72.1c-0.1-3.7-0.2-5.5-0.2-5.5c8.8,2.4,13.1,3.6,13.1,3.6c0.5,0.4,0.6,1,0.4,1.6
							c-0.2,0.6-0.8,0.9-1.3,0.7c-4.2-0.2-6.3-0.3-6.3-0.3c0,0.3-0.2,0.6-0.5,0.8c-0.3,0.2-0.6,0.3-0.9,0.2
							C160.1,72.4,158.6,72.1,158.6,72.1"/>
						<path id="Fill-42" class="st18" d="M174.2,85.4c3.5-0.7,4.2-2.5,2.8-3.2c0,0-2.1-0.6-6.3-1.7c-3.9-1.3-7.6-2.5-11-3.8
							c-1.4-11.8,1.5-22,0.4-29.9c-0.1-3.2,0-7.3,0.5-12.4c0,0,0-1.8,0-5.3c-5.2-0.6-9.7-1.4-13.5-2.4c-0.2,5.6-0.4,8.5-0.4,8.5
							c-0.6,16.7,1.5,32.1,6.5,46.2c0.6,2.3,2.7,3.9,5,4C164.5,85.8,169.7,85.8,174.2,85.4"/>
						<path id="Fill-46" class="st38" d="M175.3,85.1c0.4-0.1,0.8-0.3,1-0.4l-8.9-1.5c-0.2,0-0.3,0.1-0.3,0.2c0,0.2,0.1,0.3,0.2,0.3
							L175.3,85.1z M177.3,83.9c0.2-0.2,0.3-0.4,0.3-0.6l-9.1-1.5c-0.2,0-0.3,0.1-0.3,0.2c0,0.2,0.1,0.3,0.2,0.3L177.3,83.9z
							 M177,82.2L177,82.2l-4.7-1.2l-3.2-0.4c-0.2,0-0.3,0.1-0.3,0.3c0,0.2,0.1,0.3,0.3,0.3L177,82.2L177,82.2z"/>
						<path id="Fill-47" class="st43" d="M188.6,2.1c-0.7,0.4-1.6,1.1-2.1,1.7c-0.4,0.5-0.3,1,0.2,1c0.5,0.1,1.4-0.2,2.2-0.3
							c0.7-0.2,1.3-0.3,1.9,0c0.6,0.3,1.3,1,2.1,1.3c0.8,0.3,1.7,0.2,2.2,0.5c0.6,0.3,0.8,1.1,1.1,2.2c0.3,1.1,0.5,2.4,1.2,3.6
							c0.7,1.2,1.8,2.1,3.2,2.2c1.5,0.1,3.3-0.8,4-2.2c0.6-1.5,0.1-3.6-0.1-5.6c-0.2-2,0-4-0.1-6.3c-0.2-2.4-0.8-5.1-1.9-7.2
							c-1.1-2.1-2.8-3.5-4-3.9c-1.3-0.4-2.1,0.2-2.6,0.1s-0.6-0.7-1-1.2c-0.4-0.5-1.1-0.8-2.2-0.9c-1.2-0.1-2.8,0-4.3,0.4
							c-1.5,0.4-2.8,1.1-4.3,2.1c-1.5,1-3.1,2.1-4.7,3.1c-1.6,1-3.2,1.8-3.3,2.4c-0.1,0.6,1.4,1,2.4,1.8c1.1,0.8,1.8,1.9,2.9,2.7
							c1.1,0.7,2.5,1.1,3.4,0.7c1-0.4,1.5-1.4,2.3-1.9c0.8-0.5,1.9-0.4,2.5,0.2c0.6,0.6,0.6,1.7,0.4,2.3
							C189.8,1.5,189.3,1.7,188.6,2.1"/>
						<path id="Fill-48" class="st44" d="M-11.1,63.6c0,2.7,0.5,4.9,1.3,6.9c1.2,2.8,3.6,4.6,6.4,5.9H8.1c0.7-0.1,1.1-0.7,1.1-1.4
							c-0.6-3-3-5.4-6.1-6.1c0,0,0.5-3.2,1.4-9.6c0,0,0.8-1.1,2.3-3.2c-1-0.9-2.1-0.9-3.4,0.1c-1.1-0.9-2.3-1.7-3.6-2.2
							C-1.2,53.3-1.9,52-2,50.7C-2.2,49.3-1.7,48-0.8,47c-0.9-0.4-1.9-0.4-2.9-0.1c0,0-3,1.5-8.2,4C-15,53.2-14.7,57.4-11.1,63.6"/>
						<path id="Fill-51_1_" class="st19" d="M-11.1,63.6c0,2.7,0.5,4.9,1.3,6.9c1.2,2.8,3.6,4.6,6.4,5.9H8.1
							c0.7-0.1,1.1-0.7,1.1-1.4c-0.1-0.4-0.2-0.8-0.4-1.2l0,0H-2.9c-3.6-0.8-5.9-4.7-6.7-11.6c-2.1-5.2-2.3-9.2-0.5-12.2l-1.7,0.8
							C-15,53.2-14.7,57.4-11.1,63.6"/>
						<path id="Fill-54_1_" class="st19" d="M3.1,69c-0.3,0.1-0.5,0.2-0.8,0.2c-0.5,0.2-1,0.4-1.5,0.7c-0.1,0.1-0.3,0-0.4-0.1
							c-0.1-0.1,0-0.3,0.1-0.4c0.5-0.3,1.1-0.5,1.6-0.7c0.3-0.1,0.7-0.2,1-0.3L3.1,69L3.1,69"/>
					</g>
					<path id="Path-53" class="st45" d="M201,120c5.3,1.3,9,2,11,2"/>
				</g>
				<line id="Fill-49" class="st46" x1="375.8" y1="200.2" x2="375.8" y2="200.2"/>
				<g id="Group-17" transform="translate(225.000000, 1.000000)">
					<path id="Rectangle_3_" class="st1" d="M-4-13h266c5.5,0,10,4.5,10,10v175c0,5.5-4.5,10-10,10H-4c-5.5,0-10-4.5-10-10V-3
						C-14-8.5-9.5-13-4-13z"/>
					<g id="Group_2_" transform="translate(0.000000, 78.000000)">
						<g id="Group-3">
							<path id="Path_12_" class="st4" d="M-12.1-12c2.6,1.3,4.4,3.7,5,6.4l0.1,0.3l0-0.1c0-1.1,0.6-2.1,1.6-2.6
								c1.3-0.7,3-0.4,3.9,0.8c1,1.2,1,2.8,0,4C3.3-2.5,6.8,1.3,7.4,6c0.2,1.4,0.1,2.7-0.3,4c1.7-0.5,3.6-0.5,5.3-0.1
								C11.3,12,9.8,13.8,8,15.1c0.8,0.1,1.6,0.4,2.3,0.8c3,1.5,4.8,4.8,4.4,8.1c0.5-1.7,2-2.9,3.8-2.9c1.8,0,3.3,1.1,3.9,2.7
								c0.4,1.3,0.2,2.6-0.6,3.7l-0.1,0.1l0.2-0.1c3.5-3,8.5-3.7,12.7-1.7c4.6,2.2,7.3,7,6.8,12.1c-0.5,4.6-3.6,8.4-7.9,9.8l-0.1,0
								l0.2,0c2-0.2,4,0.7,5.2,2.4c1.5,2.2,1.3,5.2-0.6,7.1c4.8-3.4,11.2-3.3,15.9,0.3c4.7,3.6,6.5,9.8,4.4,15.3
								c-2,5.5-7.4,9.1-13.3,8.8l-59.3,0v-94.4C-13.3-12.6-12.7-12.4-12.1-12z"/>
							<path id="Path_13_" class="st47" d="M-7.9,7.2C-3.6,10.9-2.4,17-5.1,22c2.4-0.8,5-0.2,6.8,1.7c1.7,1.8,2.2,4.5,1.3,6.9
								c0.7-1.4,2.3-2,3.8-1.5c1.5,0.5,2.4,2,2.1,3.5c1.5-2.5,4.4-3.7,7.3-3c2.8,0.7,4.8,3.2,4.9,6.1c0.1,2.9-1.8,5.5-4.6,6.4
								c1.4,0.2,2.4,1.3,2.5,2.7c0.1,1.4-0.8,2.7-2.1,3c4-0.3,7.8,2.1,9.2,5.8c1.5,3.8,0.3,8-2.9,10.5c6-3.1,13.4-1.9,18.1,3
								c3.7,3.9,5,9.4,3.7,14.4h-59V4.5C-11.8,4.8-9.7,5.7-7.9,7.2z"/>
							<path id="Shape" class="st4" d="M272,18.7v62.9h-74.4c-4.7-6.9-3.1-16.2,3.6-21.2c6.7-5,16.1-3.8,21.3,2.7
								c-0.6-2.2,0.3-4.6,2.2-5.8c1.4-0.9,3.1-1,4.6-0.5l0.1,0l-0.2-0.2c-5.1-3.6-7.7-9.9-6.4-16.1c1.4-6.9,7.2-12.1,14.2-12.7
								c7-0.6,13.6,3.5,16.2,10.1c-0.1-2,0.7-4,2.1-5.4c1.4-1.5,3.3-2.3,5.3-2.3c-2.6-2-3.8-5.3-3-8.4c0.8-3.2,3.3-5.6,6.5-6.1
								C267.1,15,270.2,16.2,272,18.7z M229.4,56.8L229.4,56.8c0.5,0.4,1,0.7,1.5,0.9c-0.4-0.4-0.9-0.7-1.4-0.9L229.4,56.8z M272,14
								l0,4.6c-0.7-1.3-0.7-2.9-0.1-4.3L272,14z"/>
							<path id="Path_14_" class="st47" d="M272,22v59.6h-56.5c-0.6-4.7,0.8-9.5,4.4-13.1c5.4-5.4,14-6.1,20.2-1.5
								c-1.3-1.3-1.8-3.2-1.3-5c0.5-1.8,2-3.1,3.8-3.4c1.8-0.3,3.7,0.4,4.8,1.8c-3.7-5.4-2.9-12.8,2-17.1c4.9-4.4,12.3-4.4,17.2,0
								c-1-1.4-0.9-3.3,0.3-4.5c1.2-1.2,3.1-1.3,4.5-0.3c-2.9-3.2-3.9-7.8-2.5-11.9c0.6-1.7,1.5-3.2,2.6-4.4L272,22z"/>
						</g>
						<g id="Group-12" transform="translate(0.000000, 90.000000)">
						</g>
						<path id="Path_15_" class="st4" d="M-12.1-12c2.6,1.3,4.4,3.7,5,6.4l0.1,0.3l0-0.1c0-1.1,0.6-2.1,1.6-2.6
							c1.3-0.7,3-0.4,3.9,0.8c1,1.2,1,2.8,0,4C3.3-2.5,6.8,1.3,7.4,6c0.2,1.4,0.1,2.7-0.3,4c1.7-0.5,3.6-0.5,5.3-0.1
							C11.3,12,9.8,13.8,8,15.1c0.8,0.1,1.6,0.4,2.3,0.8c3,1.5,4.8,4.8,4.4,8.1c0.5-1.7,2-2.9,3.8-2.9c1.8,0,3.3,1.1,3.9,2.7
							c0.4,1.3,0.2,2.6-0.6,3.7l-0.1,0.1l0.2-0.1c3.5-3,8.5-3.7,12.7-1.7c4.6,2.2,7.3,7,6.8,12.1c-0.5,4.6-3.6,8.4-7.9,9.8l-0.1,0
							l0.2,0c2-0.2,4,0.7,5.2,2.4c1.5,2.2,1.3,5.2-0.6,7.1c4.8-3.4,11.2-3.3,15.9,0.3c4.7,3.6,6.5,9.8,4.4,15.3
							c-2,5.5-7.4,9.1-13.3,8.8l-59.3,0v-94.4C-13.3-12.6-12.7-12.4-12.1-12z"/>
						<path id="Path_16_" class="st47" d="M-7.9,7.2C-3.6,10.9-2.4,17-5.1,22c2.4-0.8,5-0.2,6.8,1.7c1.7,1.8,2.2,4.5,1.3,6.9
							c0.7-1.4,2.3-2,3.8-1.5c1.5,0.5,2.4,2,2.1,3.5c1.5-2.5,4.4-3.7,7.3-3c2.8,0.7,4.8,3.2,4.9,6.1c0.1,2.9-1.8,5.5-4.6,6.4
							c1.4,0.2,2.4,1.3,2.5,2.7c0.1,1.4-0.8,2.7-2.1,3c4-0.3,7.8,2.1,9.2,5.8c1.5,3.8,0.3,8-2.9,10.5c6-3.1,13.4-1.9,18.1,3
							c3.7,3.9,5,9.4,3.7,14.4h-59V4.5C-11.8,4.8-9.7,5.7-7.9,7.2z"/>
						<path id="Path_17_" class="st2" d="M272,77.2V94c0,5.5-4.5,10-10,10H-4c-5.5,0-10-4.5-10-10V77.2H272z"/>
					</g>
					<g id="Group-15">
						<path id="Path_18_" class="st40" d="M159.5,109.7l7.1-0.8l0.9,2.4l0,0l1,2.6l0,0l1.2,3.3l0,0l1.4,3.7l0,0l1.5,3.9l0,0l1.9,5.2
							l0,0l3.6,10l0,0l3.3,9.2l0,0l5.3,14.6l0,0l6.5,18.2l0,0l-15,0l-2.5-3.7l0,0l-1.7-2.6l0,0l-1.4-2.2l0,0l-0.8-1.3l0,0l-0.4-0.6
							l0,0c-0.6-1-1-2.2-1.4-3.4l-0.2-0.6c0-0.2-0.1-0.4-0.1-0.6l-0.1-0.6l0,0l-0.1-0.6c0-0.1,0-0.2-0.1-0.3l-0.1-0.6l0,0l-0.1-0.6
							l0,0l-0.1-0.6l0,0l-0.1-0.5l0,0l-0.1-0.5l0,0l-0.1-1l0,0l-0.1-0.7l0,0l-0.1-0.8l0,0l-0.1-1.2l-15.2-24.6l-4.9,0.3L131.3,160
							l0,0.5l0,0l0,0.4l0,0l0,0.4l0,0l-0.1,0.5l0,0l-0.1,0.4l0,0l-0.1,0.4l0,0L131,163l0,0l-0.1,0.5c0,0.1,0,0.2,0,0.2l-0.1,0.5
							c-0.4,1.6-1.1,3.5-2.2,5.3l-0.3,0.4l0,0l-0.3,0.4l0,0l-0.4,0.5l0,0l-0.4,0.6l0,0l-0.7,0.9l0,0l-1,1.2l0,0l-1.1,1.4l0,0l-2,2.4
							l0,0l-2.8,3.3l0,0l-1.2,1.4l0,0l-16,0l1.2-2.5l0,0l1.3-2.6l0,0l1.9-4l0,0l2-4.1l0,0l2-4.2l0,0l1.6-3.4l1.9-4.1l0,0l3.5-7.4
							l0,0l4.9-10.7l0,0l4.4-9.6l0,0l3.6-7.9l0,0l4-8.9l0,0l6.2-0.7L159.5,109.7z"/>
						<g id="Group_3_">
							<g id="Group-3_1_">
							</g>
							<g id="Group-12_1_" transform="translate(0.000000, 168.000000)">
							</g>
						</g>
						<path id="Path_19_" class="st48" d="M167.9,114.8c-5.9,1-7.8-3.1-8.4-5.1"/>
						<path id="Path_20_" class="st18" d="M151.5,44.9l6.8-7c0,0,4.4-5.9,8.3-9c3.9-3.1,9.2-8.6,9.2-8.6S184,9.7,186.7,9.7
							c2.7,0,3.7,2.6,1.9,4.8c-1.8,2.2-3.5,4.6-3.5,4.6s2.7-3.1,3.6-3.1c0.9,0.1-0.4,2.4-2.3,5.2c-1.9,2.8-6.8,5.4-6.8,5.4
							s-7,11.5-9.5,14.5c-2.5,2.9-4.9,4.6-4.9,4.6l-3,6.2C162.3,52,153.5,50.9,151.5,44.9z"/>
						<path id="Path_21_" class="st24" d="M155.4,40.8l-1,1.1l3.4,8.9c2.4,1,4.5,1.2,4.5,1.2l3-6.2
							C161.5,41.8,157.5,40.9,155.4,40.8z"/>
						<path id="Path_22_" class="st18" d="M106.9,99.2l-4.2,8.9c0,0-3.9,6.2-5.5,10.9c-1.5,4.7-4.7,11.6-4.7,11.6s-7,11.5-6,14
							c1,2.5,3.7,2.5,5.2,0.1c1.5-2.5,3.1-4.9,3.1-4.9s-2,3.6-1.6,4.4c0.4,0.8,2.1-1.2,4.1-4c2-2.8,2.7-8.3,2.7-8.3
							s8.3-10.6,10.2-14c1.8-3.4,2.5-6.2,2.5-6.2l4.7-5C117.3,106.7,113.2,98.9,106.9,99.2z"/>
						<path id="Path_23_" class="st24" d="M106.9,99.2l-0.6,1.3c0.4,2,2,8.4,6.4,11.2l4.7-5C117.3,106.7,113.2,98.9,106.9,99.2z"/>
						<path id="Path_24_" class="st26" d="M106.1,99.9c0,0,9.3-18.4,9.9-19.6c0.6-1.2,38-39.6,38-39.6s8.9,2.2,10.1,11.3l-8.9,13.8
							c0,0,9.3,24.3,12.1,42.7c0,0-13.1,7.3-33.2,4.7c0,0-2.4-8.9-8.5-14.2l-8.3,9.1C117.2,108.2,109.9,105.9,106.1,99.9z"/>
						<path id="Shape_1_" class="st49" d="M134,113.4c0,0-2.4-8.9-8.5-14.2l0,0C131.6,104.5,134,113.4,134,113.4z"/>
						<path id="Path_25_" class="st50" d="M126.6,94.4c-0.1,0-0.2-0.1-0.2-0.2c-4-10-8.6-12.3-9.1-12.5l0,0
							c-0.1-0.1-0.2-0.2-0.1-0.3c0-0.1,0.1-0.2,0.2-0.2c0,0,0.1,0,0.1,0c0.1,0,5.2,2,9.4,12.8C126.9,94.2,126.8,94.3,126.6,94.4
							C126.7,94.4,126.7,94.4,126.6,94.4z"/>
						<path id="Path_26_" class="st50" d="M154.5,65.5c-0.1,0-0.2-0.1-0.2-0.2c-4.4-10.1-10.7-11.3-11.4-11.4l-0.1,0
							c-0.1,0-0.2-0.1-0.2-0.3c0-0.1,0.1-0.2,0.3-0.2c0,0,0,0,0,0c0.1,0,7.2,0.8,11.9,11.7c0.1,0.1,0,0.3-0.1,0.3
							C154.6,65.4,154.5,65.5,154.5,65.5z"/>
						<path id="Path_27_" class="st43" d="M117.3,61.4c0,0-5.1-1.6-6.5-2.3c-1.4-0.7-2.2-4.9-2.2-4.9s-3.9-1.5-3.5-6.2
							c0.4-4.6,5.8-6.5,10.6-6.1c4.8,0.4,6.9-1.8,10.8-0.5c3.9,1.4,5.9,9.5,4.4,19.2S117.3,61.4,117.3,61.4z"/>
						<path id="Path_28_" class="st24" d="M124.2,66l2.5,5c0,0,8.3,1.4,8.1-6.8l-5.2-6.4L124.2,66z"/>
						<path id="Path_29_" class="st18" d="M110.9,54.8c0,0,6.7,7.9,10.3,10.8c3.6,2.8,7.4,0.4,8.3-3.6c0.9-4,1.7-6.1-4.8-13.5
							C118.1,41,107.8,49.8,110.9,54.8z"/>
						<path id="Path_30_" class="st18" d="M126.7,52.5c0,0-0.4-3.6,1-4.4c1.4-0.9,3.2,3.5,1.4,6.5C127.2,57.6,126.7,52.5,126.7,52.5
							z"/>
						<path id="Path_31_" class="st43" d="M109,53.7c4.1,1.5,8.7-0.2,10.8-6.4c0,0,2.1,2.8,2.7,2.9l0,0c1.5,0.2,2.9,0.9,3.9,2.1
							l0.6,0.7c0,0,0.9-8-7.6-8.6C110.9,43.9,109,53.7,109,53.7z"/>
					</g>
				</g>
			</g>
		</g>
		<g id="Group-33" transform="translate(182.000000, 1006.000000)">
		</g>
	</g>
</g>
</svg>
